<svg xmlns="http://www.w3.org/2000/svg" viewBox="0 0 230 300">
  <g id="layer1">
    <g font-size="9" letter-spacing="0" word-spacing="0" stroke-width=".253" font-family="fnt1">
      <path d="M4.214 5v179.15c0 61.177 49.6 110.85 110.795 110.85 61.17 0 110.77-49.673 110.77-110.85V5H4.21" id="path2522" fill="#ffd42e"/>
      <path d="M223.34 7.374V184.15c0 59.716-48.596 108.293-108.33 108.293-59.736 0-108.35-48.577-108.35-108.293V7.374h216.68" id="path2524" fill="#ba3733"/>
      <path d="M10.02 184.15c0 57.89 47.1 105.006 104.99 105.006 57.87 0 104.97-47.116 104.97-105.006V91.014H10.02v93.136" id="path2526" fill="#ffd42e"/>
      <path d="M219.98 10.66H10.02v76.884h209.96V10.66" id="path2528" fill="#ffd42e"/>
      <path d="M217.532 13.218H12.468V85.17h205.064V13.218" id="path2530" fill="#fff"/>
      <path d="M115.01 93.388v193.394c56.52 0 102.522-46.02 102.522-102.632V93.388H115.01" id="path2532" fill="#fff"/>
      <path d="M34.273 25.453h43.043v9.68H46.69v7.487h29.165v9.496H46.69v14.062H34.274V25.453" id="path2534" fill="#ba3733"/>
      <path d="M119.173 50.472h12.418c.1 2.01.13 3.287.13 3.835 0 3.105-.45 5.662-1.39 7.305-1.04 2.01-3.06 3.47-6.06 4.2-3.01.73-8.2.913-15.59.913-7.76 0-13.27 0-16.58-.365-3.28-.182-5.77-.913-7.43-1.643-1.5-.913-2.61-1.827-3.36-3.288-.73-1.28-1.2-3.11-1.42-5.3-.18-1.83-.27-5.3-.27-10.05 0-4.75.09-8.22.28-10.23.19-2.19.53-3.66 1.04-4.93 1.14-2.56 3.44-4.2 6.91-4.93 3.45-.73 10.447-1.28 20.947-1.28 5.24 0 9.055.18 11.45.36 2.39.36 4.29.73 5.7 1.46 1.86.91 3.155 2.19 3.904 3.83.766 1.82 1.13 4.2 1.13 7.67 0 .18 0 .73-.017 2.01h-12.42c-.057-1.47-.15-2.38-.26-2.74-.11-.55-.33-.92-.674-1.1-.478-.55-1.68-.73-3.6-.92-1.937-.18-4.86-.36-8.786-.36-3.87 0-6.555.18-8.052.36-1.5.18-2.56.364-3.16.91-.75.547-1.26 1.64-1.55 2.92-.27 1.46-.42 3.835-.42 6.94 0 2.92.13 5.11.39 6.39.253 1.28.75 2.19 1.5 2.74.69.55 1.803.91 3.32 1.096 1.514.18 4.216.18 8.07.18 4.746 0 7.923 0 9.51-.184 1.57-.186 2.65-.55 3.2-1.1.75-.547 1.13-2.19 1.17-4.75" id="path2536" fill="#ba3733"/>
      <path d="M12.468 93.388v90.762c0 56.612 46.002 102.632 102.54 102.632V93.388H12.47" id="path2538" fill="#ba3733"/>
      <path d="M153.816 50.29l7.487-15.34h1.717l7.542 15.34h-16.746zm18.645-24.837h-20.17l-22.5 43.83H97.76v9.678h42.166l9.55-19.72h25.477l9.606 19.73h16.36l-28.46-53.51" id="path2540" fill="#ba3733"/>
      <path d="M66.012 78.96h31.74v-9.678h-31.74v9.68z" fill="#46714d"/>
      <path d="M34.273 78.96h31.74v-9.678h-31.74v9.68z" fill="#ba3733"/>
      <path d="M98.774 70.378v7.487h30.04v-7.487h-30.04" fill="#fff"/>
      <path d="M103.814 264.685c-1.88 0-3.323-1.278-3.323-4.93 0-2.557.97-4.383 3.02-4.383 2.69 0 3.82 3.104 3.82 5.66 0 1.096-.12 2.01-.34 2.923-.89.548-1.99.73-3.16.73zm.074-11.505c-3.58 0-6.648 2.74-6.648 6.94 0 4.017 2.41 6.757 6.118 6.757 1.04 0 1.936-.183 2.83-.548-1.533 3.28-4.42 5.29-7.47 6.39l.86 2.01c2.812-.92 5.077-2.01 7.286-4.2 1.808-1.83 3.707-5.3 3.707-9.14 0-5.48-3.3-8.22-6.68-8.22" id="path2548" fill="#fff"/>
      <path d="M89.79 255.92l2.574-.914v-1.278h-8.382v1.278l2.557.913v9.49l-2.56.73v1.28h8.38v-1.28l-2.58-.73v-9.5" id="path2550" fill="#fff"/>
      <path d="M127.062 265.416c-2.082 0-4.492-1.644-4.492-4.93 0-3.288 2.41-4.932 4.492-4.932 2.1 0 4.51 1.644 4.51 4.93 0 3.288-2.41 4.932-4.51 4.932zm0-12.236c-4.182 0-7.633 3.105-7.633 7.305 0 4.2 3.45 7.305 7.63 7.305 4.2 0 7.65-3.105 7.65-7.305 0-4.2-3.45-7.305-7.65-7.305" id="path2552" fill="#ba3733"/>
      <path d="M136.047 253.728v2.557h8.985c-2.155 3.287-6.045 11.14-7.232 17.348h2.666c1.078-5.295 5.04-13.148 8.072-17.896v-2.01h-12.49" id="path2554" fill="#ba3733"/>
      <path d="M154.31 200.586l-12.182-10.958c-5.533.914-11.194 1.644-16.93 2.01l-.127-8.584c10.2-.913 15.07-3.652 19.53-7.853 5.35-5.11 7.85-11.68 7.85-21.18 0-16.07-9.46-31.23-17.55-39.26-7.59-7.67-15.57-9.86-19.67-10.77h-.45c-4.07.92-12.07 3.11-19.67 10.78-8.09 8.04-17.53 23.2-17.53 39.27 0 9.5 2.49 16.07 7.84 21.19 4.46 4.2 9.33 6.94 19.54 7.86l-.14 8.583c-5.73-.37-11.37-1.1-16.92-2.01l-12.18 10.96 4.97 5.474c-.493 1.095-.73 2.373-.73 3.65 0 3.837 3.068 6.94 6.866 6.94 1.13 0 3.25-.364 4.62-2.01.4-.55.69-1.093.89-1.824 3.14 6.57 5.02 16.98 5.845 32.32l.05 1.096h33.58l.07-1.098c.806-15.34 2.706-25.75 5.847-32.327.18.737.474 1.28.875 1.83 1.37 1.65 3.49 2.01 4.64 2.01 3.78 0 6.867-3.1 6.867-6.94 0-1.28-.26-2.552-.73-3.65l4.95-5.48" id="path2556" fill="#221f1f"/>
      <path d="M117 180.863l7.36-4.383-9.35-5.48-9.37 5.48 7.36 4.383h4" id="path2558" fill="#46714d"/>
      <path d="M128.633 122.06l9.35 5.66 2.684-1.643c-1.844-2.922-3.817-5.48-5.825-7.67l-6.21 3.652" id="path2560" fill="#46714d"/>
      <path d="M92.017 171l-4.492 2.74c2.575 2.192 5.405 4.018 9.606 5.297l4.26-2.557-9.37-5.48" id="path2562" fill="#46714d"/>
      <path d="M100.162 179.767c2.356.548 5.077.73 8.328.913l-4.986-2.922-3.342 2.01" id="path2564" fill="#46714d"/>
      <path d="M121.51 180.68c3.25-.183 5.99-.365 8.328-.913l-3.342-2.01-4.986 2.923" id="path2566" fill="#46714d"/>
      <path d="M144.064 172.097c1.9-2.19 3.305-4.383 4.255-7.305l-8.2 4.93 3.94 2.375" id="path2568" fill="#46714d"/>
      <path d="M149.396 147.99c-.51-3.286-1.37-6.39-2.502-9.495l-6.775 4.018 9.27 5.478" id="path2570" fill="#46714d"/>
      <path d="M149.56 150.548h-.09l-9.35 5.478 9.094 5.48c.456-2.192.675-4.75.675-7.488 0-1.096-.1-2.374-.21-3.47h-.13" id="path2572" fill="#46714d"/>
      <path d="M128.633 176.48l4.236 2.557c4.21-1.28 7.03-3.105 9.6-5.296l-4.49-2.74-9.35 5.48" id="path2574" fill="#46714d"/>
      <path d="M81.7 164.792c.95 2.922 2.337 5.114 4.236 7.305l3.945-2.374-8.18-4.93" id="path2576" fill="#46714d"/>
      <path d="M122.97 109.276c-3.213-1.46-6.025-2.374-7.96-2.74-1.955.366-4.767 1.28-7.98 2.74l7.98 4.748 7.96-4.748" id="path2578" fill="#46714d"/>
      <path d="M112.872 115.302l-8.09-4.748c-2.52 1.46-5.223 3.47-7.87 6.027-.074 0-.147.19-.2.19l6.792 4.02 9.368-5.48" id="path2580" fill="#46714d"/>
      <path d="M126.496 120.78l6.812-4.017c-.074 0-.146-.182-.22-.182-2.648-2.55-5.332-4.56-7.87-6.02l-8.09 4.75 9.368 5.48" id="path2582" fill="#46714d"/>
      <path d="M101.386 122.06l-6.21-3.653c-2.008 2.19-4 4.748-5.825 7.67l2.67 1.643 9.37-5.66" id="path2584" fill="#46714d"/>
      <path d="M80.53 150.548h-.22c-.107 1.096-.18 2.374-.18 3.47 0 2.74.22 5.296.657 7.487l9.095-5.48-9.35-5.477" id="path2586" fill="#46714d"/>
      <path d="M83.105 138.495c-1.132 3.105-1.99 6.21-2.483 9.496l9.26-5.47-6.777-4.02" id="path2588" fill="#46714d"/>
      <path d="M88.2 127.903c-.584.913-1.168 2.01-1.698 2.922l3.38-2.01-1.682-.912" id="path2590" fill="#46714d"/>
      <path d="M92.017 141.234l9.37-5.478-9.37-5.662-7.25 4.383c-.31.548-.584 1.28-.858 2.01l8.1 4.747" id="path2592" fill="#46714d"/>
      <path d="M105.64 149.27l9.37 5.66 9.35-5.66-9.35-5.48-9.37 5.48" id="path2594" fill="#46714d"/>
      <path d="M92.017 157.305l-9.35 5.66 9.35 5.48 9.37-5.48-9.37-5.66" id="path2596" fill="#46714d"/>
      <path d="M94.154 169.723l9.35 5.478 9.368-5.47-9.368-5.48-9.35 5.48" id="path2598" fill="#46714d"/>
      <path d="M101.386 149.27l-9.37-5.48-9.35 5.48 9.35 5.66 9.37-5.66" id="path2600" fill="#46714d"/>
      <path d="M112.872 128.816l-9.368-5.478-9.35 5.478 9.35 5.66 9.368-5.66" id="path2602" fill="#46714d"/>
      <path d="M112.872 142.513l-9.368-5.48-9.35 5.48 9.35 5.478 9.368-5.47" id="path2604" fill="#46714d"/>
      <path d="M115.01 157.305l-9.37 5.66 9.37 5.48 9.35-5.48-9.35-5.66" id="path2606" fill="#46714d"/>
      <path d="M117.127 169.723l9.37 5.478 9.35-5.47-9.35-5.48-9.37 5.48" id="path2608" fill="#46714d"/>
      <path d="M117.127 142.513l9.37 5.478 9.35-5.47-9.35-5.48-9.37 5.48" id="path2610" fill="#46714d"/>
      <path d="M137.983 154.93l9.35-5.66-9.35-5.48-9.35 5.48 9.35 5.66" id="path2612" fill="#46714d"/>
      <path d="M128.633 162.966l9.35 5.48 9.35-5.48-9.35-5.66-9.35 5.66" id="path2614" fill="#46714d"/>
      <path d="M117.127 128.816l9.37 5.66 9.35-5.66-9.35-5.478-9.37 5.478" id="path2616" fill="#46714d"/>
      <path d="M124.36 122.06l-9.35-5.48-9.37 5.48 9.37 5.66 9.35-5.66" id="path2618" fill="#46714d"/>
      <path d="M143.516 130.825c-.548-.913-1.114-2.01-1.717-2.922l-1.68.913 3.39 2.01" id="path2620" fill="#46714d"/>
      <path d="M137.983 130.094l-9.35 5.662 9.35 5.478 8.108-4.748c-.25-.73-.54-1.46-.84-2.01l-7.26-4.382" id="path2622" fill="#46714d"/>
      <path d="M94.154 156.026l9.35 5.662 9.368-5.662-9.368-5.478-9.35 5.478" id="path2624" fill="#46714d"/>
      <path d="M115.01 130.094l-9.37 5.662 9.37 5.478 9.35-5.478-9.35-5.662" id="path2626" fill="#46714d"/>
      <path d="M135.846 156.026l-9.35-5.478-9.37 5.478 9.37 5.662 9.35-5.662" id="path2628" fill="#46714d"/>
      <path d="M94.1 199.49h10.59l.092-5.66c-5.496-.367-10.92-.914-16.234-2.01-3.982 3.652-7.488 6.94-9.77 8.948l3.03 3.287c2.265-2.922 6.52-4.565 12.29-4.565" id="path2630" fill="#ffd42e"/>
      <path d="M141.452 191.82c-5.314.913-10.72 1.644-16.216 2.01l.09 5.66h10.576c5.772 0 10.027 1.643 12.31 4.565l3.013-3.287c-2.283-2.01-5.79-5.296-9.77-8.948" id="path2632" fill="#ffd42e"/>
      <path d="M115.01 199.673h-8.146l.256-16.436c2.356.182 4.967.182 7.89.182 2.92 0 5.533 0 7.888-.19l.256 16.43h-8.145" id="path2634" fill="#ffd42e"/>
      <path d="M91.433 201.68c-5.972.732-9.332 3.654-9.332 8.037 0 2.556 2.1 4.748 4.7 4.748.75 0 2.14-.183 2.94-1.096.72-.92.86-2.38.46-4.2l1.96-.92c4 5.66 6.41 14.79 7.65 29.4l6.41-15.71c-4.44-9.68-9.42-17.72-14.77-20.27" id="path2636" fill="#ffd42e"/>
      <path d="M107.34 219.213l7.194-17.35-19.065-.182c3.87 3.11 7.72 8.77 11.87 17.54" id="path2638" fill="#ffd42e"/>
      <path d="M134.53 201.68l-19.046.184 7.195 17.35c4.12-8.767 7.98-14.428 11.85-17.533" id="path2640" fill="#ffd42e"/>
      <path d="M108.563 221.952c2.063 4.748 4.2 10.044 6.446 16.253 2.24-6.21 4.36-11.505 6.42-16.253-3.03-7.305-5.74-13.88-6.43-15.523-.72 1.64-3.4 8.21-6.45 15.52" id="path2642" fill="#ffd42e"/>
      <path d="M107.43 224.69c-2.702 6.576-5.497 13.333-7.268 17.716.018.547.055 1.095.09 1.643h14.5l-.766-2.2c-2.008-5.66-4.2-11.69-6.556-17.17" id="path2644" fill="#ffd42e"/>
      <path d="M138.567 201.68c-5.333 2.558-10.336 10.593-14.774 20.272l6.41 15.705c1.242-14.61 3.67-23.74 7.652-29.4l1.954.912c-.41 1.82-.24 3.28.47 4.2.8.91 2.17 1.09 2.94 1.09 2.59 0 4.69-2.19 4.69-4.75 0-4.39-3.38-7.31-9.35-8.04" id="path2646" fill="#ffd42e"/>
      <path d="M116.032 241.858l-.786 2.19h14.5l.11-1.642c-1.79-4.383-4.584-11.14-7.268-17.715-2.374 5.48-4.566 11.51-6.556 17.17" id="path2648" fill="#ffd42e"/>
    </g>
  </g>
</svg>