<svg xmlns="http://www.w3.org/2000/svg" viewBox="0 0 300 300">
  <path d="M0 150C0 67.157 67.157 0 150 0c82.845 0 150 67.157 150 150 0 82.845-67.155 150-150 150C67.157 300 0 232.845 0 150" id="path4948" fill="#fff"/>
  <path d="M3.877 150C3.877 69.298 69.297 3.877 150 3.877c80.703 0 146.123 65.42 146.123 146.123 0 80.703-65.42 146.123-146.124 146.123S3.87 230.703 3.87 150" id="path4952" fill="#004f9f"/>
  <path d="M7.753 150C7.753 71.438 71.438 7.753 150 7.753c78.562 0 142.247 63.685 142.247 142.247 0 78.562-63.685 142.246-142.248 142.246C71.43 292.246 7.75 228.562 7.75 150" id="path4956" fill="#fff"/>
  <path d="M278.166 149.348c-2.113-.036-3.863 1.485-3.896 3.384-.033 1.9 1.663 3.482 3.776 3.52 2.11.035 3.86-1.486 3.895-3.386.04-1.9-1.66-3.48-3.77-3.518m-24.23 11.32l17.1 8.286-18.82 2.595.58 5.74 26.28-4.48.8-5.06-23.61-12.38-2.32 5.28zm19.68 23.418c-2.02-.616-4.12.363-4.67 2.18-.55 1.818.64 3.805 2.66 4.422 2.02.618 4.12-.363 4.68-2.18.56-1.816-.64-3.803-2.66-4.422m-15.12 17.2c-.7-.317-3.24-2.465-2.32-4.52.87-1.948 2.57-1.742 2.57-1.742.8 2.136.87 3.78-.24 6.26m7.4-.188c-.94 2.126-3.25 1.905-3.68 1.712 2.11-4.746 1.31-8.883-2.11-12.74-4.08-.585-7.39.912-8.96 4.454-2.03 4.57 1.44 9.81 6.44 12.035 5 2.225 11.25 1.23 13.25-3.27 1.94-4.358-.58-8.237-.58-8.237l-4.31 1.644s1.21 1.64-.02 4.402m-30.26 21.384c.96.866.82 2.307.04 3.17-.78.866-2.17 1.124-3.13.26-.96-.866-.84-2.277-.07-3.142.78-.865 2.2-1.154 3.16-.288m8.95 6.49c1.48 1.325 1.26 3.43.07 4.754-1.17 1.298-3.27 1.702-4.71.405-1.44-1.3-1.26-3.44-.1-4.73 1.2-1.33 3.27-1.76 4.74-.43m-9.89 1.84c-.95 2.79-.39 5.65 2.05 7.84 3.75 3.37 9.36 1.84 12.08-1.18 3.01-3.35 3.63-8.79-.11-12.11-2.436-2.19-5.417-2.43-8.067-1.16.54-2.28.08-4.47-1.84-6.2-3.24-2.91-7.857-1.91-10.48 1.01-2.623 2.91-3.166 7.63.067 10.55 1.92 1.73 4.06 1.99 6.3 1.24m-9.43 11.13c1.17 1.55.576 3.34-.82 4.39-1.394 1.05-3.28 1.12-4.45-.43-1.17-1.55-.575-3.35.82-4.4 1.39-1.05 3.28-1.13 4.446.42m6.05-1.32c-4.67-6.2-9.86-6.33-13.64-3.48-3.59 2.71-5.04 8-1.87 12.2 3.24 4.3 7.72 4.44 10.97 1.99 1.55-1.17 2.065-2.1 2.605-3.31.5 1.94.23 4.68-.11 6.29-.483 2.25-1.564 4.69-2.54 5.96l5.405 1.05c3.557-5.92 3.95-14.42-.8-20.71m-27.11 7.43c.61 1.14-.02 2.44-1.04 2.99-1.02.55-2.42.32-3.03-.82-.6-1.14-.02-2.43 1.01-2.98s2.46-.33 3.07.81m6.186 9.16c.93 1.75.01 3.65-1.564 4.49-1.543.82-3.66.48-4.565-1.23-.91-1.71-.01-3.65 1.53-4.47 1.573-.84 3.67-.54 4.6 1.21m-9.93-1.65c-1.85 2.3-2.3 5.17-.76 8.06 2.366 4.45 8.16 4.94 11.753 3.024 3.97-2.11 6.41-7.02 4.03-11.415-1.54-2.89-4.26-4.13-7.185-3.844 1.29-1.954 1.6-4.17.39-6.45-2.05-3.84-6.73-4.47-10.19-2.637-3.46 1.84-5.59 6.092-3.55 9.934 1.21 2.284 3.14 3.26 5.5 3.324m-4.23 17.15l-6.46-18.748-5.21 1.79 6.45 18.74 5.21-1.79zm-32.42 7.69l-1.75-20.01 5.79-.51-.5-5.758-17.15 1.495.5 5.75 5.8-.5 1.75 20 5.56-.49zM134 260l2.23.277c3.16.38 4.887 3.81 4.57 7.33-.34 3.73-2.963 7.27-6.31 6.86l-2.236-.27 1.74-14.2zm2.937-5.46l-7.772-.95-3.15 25.664 7.77.96c6.316.78 11.97-4.866 12.638-11.905.64-6.82-3.364-13-9.483-13.76m-21.94 3.3l-.378 7.95-3.984-1.29 4.36-6.65zm-10.634 16.17l2.976-4.51 7.007 2.28-.25 5.4 5.74.41-.1-26.678-4.5-1.46-15.76 21.52 4.88 3.03zm-13.636-6.86l9.428-17.73 5.136 2.74 2.71-5.1-15.202-8.09-2.71 5.1 5.135 2.73-9.427 17.73 4.93 2.62zM74.5 242.31l.927 2.317c.745 1.91 1.31 3.415.402 4.62-1.02 1.342-2.68 1.225-3.73.43-1.24-.933-1.83-2.727-1.7-4.515l-5.36 1.63c-.14 3.402 1.6 5.795 3.68 7.36 3.34 2.52 8.63 2.08 11.43-1.638 2.05-2.717 2.03-5.857.82-8.823l-.93-2.32c-.66-1.58-1.31-3.1-.43-4.27.88-1.17 2.19-.72 3.31.12 1.02.77 1.39 1.7 1.52 3.14l4.94-1.4c-.16-2.82-1.22-4.7-3.45-6.38-2.79-2.1-8.06-2.19-10.66 1.25-2.29 3.03-1.79 6.04-.8 8.46m-26.97-9.95l3.34 3.98 14.95-7.39-12.03 12.22 4.48 3.53L75 224.88l-3.34-3.98-16.07 8.07 10.734-14.42-3.34-3.98L40.58 223.6l2.697 5.027 14.118-9.72-9.87 13.444zm-2.71-30.67l5.1-2.71.42.78c1.22 2.29.76 3.55-.91 4.44-1.68.89-3.39-.22-4.19-1.73l-.42-.79zm-.8 7.38c2.51 1.52 5.56 1.48 8.08.14 4.6-2.45 5.55-8.01 3.35-12.15l-3.04-5.72-22.83 12.14 2.62 4.93 7.53-4.01.4.75-5.2 10.23 4.71 3.08 4.37-9.4zm-3.14-27.26l-6.73 4.24-1.23-4.01 7.94-.24zm-19.34.56l5.4-.16 2.15 7.04-4.57 2.89 2.95 4.94 21.8-15.38-1.39-4.53-26.66-.57.31 5.74zm17.02-25.7l.2 2.24c.27 3.16-2.72 5.57-6.23 5.99-3.73.44-7.73-1.39-8.03-4.75l-.2-2.24 14.25-1.25zm5.95 1.74l-.68-7.81-25.76 2.25.68 7.8c.55 6.34 7.25 10.7 14.27 9.89 6.81-.79 12.02-5.99 11.48-12.14" id="path5028" fill="#004f9f" fill-rule="evenodd"/>
  <path d="M241.86 99.773l3.286 5.262 21.923-13.7-3.29-5.262-12.43 7.764 7.72-15.29-3.29-5.264-21.92 13.7 3.28 5.263 12.42-7.763-7.72 15.29zm5.95-35.57l-4.292-4.602-18.904 17.63 4.29 4.6 18.906-17.62zm-31.43-1.892l2.955-3.92 6.022 4.54 3.475-4.61-6.022-4.54 2.177-2.89 7.053 5.32 3.477-4.61-12.01-9.05-15.557 20.64 12.352 9.31 3.476-4.61-7.398-5.57zm-17.958-20.52l2.44-5.23.898.42c2.616 1.22 3.095 2.54 2.295 4.26-.802 1.72-3.016 1.78-4.734.98l-.89-.41zm4.405 6.67c3.175-.18 5.728-1.99 6.93-4.56 2.202-4.72-.833-9.94-5.557-12.14l-6.52-3.04-10.924 23.43 5.62 2.63 3.607-7.73.86.4 2.67 11.61 6.105-.15-2.79-10.43zm-28.333-5.57l1.187-4.76 7.32 1.82 1.4-5.6-7.31-1.82.88-3.51 8.57 2.14 1.4-5.6-14.59-3.63L167.08 47l15.01 3.744 1.4-5.602-8.99-2.24zM158.65 19.33l-6.435 18.07-5.8-18.288-6.23 1.35 9.04 25.41 5.685.1 9.918-25.077-6.178-1.573zm-26.255 27.82l-3.835-19.71 6.35-1.234-1.1-5.667-18.78 3.65 1.1 5.66 6.348-1.24 3.834 19.71 6.09-1.18zm-30.62-5.614l-2.162-5.35.918-.37c2.68-1.083 3.97-.536 4.68 1.222.71 1.76-.75 3.42-2.51 4.13l-.92.37zm7.878 1.327c2.03-2.447 2.452-5.545 1.387-8.18-1.954-4.835-7.838-6.175-12.672-4.222l-6.67 2.7 9.683 23.97 5.76-2.32-3.19-7.91.88-.35 10.31 5.97 4.06-4.56-9.53-5.07zM76.626 58.04c-2.533-3.486-3.612-7.39-.58-9.593 3.034-2.204 6.413.028 8.945 3.515 2.54 3.49 3.62 7.39.58 9.598-3.03 2.203-6.41-.03-8.94-3.515M72.71 43.85c-5.647 4.102-5.27 12.243-1.168 17.89 4.102 5.647 11.73 8.52 17.376 4.42 5.648-4.105 5.27-12.246 1.168-17.893-4.102-5.647-11.73-8.52-17.376-4.418M54.68 69.3l.663-.74c1.47-1.63 3.988-2.496 5.62-1.026 1.634 1.47 1.038 4.07-.432 5.7l-.66.737-5.18-4.67zm-3.628-4.6l-4.814 5.345L65.452 87.34l4.15-4.61-5.443-4.9.66-.736c3.72-4.13 4.48-10.51.35-14.23-4.13-3.72-10.4-2.29-14.12 1.84m-4.61 30.44l2.32-1.366c1.92-1.106 3.44-1.955 4.73-1.18 1.44.867 1.42 2.66.66 3.918-.89 1.48-2.7 2.4-4.55 2.55l1.99 5.47c3.51-.405 5.87-2.657 7.35-5.132 2.39-3.99 1.63-9.578-2.36-11.97-2.92-1.757-6.15-1.23-9.13.545l-2.33 1.37c-1.59.96-3.11 1.9-4.36 1.15-1.26-.76-.88-2.23-.08-3.56.73-1.22 1.66-1.77 3.14-2.14l-1.73-5.07c-2.89.62-4.76 2.06-6.36 4.72-2 3.32-1.78 8.98 1.91 11.2 3.25 1.95 6.32.93 8.75-.52" id="path5076" fill="#004f9f" fill-rule="evenodd"/>
  <path d="M274.332 123.647c-.592-2.782-3.35-4.574-6.132-3.983-2.78.592-4.573 3.35-3.983 6.133.592 2.78 3.352 4.574 6.132 3.982 2.78-.6 4.57-3.35 3.98-6.14m-248.95-1.95c-.69 2.76 1.01 5.58 3.76 6.27 2.76.69 5.58-1.01 6.26-3.77.69-2.76-1.01-5.58-3.77-6.27-2.76-.69-5.58 1.01-6.27 3.76" id="path5080" fill="#004f9f" fill-rule="evenodd"/>
  <path d="M53.392 149.825c0-53.707 43.537-97.244 97.243-97.244 53.708 0 97.245 43.54 97.245 97.25s-43.537 97.25-97.245 97.25c-53.706 0-97.243-43.53-97.243-97.24m48.32 64.34c1.327.72 2.305-.53 3.803-.72 5.253-.66 6.146 1.98 10.08 1.45 4.47-.6 9.25-1.32 13.63-4.89 1.967-1.6 2.962-2.7 4.374-4.8 1.86-2.78 2.49-5.12 3.3-7.93.78-2.71.48-8.99 2.71-8.93 2.48.07 2.04 5.82 1.69 9.6-.26 2.79-2.11 8.45-3.74 11.95-1.17 2.5-4.63 14.72 1.54 21.73 2.5 2.84 9.2 10.75 11.55 10.75 1.93 0 5.49-3.98 7.6-6.4 2.68-3.06 4.6-4.59 6.1-8.34.94-2.35 1.53-3.86 1.44-6.33-.26-7.66-2.02-11.63-4.03-15.78-1.1-2.26-1.47-4.33-1.82-7.22-.48-3.92-.97-9.9 1.63-9.9 2.54 0 1.75 5.07 3.04 9.9 1.31 4.93 3.28 9.14 8.97 12.8 3.56 2.3 8.57 3.44 12.55 3.74 2.73.21 3.95-1.33 6.58-1.44 2.44-.11 4.5.05 6.21.73 1.99.79 1.45-6.04-1.09-9.6-5.92-8.27-15.3-2.55-20.71-8.51-1.57-1.72-3.2-4.67-2.18-5.97.903-1.15 3.01 2.11 5.85-1.92.73-1.03.58-5.49-.9-8.46-2.116-4.22-4.98-3.6-4.77-5.13.09-.66 2.353-6.28 5.855-11.65 2.68-3.53 6.096-7 9.053-8.81 3.823-2.34 3.59-2.72 8.27-3.38 3.02-.42 7.3 0 10.08 3.02 2.84 3.08 3.2 5.5 2.6 10.81-.468 4.06-2.72 7.29-1.938 11.17.43 2.15 2.17 7.13 5.73 6.82 2.16-.18-.33-2.83 3.32-7.72 2.47-3.32 12.13-5.13 16.01-11.23 1.82-2.86 4.03-6.335 3.73-12.915-.368-7.73-3.33-12.846-9.36-17.93-6.16-5.19-16.85-8.22-28.557-5.13-4.35 1.15-6.537 2.25-10.34 4.433-7.638 4.376-11.63 7.58-16.46 15.43-3.3 5.36-5.01 9.48-6.34 14.188-1.89 6.71-1.81 15.05-5.49 14.67-2.96-.3.06-12.19.66-18.95.54-6.11 2.98-14.24 6.52-21.25 3.62-7.19 7.18-12.38 9.41-21.19 1.134-4.49 2.41-7.96 1.69-13.46-.606-4.59-1.97-9.46-4.92-14.76-2.87-5.17-5.71-7.34-9.757-11.14-5.21-4.91-7.94-9.39-10.8-13.28-4.83-6.58-3.38-6.52-7.906-.13-2.98 4.21-4.35 5.85-7.1 9.32-3.05 3.844-6.8 6.435-9.32 9.39-2.117 2.475-5.138 6.474-6.94 11.33-1.98 5.336-2.3 10.64-2.06 14.444.23 3.633 2.39 11.73 5.25 18.214.904 2.056 6.03 9.91 8.644 16.8 2.85 7.526 3.73 11.65 4.88 20.045.71 5.18 2.632 14.29.06 14.67-4.106.6-2.477-5.62-5.495-14.49-1.94-5.71-3.01-9.12-6.34-14.19-5.83-8.895-10.02-12.435-20.76-17.69-2.68-1.31-9.275-4.624-21.246-3.016-4.046.54-11.41 3.44-15.82 8.09-3.18 3.35-4.85 6.2-5.916 10.924-1.818 8.02-.52 14.72 5.31 20.4 4.83 4.71 11.47 5.25 14.12 9.173 3.06 4.52.544 8.24 3.98 7 1.217-.433 2.31-1.61 3.26-3.08 1.616-2.48 1.41-4.522 1.27-7.48-.14-2.95-1.756-4.36-1.97-7.31-.28-3.77-.55-6.48 1.65-9.56 2.954-4.12 7.314-4.91 12.33-4.14 3.27.51 4.873 1.89 7.61 3.75 3.22 2.19 4.14 3.218 7.22 6.89 3.53 4.2 4.74 8.38 6.16 11.14 2.243 4.37-1.29 1.69-3.53 6.16-1.156 2.3-2.11 4.27-1.686 7 1.24 7.947 5.89 2.41 6.5 4.47.1.32-.01 2.73-1.85 4.99-4.975 6.11-11.53 2.19-18.14 6.21-5.03 3.07-6.21 11.758-4.64 12.6" id="path4960" fill="#004f9f"/>
</svg>