<svg xmlns="http://www.w3.org/2000/svg" version="1" viewBox="0 0 466.131 466.131">
  <g id="g5082" fill-rule="evenodd">
    <path d="M461.13 233.066a228.066 228.066 0 1 1-456.13 0 228.066 228.066 0 1 1 456.13 0z" id="path4163" fill="#fff" stroke="#c00" stroke-width="9.999"/>
    <path d="M430.31 233.14a197.127 197.127 0 1 1-394.255 0 197.127 197.127 0 1 1 394.254 0z" id="path2220" fill="none" stroke="#c00" stroke-width="31.68"/>
    <path d="M210.242 104.973h41.92V97.52l9.783-14.905-18.632 8.15-12.11-12.808S220.255 90.3 218.393 89.37c-1.864-.933-17.934-7.22-17.934-7.22l9.78 15.137v7.686z" id="path5152" fill="#c00"/>
    <path d="M324.227 122.947c-4.577 6-5.82 20.31-12.03 24.125-6.245 3.836-13.998 4.973-17.626 14.72l-.09 9.312c.19 1.09-.38 2-1.44 2.78l-8.34.095c-10.38 10.8-32.4 36.96-32.55-3.94l.43-9.91 8.28-.25c6.95-1.46 8.42-14.54 5.37-12.38-11.82 7.63-13.25-2.81-11.52-8.86 1.68-5.89 9.71-11.86 10.69-12.96 1.84-3.92 1.03-11.07-.15-9.87-2.29 9.66-24.34 7.26-31.56-.28-26.95-1.05-39.95 6.78-49.94 11.87-1.38.92.43 6.93 1.32 6.58 12.37-5.72 20.73-10.58 20.72 4.31-7.08.59-28.19 1-28.09-5.52.03-1.56-1.33-1.36-1.56-1.22-15.03 13.77 18.18 16.13 31.6 9.93-.06 2.23 1.29 4.85-1.55 6.33-5.11.62-14.26-1.78-15.35 0-3.44 7.46 11.19 8.97 21.91 6.53 2.14 3.26 4.83 6.42 3.21 10.44l-10.56.68 6.99 6.08 4.86-3.46c-.15 40.9-22.25 19.68-35.56 5.94l-8.34-.1c-1.05-.78-1.623-1.696-1.44-2.786l-.09-9.31c-3.63-9.743-11.41-10.91-17.655-14.75-6.21-3.81-7.42-18.12-12-24.12-18.3 3.094-12.29 38.255-2.127 48.407 2.21 1.216 5.16 10.01.656 7.5-9.326-4.872-39.896-28.77-39.375-29.22-5.99 6.73-4.69 18.95 2.93 25.75 6.644 5.935 15.424 13.04 24.06 21.22.72.74.89 1.61-.126 2.41l-40.875.34c-5.68-1.04-8.39-1.27-12.69-.653.02 18.55 26.27 20.92 55 21.75 1.02.74 1.53 1.577 1 2.627-22.69 6.25-46.24 11.505-67.53 19.437-.24 22.75 49.97 13.99 77.22 2.344 3.5-1.595 11.86-4.54 5.69 1.343L84.14 289c2.07 9.58 18.648 19.407 70.063-18.03 3.23-2.353 6.557-4.04 9.374-5.97 3.9-2.87 6.13-.213 4.16 1.938-3.9 8.264-10.71 14.392-16 21l5.19 4.032c-10.98 11.698-15.52 18.187-17.34 20.374-1.26 1.513-2.16 1.69-3.374.936-2.62-2.8-5.403-5.51-9.28-7.593-.554-.19-1.254-.08-3.03.842-2.537 1.31-8.24.16-10.846.5-8.6 2.71-5.75 4.57-5.624 7.87 2.38-1.19 2.023-3.69 8.53-2.91 2.678 3.83 6.606 5.98 11.03 7.4 1.68.29 2.58 1.56 1.346 2.34-4.07 1.45-11.47 3.43-11.22 5.34-.23 1.1.12 2.81-.97 3.22-8.91 2.89-5.3 8.38-3.16 12.06.7-2.85 1.36-5.68 4.41-6.6l2.82.84c1.81.96 8.04-2.88 11.22-6 .55-.56 1.11-.39 1.66.15-3.97 7.18-4.25 11.82-2.82 15.28.63 1.54 2.24-.58 2.4 1.09.34 3.63 5.56 8.64 8.31 10.75-1.06-3.96-3.52-7.91-2.41-11.88 3.62.24 7.85-6.32 3.15-12.31-1.3-.75 1.044-4.88 1.654-4.25 2.44 3.22 4.48 8.327 7.315 9.66 1.54.58 3.09 1.234 4.63 0 2.77 1.27 3.96 5.24 5.75 8.19.9-2.344 2.194-4.46 1.626-7.685-.484-2.46-2-3.55-4.03-4 .975-1.32 3.06-3.176 1.936-4.125-3.3-4.04-7.814-8.11-12.156-11.59-.76-.68-.49-1.48.066-2.22l16.31-19.78 4.69 3.75c6.11-8.23 11.59-17 19.75-23.47 3.44-2.7 15.7-2.51 11.78 9.15-8.41 12.83-18.398 24.28-28.97 35.25-7.875 9.18-4.24 18.21-2.627 25.38.19 1.06 2.29-1.485 2.31-3.03.11-1.9.2-4.48 2.62-6.19 1.04 7.35 6.23 14.56 9.875 19.435-.35-7.136-1.18-12.707-.03-19.843.21-.763 1.13-.65 1.69.09.79 4.08 4.1 8.43 7.28 11.44 2.37-9.15.83-19 7.066-27.87 9.34-13.08 17.4-7.26 15.9 6.03l-6.53 17.31c-10.32 12.48-3.104 27.383 3.624 33.594.7.746 2.06-2.145 1.72-4.25-.76-6.14.9-9.345 4.22-13.59.39-.53 1.58-.854 2.53.094 2.45 6.365 6.484 11.78 10.563 16.906.45.6 1.25.64 1.75-.09 4.073-5.12 8.084-10.52 10.53-16.878.95-.95 2.172-.66 2.562-.128 3.313 4.244 4.98 7.45 4.22 13.592-.345 2.1 1.02 4.993 1.715 4.25 6.73-6.21 13.948-21.115 3.63-33.59l-6.56-17.28c-1.5-13.296 6.6-19.11 15.94-6.036 6.236 8.878 4.69 18.728 7.065 27.878 3.18-3.01 6.49-7.36 7.28-11.44.56-.75 1.45-.89 1.66-.13 1.15 7.14.35 12.71 0 19.846 3.65-4.87 8.84-12.08 9.88-19.436 2.42 1.71 2.51 4.29 2.63 6.19.02 1.55 2.12 4.1 2.31 3.03 1.61-7.17 5.25-16.16-2.626-25.34-10.57-10.97-20.59-22.45-29-35.28-3.92-11.663 8.34-11.853 11.78-9.154 8.16 6.477 13.67 15.275 19.78 23.5l4.69-3.78 16.31 19.815c.56.73.825 1.5.06 2.18-4.34 3.487-8.85 7.584-12.15 11.625-1.13.95.96 2.77 1.93 4.092-2.03.45-3.55 1.57-4.03 4.03-.57 3.23.69 5.34 1.59 7.69 1.8-2.95 3.01-6.95 5.78-8.22 1.54 1.23 3.06.61 4.6.03 2.84-1.33 4.904-6.44 7.344-9.658.61-.63 2.95 3.494 1.654 4.25-4.7 5.98-.47 12.51 3.155 12.28 1.11 3.96-1.35 7.913-2.405 11.873 2.75-2.11 7.97-7.12 8.31-10.75.16-1.67 1.77.48 2.405-1.06 1.43-3.46 1.156-8.1-2.81-15.28.55-.54 1.107-.71 1.656-.16 3.18 3.13 9.41 6.97 11.22 6l2.78-.87c3.05.91 3.745 3.78 4.44 6.62 2.14-3.672 5.727-9.16-3.19-12.06-1.094-.41-.71-2.15-.935-3.25.25-1.91-7.15-3.89-11.22-5.34-1.24-.784-.34-2.054 1.34-2.344 4.43-1.422 8.354-3.54 11.03-7.37 6.51-.78 6.12 1.69 8.5 2.88.13-3.3 3.01-5.16-5.59-7.877-2.61-.34-8.31.85-10.84-.47-1.78-.928-2.48-1.04-3.03-.848-3.88 2.08-6.66 4.79-9.28 7.59-1.22.75-2.118.542-3.38-.97-1.828-2.19-6.396-8.647-17.378-20.346l5.22-4.06c-5.28-6.61-12.13-12.71-16.03-20.97-1.97-2.15.296-4.84 4.19-1.97 2.82 1.93 6.15 3.644 9.38 6 51.413 37.434 67.99 27.61 70.06 18.03l-61.82-42.73c-6.175-5.886 2.183-2.94 5.686-1.346 27.25 11.647 77.46 20.41 77.22-2.344-21.298-7.934-44.81-13.186-67.5-19.44-.53-1.05-.056-1.915.97-2.655 28.72-.834 54.98-3.17 55-21.72-4.307-.61-6.98-.416-12.66.626l-40.907-.34c-1.02-.8-.82-1.64-.1-2.376 8.64-8.182 17.42-15.286 24.07-21.22 7.62-6.802 8.92-19.05 2.93-25.78.52.45-30.05 24.345-39.38 29.22-4.51 2.51-1.56-6.254.65-7.467 10.16-10.154 16.17-45.315-2.13-48.408z" id="path5154" fill="#c00"/>
    <path d="M217.195 126.95c-1.11.728.88 5.817 2.074 7.88l11.4-9.125c-4.1-.83-9.14-.683-13.48 1.245z" id="path2161" fill="#fff"/>
    <path d="M211.802 208.872h42.724c1.307 24.196-7.095 54.82-20.947 72.588-14.17-16.937-22.77-48.392-21.78-72.588z" id="path2163" fill="#fff"/>
    <path d="M222.794 218.62v36.294h21.984v-5.393h-13.54v-10.57h12.296v-5.8h-12.236v-9.54h12.175v-5.1l-20.68.12z" id="path2165" fill="#c00"/>
    <path d="M201.61 225.254l.07 6.675c-15.69-3.27-31.186-16.98-38.188-33.44-2.326 2.92-10.483 7.74-14.665 6.16-.444-3.05 1.162-5.89 12.905-9.1-6.645-5.9-8.83-13.61-7.04-19.36 4.69 2.03 10.455 8.7 10.092 17.9 4.547-4.07 9.152-5.79 16.6-5.58-2.632 5.18-8.406 7.62-14.666 9.08 7.566 13.08 17.53 24.37 34.892 27.65z" id="path2167" fill="#fff"/>
    <path d="M265.022 225.254l-.07 6.675c15.69-3.27 31.187-16.98 38.19-33.44 2.324 2.92 10.48 7.74 14.664 6.16.443-3.05-1.163-5.89-12.906-9.1 6.645-5.9 8.832-13.61 7.04-19.36-4.688 2.03-10.455 8.7-10.092 17.9-4.546-4.07-9.252-5.79-16.6-5.58 2.632 5.18 8.407 7.62 14.666 9.08-7.566 13.08-17.53 24.37-34.892 27.65z" id="path2169" fill="#fff"/>
  </g>
</svg>