<svg xmlns="http://www.w3.org/2000/svg" viewBox="0 0 591 822">
  <g id="#000000ff" fill="#fff">
    <path d="M287.32 4.22c27.67-1.16 55.54 3.21 81.48 12.93 43.11 15.95 80.29 45.28 109.75 80.19 28.35 33.46 50.07 72.19 66.33 112.82 32.13 81.18 42.49 170.17 34.49 256.86-4.41 46.56-14.49 92.66-30.82 136.51-13.37 35.65-30.86 69.89-53.16 100.81-20.77 28.82-45.85 54.77-75.21 74.91-33.57 23.15-73.31 38.03-114.24 39.67-41.91 2.19-83.97-9.57-119.77-31.15-32.47-19.34-60.18-45.97-83.02-75.94-27.41-36.16-48.07-77.15-62.88-119.96C11.56 508.1 4.65 417.49 16.7 329.95c10.64-74.02 35.71-146.88 78.93-208.34 20.42-28.75 44.91-54.86 73.79-75.24 34.34-24.62 75.5-40.35 117.9-42.15z" id="path5"/>
  </g>
  <g id="g3010" fill="#1a171b">
    <g id="#000000ff-1">
      <path id="path2991" d="M287.395 4.232c35.55-1.58 71.31 6.41 103.1 22.3 44.14 21.93 80.49 57.23 108.48 97.41 22.63 32.56 40.15 68.52 53.24 105.91 16.24 46.76 25.56 95.82 28.63 145.2 5.29 88.16-8.31 178.24-44.9 258.96-16.12 35.22-36.64 68.6-62.36 97.64-27.38 30.92-60.97 57.01-99.51 72.42-38.99 15.8-82.86 19.44-123.84 9.82-36.39-8.32-69.99-26.68-98.44-50.62-27.7-23.24-50.87-51.57-69.76-82.32-22.43-36.41-39.04-76.25-50.59-117.38-14.75-52.45-21.16-107.1-20.33-161.54 1.41-83.6 20.16-167.81 60.33-241.53 17.06-31.24 38.2-60.36 63.56-85.38 19.46-18.8 41.27-35.36 65.48-47.56 26.9-13.75 56.69-22 86.91-23.33m-4.3 20.93c-37.9 2.68-74.21 17.79-104.64 40.21-30.52 22.29-55.59 51.37-75.89 83.1-23.59 37.14-40.69 78.18-52.26 120.57-17.38 63.94-22.27 131.06-16.05 196.96 4.3 44.13 13.84 87.81 29.25 129.41 14.42 38.83 34.06 75.88 59.71 108.49 23.91 30.2 53.28 56.76 87.98 73.97 36.54 18.7 79.3 25.33 119.67 17.44 35.82-6.77 69-24.34 96.76-47.69 31.08-26.09 56.02-58.92 75.54-94.36 21.63-39.47 36.72-82.36 46.15-126.32 10.15-47.23 13.65-95.8 11.3-144.02-2.31-45.66-10.14-91.12-24.1-134.69-13.4-41.82-32.48-82.02-58.25-117.67-24-33.02-53.99-62.37-90.09-81.89-31.87-17.54-68.72-26.27-105.08-23.51z"/>
      <path id="path2993" d="M294.325 34.372c28.2-.4 56.4 6.17 81.74 18.49 29.15 14.03 54.66 34.9 75.92 59.14 29.09 33.09 50.8 72.15 66.56 113.16 16.19 42.27 26.01 86.84 30.42 131.85 4.74 49.6 3 99.83-5.56 148.93-7.34 41.63-19.57 82.5-37.63 120.77-16.22 34.24-37.06 66.57-63.57 93.76-26.5 27.33-59.18 49.46-95.99 60.04-25.29 7.36-52.23 9.02-78.2 4.61-34.41-5.7-66.55-21.83-93.44-43.79-31.16-25.29-55.94-57.72-75.2-92.76-18.92-34.42-32.59-71.6-41.91-109.71-13.13-54.13-17.43-110.29-13.74-165.83 2.92-43.14 10.83-86 24.33-127.1 11.59-35.19 27.38-69.1 47.91-99.99 14.94-22.15 32.27-42.86 52.58-60.29 23.96-20.83 52.22-37.14 83.02-45.28 13.94-3.74 28.34-5.71 42.76-6m-60.2 18.55c-29.58 11.59-55.86 30.62-77.81 53.42-25.94 26.59-46.27 58.26-62.15 91.73-17.97 38.02-30.09 78.66-37.32 120.04-11.01 64.06-10.53 130.1 1.49 193.98 8.18 42.67 21.64 84.47 41.45 123.2 17.89 34.66 40.73 67.28 70.07 93.22 80.97-214.9 161.95-429.81 243.03-644.67-25.14-20.13-54.97-34.88-86.82-40.43-30.75-5.55-62.92-1.92-91.94 9.51m93.5 385.68c-17 10.17-31.22 24.83-41.24 41.89-18.99 32.1-21.39 73.26-6.4 107.39 8.75 20.33 23.37 38.06 41.57 50.66 31.8 22.38 74.81 27.37 110.98 13.17 33.48-12.7 60.45-41.37 70.86-75.66-6-.01-11.99-.1-17.98.03-11.9 32.93-41.98 58.39-76.39 64.77-21.89 4.33-45.19 1.19-65.11-8.86-17.56-8.66-32.45-22.56-42.44-39.38-17.88-29.58-19.04-68.37-2.9-98.95 7.8-15.07 19.41-28.14 33.45-37.66 18.15-12.43 40.41-18.71 62.38-17.59 17.75.85 35.25 6.44 50.18 16.09 14.8 9.48 26.91 22.9 35.31 38.31 6.31-.1 12.63.03 18.95-.08-10.8-24.81-30.37-45.62-54.39-58.06-36.13-18.99-82.1-17.61-116.83 3.93m23.28 36.31c-7.39 10.87-8.94 25.71-3.39 37.69 4.75 9.98 14.28 16.49 23.97 21.12-.04 24.24.08 48.48-.06 72.73-12.85-5.06-21.08-17.36-25.01-30.13-5.12 1.77-10.31 3.32-15.46 4.98 1.69 6.61 4.39 13 8.28 18.63 7.42 11.18 19.31 19 32.27 22.21-.04 3.04-.02 6.1.01 9.15 4.74.07 9.48-.15 14.22-.33.01-2.38.02-4.77 0-7.14 15.85.33 32.18-6.24 42.02-18.92 8.71-10.63 11.63-24.98 10.2-38.42 2.44.04 4.89.05 7.34.03-.09-4.99-.08-9.97-.01-14.96-4.07-.05-8.12-.05-12.18-.01-1.98-3.45-4.42-6.64-7.35-9.33-11.18-10.29-26.24-14.3-40.05-19.72.07-3.85.06-7.71.01-11.55 20.41.16 40.83.05 61.24.04.08-4.83.03-9.66.07-14.49-25.17.05-50.35.04-75.52 0-.04 6.42 0 12.85-.04 19.28-2.26-1.82-4.66-3.52-6.51-5.78-5.28-6.19-6.31-15.53-2.82-22.84 5.61-11.89 20.2-18.57 32.87-15.02 9.06 2.13 16.54 8.87 20.51 17.17 4.65-2.36 9.29-4.75 13.91-7.17-5.46-10.66-15.14-18.95-26.38-23.01-18.24-6.92-41.06-.5-52.14 15.79z"/>
      <path id="path2995" d="M171.795 142.782c28.48 1.79 57.3 1.33 85.42-3.97 17.74-2.86 37.62.3 51.11 12.95 12.15 12.07 20.13 28.92 19.44 46.26.29 10.64-4.67 20.29-7.55 30.26-2.12 7.37-1.97 15.14-1.98 22.74.29 6.34.83 13.17-2.22 18.99-.63 1.41-2.26 1.57-3.54 2.05-2.84-2.33-4.95-5.55-8.41-7.06-2.55 2.56-4.92 5.43-5.98 8.94-2.1 6.46-3.96 13.23-3.21 20.09.58 8.47 3.38 17.01 1.44 25.48-.39 2.11-1.79 4.65-4.35 4-5.28-2.41-4.85-10-10.08-12.49-3.48.72-4.88 4.56-6.22 7.43-1.92 6.68-1.7 13.74-2.09 20.62-.71 10.15 3.08 20.2 1.12 30.31-3.72.49-7.42-3.66-10.85-1.29-6.12 9.48-8.73 20.64-11.43 31.46-6.68 24.15-8.91 49.3-9.98 74.25-1.81 1.38-4.35 2.99-6.54 1.37-7.97-5.67-10.38-15.95-11.17-25.16-1.12-14.65.76-29.31.74-43.96-.43-4.63.16-9.7-2.5-13.78-3.83.49-5.96 4.06-7.78 7.05-5.42 9.97-9.44 20.61-13.7 31.1-9.24 23.04-17.95 46.3-26.32 69.67-1.09 3.21-1.68 6.99-5 8.74-6.19-1.92-6.3-9.19-6.9-14.48-3.63-28.71 6.25-56.6 14.53-83.61 1.37-5.23 4.28-10.65 2.39-16.11-1.44-.83-3.21-.27-4.79-.36-25.19 22.1-45.2 49.16-66.75 74.62-2.47 1.8-5.69-1.33-5.99-3.89-1.01-6.92 1.87-13.51 4.11-19.9 9.63-24.83 25.33-46.72 41.99-67.28 4.17-4.96 8.27-9.99 11.93-15.35 1.55-2.15 1.75-5.07.38-7.37-2.84-2.06-6.74-1.87-9.92-.71-17.07 6.44-32.93 15.59-49.47 23.23-.85-1.43-2.21-2.91-1.51-4.72 1.62-9.31 8.4-16.45 14.3-23.39 15.73-14.88 35.43-24.35 54.09-34.92.21.25.62.73.83.98-.1-.28-.29-.85-.39-1.13 9.74-5.73 20.21-10.06 30.21-15.28 14.04-7.01 27.7-14.76 40.99-23.09 4.3-2.39 7.22-7.15 7.59-12.02.38-4.03-3.34-7.04-6.91-7.91-5.54-1.25-11.26-.64-16.89-1.07-17.8.22-37.12.54-52.7-9.44-3.78-2.02-5.29-6.44-4.8-10.51 24.13 1.08 48.28 0 72.39-.87 3.55-.09 7.48-.73 10.1-3.33.08-3.56-4.27-4.62-6.68-6.29-14.42-5.75-29.98-7.68-45.2-10.17-1.59.14-1.93-2.17-.79-2.93 3.01-3.14 7.73-2.35 11.64-2.9 10.43-1.68 20.56 3.23 30.98 2.25 4.46-1.48 4.33-7.32 1.64-10.36-10.55-7.74-24.03-9.05-36.61-10.67-10.02-.03-19.93 2.17-29.97 1.92-8.48-.17-17.2-1.52-25.5.8-6.01 2.71-8.32 11.17-5.06 16.75-.88.98-1.97 1.72-3.36 1.48-5.57.13-11.68-1.43-15.51-5.69-4.05-9.52-3.54-20.36-1.74-30.34 1.63-6.35 9.12-6.7 14.11-8.96 2.68-.81 3.91-3.4 5.64-5.34 4.27-3.45 10.93-.84 14.93-4.86 4.38-4.66 8.43-9.93 14.3-12.83m70.36 19.41c-4.59 1.47-8.86 5.6-8.26 10.78.2 5.6 6.52 7.72 11.12 8.51 4.21-.44 8.88-.33 12.54-2.74 6.39-4.03 3.35-15.15-3.67-16.52-3.84-.78-7.95-1.45-11.73-.03m-91.52 4.45c-.07.52-.2 1.58-.27 2.11 2.31 1.83 5.03 3.5 8.08 2.46-.21-2.18-.95-4.53-2.98-5.67-1.61-1.39-3.31.52-4.83 1.1m-19.46 12.43c-1.09 5.99-.14 12.11.85 18.06.28 1.26.5 3.75 2.33 2.39 2.18-5.07 4.55-10.84 9.84-13.38 7.76-3.7 16.62-2.38 24.88-3.75-1.2-1.52-2.4-3.05-3.58-4.58-1.7.3-3.18 1.18-4.56 2.19-6.67.94-13.55-2-17.05-7.83-4.53 1.42-10.39 2.14-12.71 6.9m164.98 23.78c.14 7.75 1.82 15.47.75 23.22-.5 2.67.08 5.34 1.01 7.85 8.73-7.28 8.13-19.89 7.52-30.16-2.53-2.48-6.27-2.45-9.28-.91m-19.92 38.9c4.37 9.61 4.27 20.41 7.14 30.44 1.77-2.77 3.07-5.85 3.4-9.15.68-8.18.29-16.62-2.77-24.33-2.91-.19-6.04.47-7.77 3.04m-19.99 33.05c4.27 9.95 5.21 20.96 9.61 30.85.97-3.19 2.36-6.3 2.55-9.67.38-7.62.38-15.84-3.81-22.53-2.65-1.8-6.11-.55-8.35 1.35m-85.13 49.43c-13.31 7.15-26.35 15.26-37.11 25.98 25.94-12.16 52.44-23.1 79.44-32.69.76-3.56.16-7.24-1.8-10.32-14.1 4.11-27.48 10.35-40.53 17.03m69.35 8.94c-4.27 17.62-6.79 35.73-6.41 53.88.39 14.28 1.68 28.54 3.56 42.7.57-7.49 1.2-14.99 2.07-22.45 2.85-24.2 5.76-48.47 11.16-72.26-3.23-1.56-6.81-2.33-10.38-1.87m-41.19.91c-7.55 4.99-13.56 11.92-19.66 18.52-14.67 16.69-27.72 34.79-39.13 53.85-4.92 8.46-9.74 17.06-13.23 26.23 27.11-31.22 52.86-63.63 80.95-93.99-1.63-3.16-5.26-5.98-8.93-4.61m15.98 8.43c-12.63 20.63-21.68 43.28-28.27 66.51-5.29 19.23-9.33 38.88-10.95 58.77 3.35-9.61 6.49-19.29 10.07-28.81 11.23-31.36 24.92-61.74 38.33-92.2-2.33-2.63-5.48-4.83-9.18-4.27z"/>
      <path id="path2997" d="M240.855 166.972c4.22-.42 9.45-.93 12.53 2.62 1.37 1.12 2.25 2.65 2.9 4.27-3.41.81-7 3.04-10.53 1.58-2.89-1.78-5.89-4.75-4.9-8.47z"/>
      <path id="path2999" d="M385.745 539.682c8.98 3.33 18.45 6 26.25 11.79-8.72.13-17.44-.05-26.15.1-.19-3.96-.11-7.93-.1-11.89z"/>
      <path id="path3001" d="M385.795 566.482c11.99.09 23.98.04 35.97.02 1.84 10.4-.86 21.55-7.73 29.64-6.87 8.36-17.59 12.95-28.33 13.02.14-14.23-.04-28.46.09-42.68z"/>
    </g>
  </g>
</svg>