<svg xmlns="http://www.w3.org/2000/svg" viewBox="0 0 61.615 100" shape-rendering="geometricPrecision" text-rendering="geometricPrecision" image-rendering="optimizeQuality" fill-rule="evenodd" clip-rule="evenodd">
  <g id="Ebene_x0020_1">
    <g id="_87915808">
      <path id="_87899992" fill="white" class="fil0" d="M61.615 50.25L30.79 100 0 50.25 30.79 0z"/>
      <path id="_87897784" fill="black" class="fil1" d="M59.78 50.25L30.79 96.697 1.812 50.202 30.79 3.304z"/>
      <path id="_87899032" fill="white" class="fil0" d="M54.9 50.25L30.79 88.368 6.714 50.25 30.79 11.634z"/>
      <path id="_41575512" fill="black" class="fil1" d="M53.102 50.25L30.79 84.99 8.44 50.25l22.438-35.395z"/>
      <path id="_87694552" fill="white" class="fil0" d="M36.044 26.13l4.067 6.787H21.288l4.366-6.788z"/>
      <path id="_44438744" fill="white" class="fil0" d="M36.103 35.288c2.818.646 5.637 3.053 6.458 5.872.767 3.11.65 6.928-1.875 9.1 2.056 3.112 3.112 8.103.822 11.51-1.35 1.936-3.42 3.258-5.652 3.55l-14.9.002V35.288s10.16-.058 15.15 0z"/>
      <path id="_44441504" fill="black" class="fil1" d="M35.81 36.52c2.65.47 4.932 3.113 5.754 5.638.47 2.994-.236 6.106-2.7 7.927.293 1.114 1.526 1.937 1.818 3.11 1.175 2.644 1.116 6.46-.88 8.692-1.274 1.395-2.807 1.782-4.903 1.93H22.454V36.55l13.352-.03z"/>
      <path id="_44441400" fill="white" class="fil0" d="M48.404 46.312l2.018 3.94s-1.174 1.564-2.054 2.812h-4.735c-.234-.998-.572-1.98-1.1-2.862.953-1.224 1.658-2.48 1.834-3.89 1.528.044 2.533 0 4.038 0z"/>
      <path id="_87493184" fill="white" class="fil0" d="M19.31 46.326l-.007 6.738h-6.68l-2.09-2.813 2.436-3.922z"/>
      <path id="_87493096" fill="white" class="fil0" d="M34.35 53.064c2.42.477 2.825 4.77 0 5.688h-7.157v-5.688s4.155-.02 7.156 0z"/>
      <path id="_44140288" fill="black" class="fil1" d="M33.91 54.055c1.54.404 2.017 2.9 0 3.56h-5.69v-3.56h5.69z"/>
      <path id="_87837792" fill="white" class="fil0" d="M40.514 67.01l-4.55 6.825h-10.68l-4.11-6.826z"/>
      <path id="_44440688" fill="white" class="fil0" d="M34.404 41.92c2.423.476 2.825 4.77 0 5.687h-7.156V41.92s4.156-.022 7.156 0z"/>
      <path id="_44440616" fill="black" class="fil1" d="M33.963 42.91c1.542.403 2.018 2.9 0 3.56h-5.688v-3.56h5.688z"/>
    </g>
  </g>
</svg>