<svg xmlns="http://www.w3.org/2000/svg" viewBox="0 0 26.262 24.337" id="svg2" fill-rule="evenodd">
  <g id="Ebene_x0020_1">
    <path d="M2.055.34c.004.085.045.164.13.21C5.965-.51 9.54.14 13.007.988c1.76.144 3.668-.426 5.48-.53 1.556-.003 3.13-.172 4.593.24.627.59.83 1.447 1.157 2.23.584 1.657 1.046 3.585.596 5.242.04.205.286.256.382.425 1.373 1.876 1.103 4.52.81 6.608-.117.545-.17 1.104-.368 1.628-3.035-2.02-6.955-1.99-10.412-.49-2.248.49-4.116-.86-6.295-.66-1.033.27-2.33.26-3.05 1.05l.85 3.15c.933.38 2.238.43 2.745 1.5.18.67.185 1.27.09 1.88-.1.18-.34.23-.53.22-.64-.53.142-1.57-.666-2.07-.41-.28-.84-.37-1.28-.41.16 1.04.43 2.087.77 3.05-.04.17-.2.267-.35.31-.19.025-.37-.003-.52-.135l-.91-3.48c-.74-.27-1.63-.765-2.02-1.463-.45-1.135.13-2.145.81-3.06L1.15 2.06C.76 1.975.164 1.92.04 1.42-.07 1.014.03.62.352.37c.5-.235 1.25-.454 1.7-.03z" id="path20"/>
    <path d="M5.38 14.37L4.058 9.417l-1.63-6.2-.083-.307c1.92 3.216 2.9 7.55 3.037 11.46z" id="path22" fill="#fff"/>
    <path d="M5.72 19.51c-.36-.18-.818-.426-.888-.848-.043-.416.096-.79.328-1.135l.56 1.983z" id="path24" fill="#fff"/>
    <path d="M13.08 1.875c2.737-.084 5.585-.687 8.268-.536.34.02.67.04 1.012.07 1.065 1.7 1.823 4.12 1.526 6.18-2.69-.45-5.696-.14-8.528.73-1.78.19-3.34-.65-5.067-.69-1.53.03-3.17-.03-4.67.55C4.95 5.87 4.21 3.6 2.79 1.8l-.36-.317c3.69-1.21 7.22-.29 10.66.39z" id="path26" fill="#005ca9" fill-rule="nonzero"/>
    <path d="M14.033 9.336c2.39.183 4.963-1.003 7.378-.95 1.16.15 2.62-.083 3.31 1.154.86 1.926.53 3.946.3 5.822-2.96-1.393-6.54-1.318-9.71.008-2.44.562-4.47-1-6.89-.54-.73.09-1.44.353-2.13.563.25-1.98-.16-4.08-.51-6.18 2.847-.876 5.666-.602 8.286.123z" id="path28" fill="#fff" fill-rule="nonzero"/>
    <path d="M17.775 10.763c.116 1.112.607 2.1.71 3.214-.055.16-.273.128-.39.1-.45-.136-.835.512-1.24.093-.308-.427-.456-1.058-.278-1.554.202-.438.91-.575.714-1.135-.12-.06-.29-.14-.42-.02-.18.14.01.36-.14.5-.11.07-.35.12-.39-.03-.04-.49-.05-1.1.45-1.34.37-.04.74-.11 1 .2zM24.17 9.37c.088.395.45.91.132 1.26-.49.106-.24-.727-.77-.562-.455.8-.11 2.002.32 2.74.07.1.193.15.28.22.2 0 .232-.22.293-.355-.033-.106-.025-.195.033-.28.146-.016.3.004.388.136.133.62.24 1.36-.33 1.83-.717.15-.946-.64-1.255-1.08-.53-1.22-.84-2.8-.3-4 .17-.17.42-.35.68-.26.19.08.43.15.54.34zm-2.35-.228c.248.314.442.737.35 1.154-.07.088-.173.145-.297.144-.244-.164-.21-.756-.62-.564-.056.035-.095.093-.12.148.245 1.397 2.11 1.957 1.675 3.56-.203.365-.602.492-1.012.497-.227-.08-.417-.21-.588-.39-.104-.34-.24-.79.068-1.06.64-.23.272 1.08.916.55-.144-1.44-2.13-2.04-1.612-3.67.24-.43.828-.42 1.24-.35zm-1.757.193c.258.622.183 1.26.06 1.844.388.07.628.41.78.74.068.67-.014 1.33-.468 1.88-.45.12-.995.26-1.385.12-.297-1.34-.194-2.73-.75-3.99-.098-.19-.08-.41-.057-.62.592.09 1.35-.61 1.82.01zm-8.358 1.288c.093-.093.197-.138.33-.152.257.1.265.4.27.61-.392.43.668 1.01-.13 1.2-.303-.28.128-.94-.48-.93-.427 1.07.62 1.98.42 3.06-.156.16-.376-.01-.512-.14-.393-.87-.29-1.93-.692-2.79-.04-.31-.16-.66.1-.89.27-.1.47.42.7.04zm2.755-.885c.286.38.176.9.33 1.37.308.114.683-.134.972.072.27 1.068.425 2.247.7 3.278-.066.174-.284.142-.42.143-.564-.52-.408-1.45-.613-2.18.01-.24-.06-.48-.22-.64-.12-.05-.19.1-.26.2.06.92.64 1.95.33 2.8-.1.03-.19.08-.31.1l-.18-.11-.9-4.73c.03-.14.03-.33.19-.4.134-.02.276 0 .35.12zm-4.36.45c.573.51.647 1.468.535 2.175-.138.25-.63.035-.67.392.055.29.103.603.386.71.32-.16-.09-1.054.53-.638.19.388.11.79.03 1.154-.19.17-.47.25-.74.24-.54-.12-.5-.73-.69-1.15-.17-.86-.24-1.72-.23-2.56.05-.1.1-.23.19-.3.23-.05.47-.1.69-.02zm2.9-.59c.21.31.24.726.364 1.1.183.302.7.264.59.72.014.272-.375.26-.44.498 0 .91.255 1.894.8 2.573.007.17.26.38.04.52-.227-.01-.48.09-.69-.02-.676-.85-.585-2.18-.807-3.26-.213-.13-.55-.21-.44-.54.072-.2.302-.17.375-.37.03-.43-.304-.93-.043-1.31.09-.03.2-.02.25.07zm-5.955-.063l.24 1.237c.15.07.34.145.502.014.203-.425-.113-.962-.093-1.44.145-.214.427-.107.653-.164l.088.133c.337 1.604.58 3.176.864 4.765-.1.132-.31.097-.45.15l-.25-.165c-.17-.84-.36-1.662-.55-2.486-.14-.19-.38-.04-.54 0l-.17.24.472 2.45c-.133.21-.403.1-.593.15l-.203-.41c-.24-1.49-.723-2.95-.77-4.4.21-.14.55-.33.77-.09z" id="path30" fill="#005ca9"/>
    <path d="M10.05 11.156c-.002.175.03.343-.023.516-.24-.153-.074-.447-.1-.642l.124.126z" id="path32" fill="#fff" fill-rule="nonzero"/>
    <path d="M19.427 9.907c.074.384.245.874-.095 1.177-.275-.26-.23-.74-.213-1.093.05-.11.21-.1.3-.08z" id="path34" fill="#fff" fill-rule="nonzero"/>
    <path d="M20.016 11.848c.15.394.204.857-.133 1.172-.094.03-.185.01-.27-.047-.057-.413-.308-.937.123-1.22.106-.033.194.037.28.095z" id="path36" fill="#fff" fill-rule="nonzero"/>
    <path d="M17.598 13.253l-.165.243c-.203-.022-.158-.305-.174-.452.07-.138.06-.323.21-.428.25.126.04.415.12.637z" id="path38" fill="#fff" fill-rule="nonzero"/>
  </g>
</svg>