<svg xmlns="http://www.w3.org/2000/svg" version="1" id="Ebene_1" viewBox="0 0 510.214 561.689">
  <path fill="#FFF" d="M504.568 350.58c-.39-.323-15.755-13.65-30.74-36.578-15.024-22.965-29.556-55.252-29.54-94.007.052-35.307 11.8-76.515 47.936-122.838l5.3-6.782-4.608-7.267-38.474-60.668-10.36 6.865c-.826.59-31.005 19.664-73.72 19.583-30.526-.074-67.595-9.265-107.444-42.377L255.108 0l-7.812 6.51c-39.85 33.112-76.918 42.303-107.443 42.377-42.716.08-72.895-18.99-73.72-19.583L55.77 22.44 17.3 83.107l-4.61 7.267 5.3 6.782c36.136 46.323 47.885 87.532 47.938 122.838.015 38.755-14.517 71.042-29.54 94.007C21.4 336.93 6.034 350.26 5.644 350.58L0 355.37l1.658 7.232c.145.604 3.878 16.76 14.006 38.355 10.143 21.57 26.677 48.69 52.91 70.74 17.47 14.683 39.326 27.02 65.988 33.482 46.186 11.2 73.898 21.84 90.026 29.91 16.15 8.05 20.58 13.49 20.807 13.82l9.71 12.77 9.712-12.77c.226-.34 4.656-5.78 20.807-13.83 16.128-8.07 43.84-18.71 90.026-29.91 26.662-6.47 48.52-18.8 65.988-33.49 26.233-22.05 42.768-49.17 52.91-70.74 10.128-21.6 13.86-37.75 14.006-38.36l1.658-7.23-5.644-4.79z"/>
  <path fill="#00559E" d="M498.238 358.017s-.22-.188-.68-.596c-6.912-6.13-63.104-58.9-63.038-137.42.01-37.55 12.733-81.15 50.01-128.85l1.057-1.35-.918-1.45-33.14-52.25-2.07 1.37c0 .01-.45.3-1.4.87-6.67 4.01-36.5 20.35-77.7 20.34-32.56-.02-72.23-10.11-113.7-44.64l-1.56-1.3-1.56 1.3c-41.46 34.53-81.14 44.62-113.69 44.64-41.21.01-71.03-16.32-77.7-20.33-.95-.57-1.4-.87-1.4-.87l-2.07-1.38-33.14 52.25-.92 1.45 1.05 1.36c37.28 47.71 50 91.3 50.01 128.86.07 78.52-56.13 131.3-63.04 137.43-.46.41-.68.6-.68.6l-1.13.96.33 1.44c.04.16 6.37 27.75 25.2 58.46 18.82 30.69 50.28 64.62 100.48 76.82 93.41 22.63 113.38 43.39 116.3 47.32l1.94 2.55 1.94-2.55c2.92-3.93 22.89-24.69 116.3-47.31 50.2-12.19 81.66-46.12 100.48-76.81 18.83-30.71 25.17-58.3 25.21-58.46l.33-1.44-1.13-.96z"/>
  <path fill="#FFF" d="M429.65 219.995c-.01-38.316 12.952-82.624 49.987-130.498L464.08 64.964c-17.453 20.12-333.325 384.253-358.1 414.13 9.688 4.948 20.33 9.02 32.034 11.862 84.08 20.428 109.622 39.237 117.094 46.896 7.47-7.66 33.015-26.47 117.092-46.896 42.5-10.325 71.124-36.71 89.992-63.283 18.852-26.56 27.832-53.256 30.857-63.726.39-1.378.69-2.465.89-3.237-8.71-7.884-64.22-61.02-64.3-140.715zm-314.275 150.18l24.175-28.74 5.888 4.934-8.863 10.58 29.592 24.84-6.41 7.63-29.59-24.85-8.878 10.58-5.92-4.99m53.58-43.21c-3.83-2.73-7.21-2.29-10.32 1.42-2.34 2.77-3.29 6.86-.18 9.46 3.85 3.23 7.16.15 10.46-2.27 5.91-4.27 14.14-10.94 21.25-4.96 8.8 7.37 5.41 17.62-.99 25.25-6.79 8.09-14.77 11.22-23.52 3.46l6.51-7.78c3.7 3.61 8.25 3.56 11.58-.41 2.55-3.05 5.02-7.89 1.23-11.06-4.17-3.49-8.74 1.32-12.07 3.71-5.42 3.91-13.36 8.82-19.66 3.53-8.1-6.82-5.42-17.3.67-24.6 5.78-6.87 14.01-9.08 21.14-3.13l-6.14 7.35m38.02-20.22l-5.91-4.96 12.25-14.55L231 302.1c-1.35 3.307-3.04 6.33-5.1 9.28-1.297 1.86-2.58 3.768-6.51 8.47-5.915 7.02-18.39 13-32.48 1.148-14.116-11.85-10.415-25.18-4.5-32.22 8.62-10.25 17.05-14.013 25.547-6.942l-6.8 8.112c-4.53-3.79-8.532-2.137-12.03 2.035-5.67 6.74-3.433 14.17 4.59 20.88 8.01 6.72 15.707 7.66 21.35.92 2.586-3.05 3.88-5.39 5.15-7.73l-7.44-6.287-5.833 6.944m14.61-49.95c1.273-4.12 2.01-8.47 2.214-12.717l5.787-6.92 34.03 28.615-6.19 7.372-26.64-22.386c-.345 3.995-1.147 7.91-2.39 11.727l-6.806-5.7m36.33-20.9c-4.5 3.18-8.94 3.77-13.32.08-5.6-4.7-3.61-13.83 1.02-19.35 4.59-5.44 12.38-9.64 18.81-4.25 3.92 3.31 4.6 9.08 2.06 13.23l-.05-.05.1.1c4.58-3.46 10.3-3.71 14.73.02 6.28 5.29 4.88 14.73-.15 20.75-5.14 6.16-13.56 9.67-20.5 3.84-4.47-3.76-4.76-9.61-2.6-14.29l-.11-.07m1.96-7.91c2.06-2.44 2.06-5.98-.69-8.29-2.76-2.29-6.3-1.75-8.95 1.4-2.06 2.44-2.06 6.13.7 8.45 2.76 2.34 6.28 1.6 8.94-1.55zm16.4 14.19c2.26-2.67 1.73-6.66-1.37-9.23-3.08-2.62-6.92-2.67-9.46.41-2.24 2.62-2.09 6.64 1.22 9.41 3.05 2.54 6.86 2.67 9.61-.58zm15.59-27.06c2.42 1.55 5.37 2.09 7.25-.12 4.5-5.37-2.49-11.22-6.59-14.24.02 3.38-1.07 5.57-3.43 8.42-4.73 5.62-13.38 6.13-18.77 1.6-7-5.85-7.18-15.06-1.43-21.9 7.93-9.434 16.89-6.74 25.43.41 9.18 7.68 19.74 17.855 9.77 29.76-5.29 6.31-11.268 9.31-18.517 3.56l6.28-7.476m-5.836-12.3c2.67-3.21 1.07-6.64-2.08-9.31-3.15-2.62-7.25-3.94-9.92-.76-2.97 3.53-.94 7.32 2.217 9.97 3.105 2.64 6.82 3.63 9.79.1zm29.636-16.02c2.44 1.5 5.396 2.08 7.25-.13 4.5-5.366-2.47-11.216-6.56-14.24 0 3.354-1.07 5.57-3.48 8.415-4.702 5.593-13.324 6.13-18.77 1.574-6.97-5.85-7.17-15.06-1.4-21.87 7.91-9.46 16.917-6.77 25.46.41 9.16 7.68 19.74 17.86 9.77 29.76-5.29 6.26-11.29 9.29-18.516 3.56l6.257-7.47m-5.85-12.28c2.673-3.21 1.07-6.67-2.08-9.31-3.15-2.65-7.22-3.99-9.92-.79-2.975 3.56-.94 7.32 2.214 9.99 3.13 2.62 6.82 3.63 9.79.1z"/>
  <path fill="#00559E" d="M212.94 445.916l-35.494-29.834 3.803-4.526 15.33 12.894 10.44-12.437-15.34-12.87 3.8-4.527 35.49 29.81-3.8 4.5-16.23-13.607-10.44 12.43 16.22 13.63-3.8 4.52m12-38.74c-7.29-6.13-12.58-12.01-5.37-20.6 7.25-8.6 13.93-4.4 21.2 1.72 10.96 9.18 9.04 14.67 4.61 19.94-4.4 5.26-9.51 8.14-20.45-1.07m10.58-16.12c-6.81-5.67-10.06-4.81-12.64-1.71-2.6 3.1-2.91 6.46 3.88 12.16 8.05 6.76 11.83 8.16 15.35 3.99 3.51-4.17 1.45-7.66-6.59-14.45zm-1.54-20.63l-4.82-4.05c-5-4.2-3.03-8.57 0-12.19.7-.82 1.14-1.27 1.74-1.78l2.92 2.44c-3.92 4.02-2.72 6.28-.69 7.96l4.22 3.59 4.22-5.04 3.04 2.57-4.21 5.01 21.8 18.28-3.39 4.02-21.81-18.26-3.19 3.81-3.05-2.55 3.2-3.84m11.48-13.66l-4.82-4.07c-5.03-4.2-3.03-8.57-.03-12.16.7-.84 1.17-1.27 1.77-1.8l2.9 2.44c-3.88 4.05-2.68 6.31-.66 8.01l4.22 3.54 4.22-5.037 3.06 2.6-4.227 4.984 21.786 18.29-3.36 4.05-21.81-18.29-3.23 3.84-3.05-2.57 3.23-3.82m27.88-5.37c6.946 5.83 9.897 5.11 12.49 1.99 2.34-2.77 1.324-6.05-1.066-8.316l3.71-4.4c5.466 4.653 5.135 10.146.76 15.36-4.425 5.266-9.51 8.14-20.474-1.067-7.273-6.13-12.58-12.006-5.34-20.6 5.925-7.07 11.317-5.6 19.53 1.294l2.11 1.78-11.72 13.97m5.085-12.26c-7.25-6.05-9.817-4.78-12.28-1.83-2.14 2.54-2.7 5.697 4.17 11.52l8.11-9.69zm34.67-12.54l-17.22-14.42c-2.62-2.24-5.598-3.13-8.497.3-3.69 4.43-.31 8.4 3.07 11.22l14.7 12.36-3.355 4.02-19.69-16.51c-1.73-1.45-3.54-2.793-5.34-4.09l3.56-4.29 3.2 2.69.18-.172c-1.5-3.94-.81-6.53 1.86-9.74 4.47-5.31 8.8-3.97 13.68.18l17.22 14.45-3.386 4.02m20.66-24.6l-16.81-14.12c-3.05-2.54-6.03-3.38-8.9.05-3.384 4.046-1.02 7.78 3.15 11.32l14.6 12.26-3.354 4.04-35.507-29.84 3.382-4.02 13.86 11.62.16-.18c-1.52-4.07-.74-6.59 1.98-9.84 3.56-4.23 7.63-4.81 13.25-.11l17.6 14.8-3.38 3.99m1.53-24.36c6.92 5.827 9.87 5.14 12.52 1.986 2.313-2.77 1.3-6.05-1.09-8.312l3.71-4.4c5.47 4.66 5.14 10.15.762 15.37-4.43 5.26-9.516 8.14-20.478-1.07-7.28-6.13-12.57-12.01-5.35-20.6 5.955-7.07 11.296-5.6 19.51 1.3l2.14 1.78-11.725 13.96m5.09-12.26c-7.25-6.05-9.818-4.78-12.31-1.83-2.138 2.545-2.67 5.7 4.17 11.52l8.14-9.69zm-12.41-28.53l3.79-4.5 4.32 3.61-3.79 4.55-4.32-3.67m39.06 25.56l-3.354 4.02-24.88-20.853 3.41-4.046L367 262.362zm16.13-19.2l-17.24-14.42c-2.497-2.11-5.397-3.36-8.12-.13-1.015 1.22-1.7 3.51-1.244 4.88.61 1.78 1.93 3.21 2.85 3.99l16.73 14.04-3.38 4.02-19.71-16.51c-1.704-1.42-3.51-2.77-5.34-4.09l3.585-4.25 3.1 2.597.08-.1c-1.68-3.41-.81-6.31 1.63-9.23 1.88-2.26 5.01-4.07 8.06-3.08-1.5-3.63-.18-6.33 1.76-8.59 2.19-2.62 6.28-6.31 12.16-1.4l18.87 15.87-3.39 4.047-17.22-14.47c-2.52-2.11-5.39-3.357-8.14-.1-1.27 1.523-1.6 2.01-1.62 3.84 0 2.01 2.29 4.27 3.23 5.033l16.71 14.04-3.36 4.02"/>
</svg>