<svg xmlns="http://www.w3.org/2000/svg" id="Ebene_1" viewBox="0 0 331.3 367.3">
  <path fill="#FFF" d="M326.3 39.4v-3.2l-2.9-1.3C283.1 16.5 231.7 7.2 166.5 6.4h-.2c-65.3.7-116.7 10-157 28.4l-2.9 1.3v3.2c-.5 65.3 3.5 107.1 28.3 181.8 22.5 67.6 75.7 124.4 132.4 141.2l1.4.4 1.4-.4c54.8-16.2 105.1-71.6 128.2-141.1 24.8-74.8 28.8-116.5 28.2-181.8z"/>
  <path d="M168.6 359.5l-.5-.2c-26.2-7.8-53.3-25.3-76.3-49.3-24.3-25.4-43-56.4-54.1-89.9C13 145.8 9 104.2 9.5 39.3v-1.2l1.1-.5c40-18.2 91-27.4 155.9-28.1 64.8.8 115.7 10 155.7 28.2l1.1.5v1.2c.5 64.9-3.4 106.5-28.1 180.8-22.7 68.6-72.2 123.2-126.1 139.1l-.5.2zM13.2 40.5c-.4 63.9 3.6 105.1 28 178.5 21.7 65.4 72.9 120.3 127.4 136.7 52.5-15.8 100.8-69.4 123.1-136.6C316 145.6 320 104.4 319.5 40.6c-39.4-17.7-89.4-26.7-153.1-27.4-63.7.7-113.9 9.6-153.2 27.3z"/>
  <path d="M310 49v-1.4l-1.3-.6c-36.5-16.8-83-25.3-142.1-26-59.2.7-105.8 9.2-142.3 25.9l-1.3.6v1.4c-.4 59.8 3.2 98 25.7 166.4 20.1 61 68 112.3 119.1 127.6l.6.2.6-.2c49.4-14.7 94.6-64.8 115.2-127.6C306.9 147 310.5 108.8 310 49z"/>
  <path fill="#E10019" d="M168.6 207.3c-.1 42.4 0 89.1 0 131.5-4.5-1.9-36.3-11-65.5-41.6-14.1-14.8-24.9-30.1-31.2-40.5 0 0 65.8-33.7 96.7-49.4z"/>
  <path fill="#FFF" d="M132.4 244.8l-2.5-2.5c-4-.1-7.9-.1-11.8-.1-.9.9-1.8 1.8-2.6 2.8-.1 7.9-.1 15.7-.1 23.7l2.3 2.3h12.2c.8-.9 1.6-1.7 2.5-2.5v-23.7zm-11.3 21.1v-18.4h5.9v18.4h-5.9zm-50.9-12.4c-5.8-10.2-8.2-14.7-12.5-24.6-3.8-8.9-8.6-23.2-8.5-23.5 85.6-43.5 171.6-87.2 257.3-130.8.3 13.8-.8 23.4-2.4 38.2-.9 9.1-2 16.7-3 23.3-76.6 39-154.3 78.4-230.9 117.4zm-5.6-59.6l.5-12.4L86 172l-.7 11.5zM44.4 190c-1.2-4.1-1.2-4.1-1.5-6 .7-16.7.8-16.6.9-18.1 6.9-3.2 13.8-6.3 20.8-9.5-.3 8.2-.7 16.4-1 24.7-6.4 2.9-12.8 5.9-19.2 8.9zm63.9-18.4c.1-3.6.2-7.1.3-10.5 6.9-3.2 13.8-6.4 20.8-9.6-.1 3.2-.2 6.3-.2 9.5-7 3.5-14 7.1-20.9 10.6zm-21.5-1.3l1.1-24.9 20.7-9.6-1.2 24.8zM38.4 167c-1.5-7.2-3.2-15.1-4.7-22.4 0-.1 6.6-3 9.9-4.3-.3 8.3-.6 16.5-.9 24.9-1.4.5-2.9 1.1-4.3 1.8zm27.3-12.5l1-24.8 20.6-9.6-.9 24.8zm65-5l1.1-24.6 20.6-9.6-.8 24.6zm34.8-14.7v7.8c-4.4 2.2-8.8 4.5-13.1 6.7l.3-8.7c4.3-1.9 8.5-3.9 12.8-5.8z"/>
  <path fill="#E10019" d="M185.8 82.7c26.4 1 53.6 2.7 79.4 9.1-32.1 16.3-64.6 32.8-96.6 49.2-.1-19.5-.2-39.1-.2-58.5l17.4.2z"/>
  <path fill="#FFF" d="M44.7 138.8c.2-8.3.6-16.5.9-24.8 6.9-3.2 13.9-6.5 20.8-9.7-.3 7.9-.8 24.4-.9 24.9-6.8 3.1-14 6.3-20.8 9.6zm65.2-4.8l.8-24.9 20.7-9.6-.9 24.8zM30 120.2c-.6-5.3-1.4-15.9-1.4-15.9s6.3-2.5 16.6-6.1c-.2 5-.5 10.1-.7 15.1-4.9 2.4-9.7 4.6-14.5 6.9zm58.8-2c.3-8.4.6-16.6 1-24.9l16.8-7.8c1.3-.2 2.6-.3 4-.4-.4 7.8-.7 15.6-1.1 23.4-6.9 3.2-13.8 6.4-20.7 9.7zm76.7-33.6v23.5c-4 1.8-7.9 3.6-11.8 5.4.3-8.3.6-15.7 1-24 3.5-1.7 7.1-3.3 10.8-4.9zm-97.9 17.8l.5-10.4 20.7-4.1-.4 5z"/>
  <path fill="#FFF" d="M26.9 49.6c8.7-3.4 62.4-25.3 139.8-24.7 81.8.7 124.4 18.3 139.7 24.5v21.3c0 .1-24.5 11.9-36.4 18-11.8-2.4-49.5-10.4-106.8-10.4-78.7 0-131.7 19.6-135 20.9-1.8-25.5-1.5-48.7-1.3-49.6zm127.8 216.3H152v-3.7c.6-.1 2.1-.1 2.7-.1v-4.7h-2.8v-15c-1.9 0-4.5 0-6.3.1-3.2 4.8-6.8 9.6-9.6 14.7v5c2.4 0 7.5 0 9.9.1v3.8h-3v5h11.8v-5.2zm-12.5-8.6l4.2-7.5v7.5h-4.2z"/>
  <path fill="#E10019" d="M41.5 61.8v-3.7c-.7.2-1.3.3-1.9.5v-4.9c6.1-1.2 12.3-3 18.3-3.9l.1 7.7c-1.8.3-3.7.7-5.4 1.1v-2.9c-1.9.3-3.7.7-5.5 1.1l.1 6.1c1.3-.3 2.8-.6 4.2-.8v4.7c-1.4.2-2.8.6-4.2.9l.1 6.4c.6-.2 1.2-.2 1.9-.3v4.7c-3.2.7-6.3 1.3-9.4 2v-4.7c.6-.2 1.2-.3 1.9-.4l-.2-13.6zm231.7 13.5v-4.7c.5.1 1.5.3 2.1.4l-.2-17.4-1.8-.3v3.3s-2.9-.6-4.4-.9l-.1-7.9c6 1.1 12 2.3 18.1 3.5l.1 7.9-4.3-.9v-3.2l-1.7-.3.2 17.4s1.1.1 1.8.3v4.7c-3.1-.7-6.7-1.4-9.8-1.9zM60.8 73.8l-.2-22.3c1.2-1.3 2.5-2.7 2.5-2.7 3.7-.7 11-1.9 11-1.9l3.4 1.8v7.2l-5.5.8v-4.4l-6 .9.1 17.2c2.1-.4 3.8-.7 5.9-1v-4.7c1.8-.3 3.6-.7 5.4-.9l.1 6.9c-.9.9-1.8 2-2.8 3-4 .7-7.7 1.3-11.6 1.9-.8-.6-1.6-1.2-2.3-1.8zM88.9 71v-4.7c.6-.1 1.2-.2 1.9-.2l-.2-17.3c-.7 0-1.3.1-2 .1v-4.7c3.1-.4 6.2-.8 9.4-1.2v4.8c-.6.1-1.2.2-1.8.2l.2 17.2c.5-.1 1.2-.2 1.8-.2v4.8c-3.1.5-6.2.8-9.3 1.2zm15.3-6.5l-.2-17.2-2.1.2-.1-4.7 7.7-.7 6.5 16.3-.1-12.1-1.8.2v-4.8s5.3-.5 8.5-.7v4.8l-1.7.2.2 17.1s1.1-.1 1.8-.1v4.8l-7.1.5-6.6-15.7.1 11.6 1.3-.1v4.8c-3.1.3-5.3.5-8.3.9v-4.9l1.9-.4zm161.7-14.8l-3.4-3c-5.2-.8-10.3-1.6-15.4-2.4v4.9c.6.1 1.2.1 1.9.3l.2 17.3c-.7-.1-1.3-.1-1.9-.2v4.6c4.9.7 9.9 1.5 14.9 2.3 1.4-.3 2.6-1.1 3.8-2l-.1-21.8zm-10.5 17.9l-.2-17.3c1.6.2 3.3.5 5 .8l.2 17.3c-1.8-.3-3.4-.6-5-.8zm-42.2-.4v-4.7l1.6.2-.2-17.4c-.5 0-1-.1-1.7-.1v3.1c-1.6-.1-3-.1-4.5-.2l-.1-7.9c6 .5 12.2.9 18.3 1.4.1 2.7 0 5.3.1 8-1.6-.1-2.9-.3-4.4-.4 0-1.1-.1-2.2-.1-3.2-.5-.1-1.3-.1-1.9-.1l.2 17.5 1.8.2v4.5c-3-.4-6.1-.6-9.1-.9zm-24.9-4V58c1.8.1 5.5.3 5.5.3v3.2c2.1.1 6.2.3 6.2.3l-.1-6.3c-3-.2-9.3-.6-9.3-.6-.9-.8-1.7-1.6-2.5-2.4l-.1-10.9c.8-.7 1.5-1.4 2.3-2 10.8.3 12.3.5 12.3.5.9.9 1.9 1.8 2.8 2.8V48l-5.7-.3v-3.1c-2.1-.1-4.1-.2-6.2-.3l.1 5.9 9.4.7c.8.8 1.6 1.5 2.4 2.4l.1 11.1c-.8.7-1.5 1.4-2.3 2.1l-12.3-.6c-.8-.9-1.7-1.8-2.6-2.7zM126.8 65l-.2-22.3 2.2-2.3 13.6-.7 2.4 2.1.1 5.3c-1.9.1-3.8.1-5.5.3v-2.8c-2.4.1-4.8.2-7.1.4l.2 17.2c2.3-.2 4.7-.3 7.1-.4v-4.5c-1.6 0-3 .1-4.5.2v-4.8c2.4-.2 4.8-.4 7.3-.5.9.8 1.8 1.6 2.7 2.5l.1 9.2c-.9.8-1.6 1.6-2.4 2.4-4.4.2-8.9.5-13.2.7-1.1-.6-2-1.3-2.8-2zm42.7.9l-.1-4.8h1.9l-.2-17.3h-1.9V39s8.6 0 9.3.1v4.7h-1.8l.2 17.4c1.7 0 1.6 0 3.3.1v-3.5c1.7 0 3.7.1 5.4.1l.1 8.3c-3.4-.2-16.2-.3-16.2-.3zm-3.6-24.5c-.9-.8-2.7-2.5-2.7-2.5l-11.6.3c-1 1-1.7 1.7-2.5 2.6 0 7.4.1 14.8.1 22.3.6.5 1.3 1.2 2 1.8 1.7 0 12.1-.1 12.1-.1l2.9-2.5-.3-21.9zm-11.2 19.8l-.2-17.3 5.8-.1.2 17.3s-4.9.1-5.8.1zm89.8 5l-1.3-.2-4.8-17.9 1.5.1-.1-5c-2.8-.4-6.3-.8-9.1-1.1l.1 5.1 1.1.2s-2.6 11.3-3.8 16.9l-1.6-.2v4.6c2.4.2 5.2.6 7.7.9v-4.5l-1.3-.1.4-1.9 4.3.4.3 2-1.2-.1v4.7c2.5.3 5.3.6 7.8.9v-4.8zM233.8 59l1.6-8 1.8 8.3-3.4-.3z"/>
  <path fill-rule="evenodd" clip-rule="evenodd" fill="#FFF" d="M133.2 83.2l-.3 14.8 20.2-9.5.1-6z"/>
  <path fill-rule="evenodd" clip-rule="evenodd" d="M69.3 234.3l7.1-3.6 2.2 4.4 8.3-4.3-4.5-8.7-11.9 6.1-5.1-1.6-7.6-14.6 1.7-4.9 15.9-8.1 5 1.6 3.8 7.3-7.3 3.7-2.2-4.2-8.1 4.2 4.2 8.2 12-6.2 5 1.7 7.7 14.9-1.7 5.2-15.1 7.6-5.9-1.9zm40.9-23.2l7.1-3.6 4.9 9.4-1.6 5-15 7.5-5.2-1.6-15.3-29.7 1.5-4.7 15.3-7.8 4.9 1.5 3.6 7-7 3.7-1.9-3.8-7.6 4 12.1 23.4 7.5-3.9zm19.7-13l4.6 8.7 1.7-.9 3.2 6.3-11.2 5.6-3.1-6.2 2.4-1.3-12.2-23.6-2.5 1.3-3.2-6.4 11.3-5.8 3.3 6.4-2 .9 4.1 8 8-4.1-4-7.9-2.1 1-3.3-6.3 11.6-5.8 3.2 6.3-2.3 1.2 12.1 23.6 2.4-1.2 3.2 6.3-11.4 5.8-3.3-6.3 2.1-1-4.6-8.7zm39.7-1.2l-10.2 5.1-3.3-6.3 2-1-6.4-26.6-1.8.9-3.4-6.4 13-6.5 3.3 6.3-1.7.9L179 184l1.8-.9 3.3 6.3-9.7 4.9-3.3-6.2 1.6-.8-2-2.5-7.1 3.7.8 3.1 2.1-1 3.1 6.3zm-3.4-17l-7.6-10 3.3 12.3 4.3-2.3zm32.8 1.9l-10.9 5.6-3.3-6.4 2.5-1.3-12.2-23.5-2.6 1.3-3.3-6.4 10-5.1 17.6 16.4-7.4-13.5-1.8.9-3.3-6.3 11.3-5.8 3.3 6.4-2.5 1.3 12.1 23.6 2.5-1.4 3.3 6.4-9.3 4.8-19.2-17.9 8.2 15.4 1.8-.8zm41.1-20.7L219 172l-3.2-6.2.6-30.5-6.4 3.2 2.6 4.9-6.5 3.4-5.8-11.2 21.2-10.8 3.3 6.5V161l5.2-2.6-2.8-5.4 6.9-3.6zm27.8-14.1l-23.4 11.7-3.2-6.3 2.1-1.1-12.2-23.6-2.3 1.2-3.2-6.3 23.4-12 5.3 10.4-6.9 3.6-2.2-4.2-7 3.6 4.4 8.6 5.5-2.8 3.3 6.3-5.5 2.8 4.5 8.8 7.1-3.6-2.5-4.9 6.9-3.5zm15.6-8l-11.3 5.7-3.2-6.4 2.5-1.3-11.9-23.8-2.1 1-3.2-6.3 19.2-9.7 5.4 2.3 6.8 13.6-1.9 5.7-2.2 1.2 10.1 5.8 1.7-.9 3.3 6.5-10.1 5.1-3.3-6.2 1.1-.6-9.6-5.7-.3.2 4.2 8.3 1.5-.7 3.3 6.2zm-10.9-32.3l-5.8 2.8 4.2 8.5 5.7-3-4.1-8.3z"/>
  <path fill="#FFF" d="M197.3 215.8c-1.9-1-4.1-1.9-5.6-3.7-1.2-3.8-1.8-4.1-5.8-5 1.3 1.8 2.9 3.9 3.1 6.3-.7-.4-1.5-.7-1.8-1.6-.9-2.8-2.3-3.6-5.1-3.6 1.1 1.5 2 2.7 2 4.5-.2.1-.5-.1-.8-.2-.5-.3-.7-.7-.8-1.1-1-2.8-1.8-2.9-4.8-3.2 1.5 1.9 2.3 3.8 1.8 4.2-1.5 1.3-4.6 2.6-4.6 5.3 4.6-1.3 6.1-1.5 10-1.4 3.5.1 5.3 1.6 8.8 1.7 3.1.1 7.2-.8 7.8-.9-1.4-.3-2.9-.8-4.2-1.3zm-9.3.2l-.6-.5c2 .4 4.6.9 6.6.9-1.4-.7-3.6-1.2-4.2-2.1-.1-.2-.3-.4-.2-.5.5.3.9.4 1.4.7 2.8 1.3 7.4 2.4 7.4 2.6-2.9-.2-7.9.6-10.4-1.1z"/>
  <path fill="#FFF" d="M249.1 229.6c1.4-.1 1.3-3.3-2.6-2.8-2 .3-5.8 2.5-5.9 1.6-.3-2.7 8.6-3.9 9.2-4.7 2.4-3.1-7.6-1.5-10.7 1.3-3.3 2.9-3.8 7.2-2.5 10.9l.2 1c-3 1.9-6.7 4.9-7 6.5-.3 1.4.2 2.5 1.5 1.8 1.2-.6 2.9-3.8 6.5-3.8-.1.1-5.5 3.6-4.6 6.5.2.8 1.1 1.4 2 .1 1-1.4 4.6-4.2 7.4-2.9 3 1.4 3.8 5.3 2.3 8.2-1.3 2.4-3.5 2.7-6.1 3.2-6.9 1.2-7.9-7.7-13.2-12.3-1.7-1.5-1-.5-4.5-3.7-.1-.2-.5-.4-.8-.8-1.3-1.7 5.1 1.4 5.4.9 1.2-2 .3-3.8.4-5.6 0 0 .7.1 1.1.2 1.8.3 2.8.3 4.6.3-.1-1.7-2-5.1-2-5.1s3.7-.5 5-.7c-.6-2.3-3.1-4.6-3.1-4.6s1-.7 5.2-1.3c-1.8-2.7-4.6-4.4-4.6-4.4 1.5-.1 3.9-.8 5.3-.3 0 0-1-2.2-1.3-2.6-1.7-2.5-3.6-1.5-6-1.3 1.3-1.3 3.8-3.8 3.8-6.3-3.2 1.2-8.4.9-11.9 1.7-2.9-.6-4.8-1.2-7.9-1-4 .3-6.7 2.3-9.9 3.2-1.1-.2-2-.7-3.2-.3-.8.3-1.4.5-1.8 1.2-.4.6-.3 1.1-.3 1.9 3.5.4 6.9-.9 10.4-.1.2.3.2.3.2 1.6-.9 1.9-3.5 1.9-5.4 2h-2.6c-.6 0-1.1 0-1.5.1.5 1.5 1.7 3.2 3.7 3.8 1.2.4 3.2 0 3.2 0 .6-.1 18.7-5.2 14.3 1.4-5 3.1-11.4 4.6-16.1 8.4-4.5-1.6-6.7-1.7-10.9-4.1 0 0-.2-.5-.3-.8-1.4-3.8.2-8.1-6.1-8.6-.5 0 1.4 1.3 1.5 1.8.4 1.2.1 1.5-.5 1.7-1.1.3-2.7-1.9-4.7-2-2-.1-3.4.4-4.9 1.7 1.8-.6 6.3 2.7 5.9 2.7-1.5-.1-3.8-.5-5.7.1-1.2.4-2.6 1.9-3.2 3.8 1.5-1.3 2.9-1.7 4.8-1.3 2.4.5 3.9 1.7 4.3 4.6-.8 1.1-2.7 1.8-4.9 2.9-1.1.6 3.3 1.6 5.4 1.3 1.6-.3 1.6-2 3.6-1.8 4.6 1.8 9.4 3.3 13.6 5.9-.1.1-.1.2-.1.4-3.4 2.6-6.7 5.2-10.1 7.8-2.1.5-2.1-3.4-4.2-4.3-2.7-1.2-5.1-.9-7.6.7 2-.4 6.3 1.4 5.5 3.6-1.3 0-6.2-.1-7.5 2.1l3.2.2c1.2.1 1.9.2 2.9 1 3.1 2.3-4.7 1.9-1.3 7.6l.6.8c.6-.9.9-3.2 2.5-4 1.6-.9 2.9-1.6 4.7.1 1.6 1.5 1.3 3.2-.6 5.6 7 1.1 5.9-4.8 5.5-6.6 3.3-3.4 7.5-5.5 11.8-7.5 2.8.6 7.7 4.5 7.7 7.4-4.1 2.4-12.1.8-12.1 7.7.8 3.3 3.6 6.7 3.6 9.9-.4.6-1.5 2-1.5 2-1.2 1.6-3.2 3.9-4 4-.7.1-1.4.1-1.6-.6-1.7-5.8-5.2-5.8-8.1-3.8-.5.3-1.1.9-1.1.9 4-.7 4.5 1.1 4 3.1s-3.6-1-5.4.2c-1.3.9-1.9 1.8-2.1 3.3 2.3-1.3 6.9-1.7 6.6 1.4-1.7 1.3-4.7 6.6-.9 7.5.3-.9.3-2.3 1.2-3.3 1.8-2.1 5.4-2.1 6.9-.7 0 1.8 0 4.1-1.8 4.9 2.6.7 5.2-.7 6.1-3.2.4-1.1.2-2.1.2-3 3.7-4 8.6-7 11.3-11.7-.1-.6-3.8-5.2-.7-7.8 3-1.5 6-3.1 9.1-4.5-.5 2.1-1.3 3.9-1 6.4.7 4.4 4.7 6 7.4 8.8-.4 2.3-2.1 5.3-4.1 6.6-3 .4-2.6-3.8-5.1-4.4-1.6-.4-2.6-.5-4.1.2 1.6.8 1.7.5 2.8 1.7 1.9 2-4.1 1-5.6 2.9-.6.7-.9 1.3-1.3 2.3 2-1.7 6.6-2.2 6.6 1.2-.6.9-4.9 2.5-2.8 6.1.8-.7 1.2-1.3 2.2-1.9 2.5-1.4 7.9-2.1 7.3.5-.3 1.2-.9 1.5-1.9 2 1.6 1.5 4.6.8 5.5-1.1.4-1 0-1.8 0-2.7 5.8-4.9 12.9-14.2 8.6-22.1-1.3 0-3.3 1.2-3.6 1.2-.3-1.1-.8-1.9-1-3.2-.3-2.3.4-3.9.7-5.8 5.1.4 10.2-1.1 12.4-6 1.5-3.3 1-5.6-.4-9.3-1.9-5.1-9.2-7.7-8-11.6.8-3.4 6.7-3.9 8.6-4.1zM212.5 214c4.1-4.8 5.8-.9 5.8-.9s-4.2.4-5.8.9z"/>
</svg>