<svg xmlns="http://www.w3.org/2000/svg" viewBox="0 0 87.399 99.243">
  <path d="M87.032 49.64c.02-.034.015-.05.035-.09.1-.206.164-.456.164-.713 0-.2-.04-.405-.13-.602-.05-.103-.14-.178-.21-.262l.21-.594c.03-.12.05-.23.05-.35 0-.42-.2-.81-.55-1.06-.47-.32-1.1-.31-1.57.02-.36.23-.62.66-.86 1.08-.15-.17-.31-.27-.64-.19-.41.1-.36.18-.69.66-1.19 1.74-2.78 4.47-4.6 4.56-.39-.05-.51-.17-.99-.91-3.94-6.28-8.78-9.99-15.18-14.55-.37-.32-1.19-1.59-1.97-2.81-1.36-2.12-2.9-4.51-4.46-5.61-1.19-.86-2.46-1.32-3.69-1.76-1.49-.54-2.89-1.04-4.16-2.25-.5-.5-.96-1.16-1.48-1.93-1.07-1.56-2.43-3.47-5.04-5.16.07-.38.15-.89.15-1.52 0-.77-.21-1.98-.56-2.62-.26-.49-.67-.77-1.06-.87-.71-.17-1.85.09-2.62.43 1.52-4.48 5.07-7.44 6.92-8.97 1.03-.85 1.61-1.34 1.61-2 0-.1-.01-.21-.04-.33C45.36.1 44.02.03 43.44.01l-.11-.006c-.783-.02-3.285.066-5.098 1.447-.535.15-1.006.37-1.433.64-.02-.07-.02-.15-.05-.23-.22-.47-.79-.93-1.75-.81-1.79.28-2.8.74-3.49 1.12l-.18.11c-.63.38-1.64 1.03-2.4 2.53-.72.53-1.52 1.35-1.83 2.57-.78.53-1.41 1.43-1.46 2.59-.48.57-.77 1.16-.9 1.79-.77-.67-1.68-1.13-2.76-1.3l-.08-.01h-.08c-.34 0-1.04-.02-1.57.52l-.14.14-.08.18c-.08.19-.12.36-.12.52 0 .43.23.76.32.9l.06.09c.01.03.19.87.19.87l.11.93c.28 1.53.93 2.32 1.77 3.03-.18.54-.28 1.03-.28 1.47 0 .74.19 1.34.36 1.87l.08.24c.01.09.02.18.02.28 0 1.05-.41 3.09-.72 4.29 0 .01-.13.4-.13.4-.24.74-.66 2.06-.66 3.52 0 .53.05 1.07.19 1.61.28.92.98 2.02 1.97 2.49l.55.23c.5.19.65.25.86.59.18.28.26 1.19.26 2.14 0 .7-.04 1.43-.12 1.94l-.01.07v.08c0 .51.33.98.81 1.17.42.17 1.05.14 1.57-.41.34-.35.63-.73.88-1.13.07.1.09.23.18.32l.04.04.05.03c.18.12.39.17.6.18-.64.43-1.41.92-2.46 1.54-6.01.95-10 3.14-10.74 5.82C6.16 50.99 0 60.74 0 71.38c0 15.367 12.5 27.87 27.86 27.87 15.37 0 27.877-12.5 27.877-27.864 0-3.64-.742-7.17-2.07-10.45l.36-.17c.09.1.186.2.186.2.35.42 1.043.92 1.603.94.56.01.913-.06.913-.06l.06-.02.31.54c.55.84 1.44.82 1.92.81.29-.01.51-.01.77.1.27.12.37.5.5 1.36l.1.62c.15.67.55.99.76 1.16l.01.01.17.896c.1.74.21 1.58.99 1.91-.02-.01.02-.01.07-.01.12.62.15 1.37.87 1.81.16.1.38.12.59.14l.02.07c.19.95.94 1.19 1.23 1.28h.01l.47.77c.3.55.58 1.06.96 1.37l.17.14.21.07c.11.03.22.04.32.04.92 1.17 3.43 4.92 3.43 8.41 0 .16-.01.33-.02.49-.17 2.37-1.14 3.59-1.78 4.39-.74.92-.77 1.99-.77 2.41v.06c.09 1.02.62 1.36 1.01 1.61.41.22 1.58.71 3.23.03 1.35-.57 1.64-1.58 1.83-2.26.09-.31.14-.5.24-.6.62-.61 1.35-1.49 1.45-2.93.01-.12.01-.24.01-.36 0-1.21-.39-2.737-.76-4.09-.16-.58-.36-1.937-.41-3.17.53.73.98 1.47 1.24 1.92l.14.224c.35.592 1.35 2.3 1.35 3.96 0 .18-.01.36-.04.54-.18 1.12-.54 1.764-.94 2.51-.43.773-.91 1.65-1.17 3.07-.03.19-.05.38-.05.563 0 .77.29 1.44.83 1.9.76.64 1.9.77 3.13.34 1.52-.55 2.56-2.28 2.89-4.62l.4-.29c.4-.45.5-.95.5-1.37 0-.36-.07-.66-.11-.81-.81-3.27-.96-4.87-.96-6.16 0-.35.01-.67.03-1l-.06-2.79c-.1-.86-.5-1.51-.86-1.87l-.6-.69c-.44-.45-.99-1.01-1.11-1.51-.15-.65-.21-1.45-.21-2.34 0-1.56.18-3.41.36-5.22.19-1.95.37-3.83.37-5.5 0-.72-.05-1.39-.13-2.01 4.53.14 6.59-4.53 7.29-6.12l.12-.27c.13-.35.18-.64.18-.88 0-.45-.18-.75-.37-.94m-54.9-15.9c.06-.49.12-.82.17-1.18.1.05.243.07.374.09.14.76.61 1.16.934 1.38l.23.88c.01.02.04.06.054.09-.3.24-.63.52-1.05.89l-.62.55c-.57.51-1.036.92-1.495 1.3.693-1.145 1.24-2.797 1.4-4.02" fill="#FFF"/>
  <path d="M81.1 75.06c.013.01.02.03.03.04l.118.135-.148-.176z" fill="#FFF"/>
  <path d="M1.07 71.378c0-14.8 12.002-26.8 26.79-26.8 14.805 0 26.81 12 26.81 26.8 0 14.802-12.004 26.796-26.81 26.796-14.788 0-26.79-11.994-26.79-26.796" fill="#E20613"/>
  <path d="M4.314 71.378c0-13.015 10.56-23.566 23.577-23.566 13.01 0 23.57 10.55 23.57 23.566 0 13.013-10.56 23.558-23.57 23.558S4.32 84.39 4.32 71.378" fill="#FFF"/>
  <path d="M6.063 71.376c0-12.054 9.776-21.827 21.828-21.827 12.05 0 21.83 9.77 21.83 21.82S39.95 93.19 27.9 93.19c-12.054 0-21.83-9.77-21.83-21.824" fill="#E20613"/>
  <path d="M50.82 57.29c-.45-.464-.855-1.095-.855-1.095-4.832-7-12.92-11.612-22.085-11.612l-.048.06c-.355.072-.722.294-1.23.58-.814.428-1.673.457-2.514.5-.675-.043-.206-.88-.618-.742-.476.14-1.525.5-1.98.78-.042 1.04-3.18 2.12-4.872 1.31.2-2.48 4.323-4.64 10.225-5.53 3.68-2.19 4.2-2.76 6.622-4.91 1.087-.96 1.587-1.36 1.94-1.43.155-.06.046-.16-.08-.17-.333-.14-.487-.37-.61-.63-.194-.41-.065-.89-.34-1.15-.323-.22-.72-.38-.762-.92-.02-.27-.04-.7-.432-.73-.54.02-.74.14-.8-.99-.03-.49-.01-1.28-.26-1.3-.37-.03-.73 1.2-1.13 4.24-.29 2.21-1.6 4.71-2.05 4.39-.43-.38-.06-2.66-.73-3.67-.1-.18.22 2.5-1.81 4.57-.28.3-.52.12-.51-.03.08-.56.35-3.81-.3-4.8-.5-.81-1.05-.86-1.85-1.2-.66-.32-1.2-1.15-1.4-1.79-.53-2.07.41-4.28.59-4.98.18-.68.91-3.76.72-5.05-.29-.98-.74-1.87-.09-3.38.1-.16.18-.27.05-.41-.96-.74-1.61-1.33-1.88-2.8-.16-.86-.03-1.25-.36-2-.11-.3-.38-.47-.29-.67.21-.2.52-.2.8-.2 1.6.27 2.57 1.17 3.17 2.14.21-.41.38-.66.67-.94-.06-.99.4-1.74 1.05-2.39-.11-1.23.73-1.98 1.32-2.25.09-1.05.72-1.82 1.72-2.52.68-1.55 1.68-2.06 2.27-2.42.63-.34 1.52-.74 3.1-.99.69-.08.83.34.52.63-1.03.84-3.43 3.4-4.41 6.25.31-.55 1.06-1.49 1.99-1.93.53-1.37 1.81-2.07 2.58-2.45.45-.82 1.45-1.86 2.89-2.17 1.62-1.39 4.27-1.35 4.59-1.35.53.03 1.21.03 1.32.52.19.71-7.86 4.85-9.1 13.2-.05.37 1.97-1.9 4.08-1.56.12.05.21.14.27.26.99 2.13.05 4.08.29 4.22 4.18 2.46 5.08 5.56 6.88 7.32 2.53 2.42 5.49 2.32 7.97 4.11 2.36 1.67 5.06 7.26 6.43 8.42 5.93 4.23 10.93 7.93 14.9 14.26.53.82.86 1.32 1.87 1.41 2.21-.06 4.03-2.67 5.51-5.06.08-.12.19-.16.28-.09.18.14.08.49.26.51.48.07.89-1.37 1.39-1.69.19-.14.48-.02.42.23-.15.55-.49 1.19-.52 1.61 0 .1.09.08.14.01.09-.1.21-.14.32-.12.2.05.18.31.12.44-.18.34-.34.69-.36 1.09-.01.34.26.1.42.19.23.11.18.38.06.7-.62 1.37-2.51 6.37-7.01 5.72-.57-.1-.87-.52-.7.13 1.15 3.88-1.11 12.29-.15 16.3.28 1.15 1.58 2.07 1.98 2.67.24.23.51.7.57 1.24.3 3.42-.56 3.74 1.01 10.11.13.52.11.9-.16 1.21-.29.32-.5.18-.58.48-.22 2.04-1.06 3.67-2.27 4.1-1.67.58-2.76-.2-2.52-1.61.47-2.54 1.69-3.03 2.12-5.61.33-2.19-1-4.45-1.45-5.21-.42-.7-1.48-2.62-2.79-3.83-.18-.22-.32-.17-.38.02-.5 1.58.02 4.82.25 5.66.37 1.34.79 3 .71 4.09-.07 1.07-.62 1.73-1.13 2.23-.78.75-.28 2.02-1.75 2.63-1.07.45-1.87.25-2.23.06-.34-.21-.5-.31-.54-.72 0-.49.05-1.2.53-1.8.79-.98 1.83-2.37 2.01-4.98.34-4.73-3.86-10.12-4.13-10.18-.27-.06-.17.18-.39.12-.42-.34-.91-1.62-1.36-2.09-.24-.33-.84-.19-.94-.66-.05-.37-.2-.74-.49-.89-.19-.12-.33.08-.51-.02-.51-.4-.53-1.85-.7-1.94-.18-.08-.35.07-.48 0-.37-.16-.28-1.38-.58-2.24-.14-.45-.59-.43-.72-.98-.2-.98-.17-2.26-1.23-2.75-1.08-.47-1.77.18-2.29-.6-.27-.33-.23-.89-.93-.96-.37-.18-.52-.64-.85-.54-.18.06-.03.41-.4.64-.5.04-1.01-1.32-1.71-1.26-.23.09-.32.35-.58.37-.3.01-.32-1.52-1.31-1.89-.17-.06-.3.26-.45.04 0 .01-.41-.3-.87-.79" fill="#1D1D1B"/>
  <path d="M50.82 57.29c-.45-.464-.855-1.095-.855-1.095-4.832-7-12.92-11.612-22.085-11.612l-.048.06c-.355.072-.722.294-1.23.58-.814.428-1.673.457-2.514.5-.675-.043-.206-.88-.618-.742-.476.14-1.525.5-1.98.78-.042 1.04-3.18 2.12-4.872 1.31.2-2.48 4.323-4.64 10.225-5.53 3.68-2.19 4.2-2.76 6.622-4.91 1.087-.96 1.587-1.36 1.94-1.43.155-.06.046-.16-.08-.17-.333-.14-.487-.37-.61-.63-.194-.41-.065-.89-.34-1.15-.323-.22-.72-.38-.762-.92-.02-.27-.04-.7-.432-.73-.54.02-.74.14-.8-.99-.03-.49-.01-1.28-.26-1.3-.37-.03-.73 1.2-1.13 4.24-.29 2.21-1.6 4.71-2.05 4.39-.43-.38-.06-2.66-.73-3.67-.1-.18.22 2.5-1.81 4.57-.28.3-.52.12-.51-.03.08-.56.35-3.81-.3-4.8-.5-.81-1.05-.86-1.85-1.2-.66-.32-1.2-1.15-1.4-1.79-.53-2.07.41-4.28.59-4.98.18-.68.91-3.76.72-5.05-.29-.98-.74-1.87-.09-3.38.1-.16.18-.27.05-.41-.96-.74-1.61-1.33-1.88-2.8-.16-.86-.03-1.25-.36-2-.11-.3-.38-.47-.29-.67.21-.2.52-.2.8-.2 1.6.27 2.57 1.17 3.17 2.14.21-.41.38-.66.67-.94-.06-.99.4-1.74 1.05-2.39-.11-1.23.73-1.98 1.32-2.25.09-1.05.72-1.82 1.72-2.52.68-1.55 1.68-2.06 2.27-2.42.63-.34 1.52-.74 3.1-.99.69-.08.83.34.52.63-1.03.84-3.43 3.4-4.41 6.25.31-.55 1.06-1.49 1.99-1.93.53-1.37 1.81-2.07 2.58-2.45.45-.82 1.45-1.86 2.89-2.17 1.62-1.39 4.27-1.35 4.59-1.35.53.03 1.21.03 1.32.52.19.71-7.86 4.85-9.1 13.2-.05.37 1.97-1.9 4.08-1.56.12.05.21.14.27.26.99 2.13.05 4.08.29 4.22 4.18 2.46 5.08 5.56 6.88 7.32 2.53 2.42 5.49 2.32 7.97 4.11 2.36 1.67 5.06 7.26 6.43 8.42 5.93 4.23 10.93 7.93 14.9 14.26.53.82.86 1.32 1.87 1.41 2.21-.06 4.03-2.67 5.51-5.06.08-.12.19-.16.28-.09.18.14.08.49.26.51.48.07.89-1.37 1.39-1.69.19-.14.48-.02.42.23-.15.55-.49 1.19-.52 1.61 0 .1.09.08.14.01.09-.1.21-.14.32-.12.2.05.18.31.12.44-.18.34-.34.69-.36 1.09-.01.34.26.1.42.19.23.11.18.38.06.7-.62 1.37-2.51 6.37-7.01 5.72-.57-.1-.87-.52-.7.13 1.15 3.88-1.11 12.29-.15 16.3.28 1.15 1.58 2.07 1.98 2.67.24.23.51.7.57 1.24.3 3.42-.56 3.74 1.01 10.11.13.52.11.9-.16 1.21-.29.32-.5.18-.58.48-.22 2.04-1.06 3.67-2.27 4.1-1.67.58-2.76-.2-2.52-1.61.47-2.54 1.69-3.03 2.12-5.61.33-2.19-1-4.45-1.45-5.21-.42-.7-1.48-2.62-2.79-3.83-.18-.22-.32-.17-.38.02-.5 1.58.02 4.82.25 5.66.37 1.34.79 3 .71 4.09-.07 1.07-.62 1.73-1.13 2.23-.78.75-.28 2.02-1.75 2.63-1.07.45-1.87.25-2.23.06-.34-.21-.5-.31-.54-.72 0-.49.05-1.2.53-1.8.79-.98 1.83-2.37 2.01-4.98.34-4.73-3.86-10.12-4.13-10.18-.27-.06-.17.18-.39.12-.42-.34-.91-1.62-1.36-2.09-.24-.33-.84-.19-.94-.66-.05-.37-.2-.74-.49-.89-.19-.12-.33.08-.51-.02-.51-.4-.53-1.85-.7-1.94-.18-.08-.35.07-.48 0-.37-.16-.28-1.38-.58-2.24-.14-.45-.59-.43-.72-.98-.2-.98-.17-2.26-1.23-2.75-1.08-.47-1.77.18-2.29-.6-.27-.33-.23-.89-.93-.96-.37-.18-.52-.64-.85-.54-.18.06-.03.41-.4.64-.5.04-1.01-1.32-1.71-1.26-.23.09-.32.35-.58.37-.3.01-.32-1.52-1.31-1.89-.17-.06-.3.26-.45.04 0 .01-.41-.3-.87-.79z" fill="none" stroke="#1D1D1B" stroke-width=".127"/>
  <path d="M27.147 10.744c.422-.528 1.273-.77 1.236-.94-.074-.154-.39-.015-.627 0-.1.016-.234-.008-.218-.125.398-1.4 1.76-1.65 2.175-2.09.048-.09 0-.09-.107-.15-.216-.01-.56.22-.56.02.16-1.39 1.855-2.06 2.174-2.17.082-.08.008-.17-.098-.19-.144.01-.262.1-.28-.07.163-.69 1.083-1.25 1.677-1.54.6-.25 1.8-.62 1.8-.43 0 .07-.94.52-1.25.99-.26.38-.49.63-.51 1.23-.97.47-1.44 1.53-1.51 2.55-.68.35-1.21 1.58-.98 2.09-.79.76-1.18 1.86-1.13 2.97-1.7 2.22-1.2 3.07.68 3.76.27.08.54.1.59-.03.06-.14-.17-.22-.25-.41-1.02-2.27.26-3.41 2.06-4.18.14-.07.03-.23-.18-.22-.49-.01-.92.12-.98-.04-.26-.74 1.66-2.28 2.61-2.57.4-.12.23-.33.06-.3-.26-.02-.65.12-.78-.21.24-.83 2.56-1.94 2.9-2.14.21-.13.29-.37-.73-.16-.1.01-.2.01-.16-.13.19-.61 2.35-1.45 3.45-1.83.17-.08.22-.35-.3-.25-.19.03-.53.15-.6.01.06-.82 2.45-1.45 3.31-1.64.19-.06.23-.17.06-.26-.27-.08-.7.13-.54-.16.64-.41 2.34-.41 2.93-.32.16.03.2.07.22.1-.19.43-3.05 1.27-3.4 2.99-.86.35-1.7 1.17-1.79 1.87-.45.24-1.36.98-1.41 2-.49.37-1.79 1.51-1.36 2.91-.69.64-1.22 1.31-1.2 3.12.01.62-.8 1.64-1.64 1.87-.23.09-.14.28.03.33 1.41.41 2.71-.35 3.22-.83 1.62-1.55 2.7-2.1 3.43-2.19.13-.04.13.06.16.13.1.4.35 1.39 0 2.77-.46 1.72-1.79 2.53-2.16 3-.07.06.19.8.05 1.17-.15.48.02.77.19.84.48.18.82-1.61 1.1-1.56.23.01.19.4.47.54.15.05.36.01.39-.16.03-.5.22-1.72.34-1.85.09-.11.36.44.37.78.02 1.39-.76 2.58-.3 3.53.1.21.33.19.49.04.42-.45.71-2.08 1.64-2.29 1.26-.28 2.5 3.17 1.61 4.09-.43.36-.97.04-1.5.34-.57.33-.53 1.61-.92 2.14-.24.23-.51.27-1.05.31-1.14.09-.79 3.35-.62 3.93.11.34.35.28.51.16.16-.14.29-.81.32-1.43.05-.2.39-.28.64-.52.27-.21.13-.44.29-.64.23-.26.46-.03.65-.32.49-.41.14-1.05.54-1.32.58-.39 1.1-.2 1.62-.76.31-.36.35-1.1.8-1.23 2.36-.06 4.71 2.66 5.11 3.47 1.17 2.41-.7 6.06.57 6.76 1.61.93 1.26 2.75 1.08 3.2-.34.93-2.92 2.11-3.25 4.25-.16 2.06.91 1.63.99 1.38.08-.26.15-.6.28-.85.1-.23.42-.13.45.09.06.19.5.74 1.15-.47.41-.77 1.52-1.76 2.36-2.34.81-.58 1.01-2.39 1.15-2.81.1-.36.41-.36.45-.74.03-.4-.72-1.71-.27-2.66.21-.32.7-.54 1.08-.1.39.45-.24 1.93.46 1.96.6.02.67-.69 1.19-.65.53.1-.43 2.05.1 2.35.32.13.72-.028.89.3.15.532-.82 1.51.01 1.51 8.79-.157 12.01 6.763 11.44 8.03-.27.48-1.33-.24-1.48.25-.81 2.71 1.01 4.76 1.53 5.11.15.09.43-.04.41-.38-.09-.77-.52-1.18-.43-1.95.15-1.34 3.15-.51 3.3.51.06.39.08.7.42 1.02.43.41 1.45-.05 1.55.85.13 1.74-2.04 1.84-3.54 2.92-.717.55-.55.93.05 1.13.722.19 1.88-.01 2.46.84.823 1.183-.26 3.66-.32 4.703-.068 1.06 1.83 4.153 1.87 5.734.14.79-.407 1.214-1.077.565-.64-.676-1.32-1.72-1.82-2.5-.146-.247-.53-.26-.52.243-.01 1.37 6.47 9.8 6.635 11.19.15.73-.255 1.34-.08 2.05.06.21.32.09.35.25.04.47-.44 1.18.24 1.52.335.93 0 1.316.175 2.08.09.77.45 1.83.53 2.6-.18 2.18-1.02 3.02-1.68 3.35-.57.29-.81-.23-.76-.67.15-1.32 1.61-3.65 1.03-6.28C77.45 76.8 70.21 72 69 69.43c-.39-.97-1.78-1.08-1.86-2.22-.14-.37-.503-.26-.81-.6-.264-.3-.254-1.188-.536-1.838-.08-.205-.337-.1-.52-.3-1.03-1.36-.81-7.974-1.73-8.88-.678-.38-1.2.676-2.047.76-.642.067-1.71-1.54-2.1-1.13-.314.32-.18 1.13-.152 1.26.04.11.2.677-.02.677-.194.01-.48-.4-1.295-.73-.544-.2-1.06 0-1.31-.16-.56-.61.02-1.87-.918-2.23-.26-.1-.31-.77-.44-1.04-.13-.19-.4-.18-.52-.32-.26-.38-.438-.85-.55-1.39-.098-.37-.95.09-1.018-.49-.08-.39-.54-.52-.89-.58-.43-.05-.25-1-.627-1.16-.16-.07-.22.11-.39.03-.18-.21-.14-.42-.36-.57-.19-.13-.37.09-.5-.07-.55-.67-.12-1.78-.4-2.11-.19-.21-.51.02-.8-.23-.273-.21-.32-.56-.484-.61-.48-.01-.65-.1-.85-.34-.88-1.24-.783-2.66-1.085-3.16-.2-.34-.496-.54-.72.08-.44 1.07-.395 5.08-1.68 5.63-.99.48-1.876-1.22-2.36-1.53-.22-.12-.26.24-.417.26-.45-.18-.35-.72-.72-.93-.35-.16-.2.34-.4.3-.35-.32-.35-1.19-.66-1.35-.25-.1-.4.2-.54.07-.5-.44-.15-1.43-.76-1.74-.26-.08-.22.36-.5.24-.26-.1-.21-1.49-1.03-1.36-.12.01-.08-.18-.16-.25-.24-.03-.41.3-.66.08-.34-.46-.61-.68-.83-.85-.34-.29-.85.07-1.28-.24-1.49-.66-4.91 1.95-6.45 3.48-.56-.53-1.32.03-1.95.09-.23.05-.95.02-.39-.76 1.4-1.48 2.42-1.41 5.06-3.29 1.93-1.41 3.65-2.79 4.27-3.19.52-.27 1.33-.49 2.01.41.97 1.25 3.12 3.36 4.03 3.78 1.89.81 1.98-.63 2.21-1.13.2-.51.33-.09.32.39-.01.31.11.75.37.8.52.06.52-.33.6-.58.59-2.32 2.87-5.1 3.77-4.53.66.42 1.05.42 1.2-.38.17-1.03-.62-1.97-.83-3.04-.22-1.25-.08-2.89-.56-3.12-.28-.12-.66.15-.88.45-.29.38-.29.79-.39 1.25-.04.26-1.08.54-1.2 1.88-.01.24-.4-.248-.69 0-.58.44-.47 2.62-.66 2.75-.22.02-.48-.226-.56.09.04.353-.15 1.205-.32 1.272-.15.04-.3-.13-.5-.02-.5.41-.3.99-.78 1.55-.29.36-.5.11-.53-.21-.07-.54-.5-1.35-.88-1.738-1.11-1.15-.42-3.06-1.99-3.86-.47-.23-.49-.46-.55-.887-.02-.47-.28-.79-.52-.85-.43-.13-.5-.36-.52-.67.04-.81-.57-.85-.89-.91-.77-.07-.79-.22-.55-2.13.07-.46.07-1-.08-1.43-.4-.59-1.27-.21-1.15-1.17.09-.637 1.22-1.46 1.71-1.98.29-.33.48-1.187-.54-.98-2.29.61-4.13 4.68-4.56 5.46-1.66 3.046-3.1 4.26-4.45 4.73-.63.22-2.82.425-3.26-1.72-.23-1.13.047-2.185.56-3.95 2.22-7.71-.26-6.24.95-8.81.78-.87 1.89-.75 3.016-.89.25-.03.16-.354.1-.45-.05-.09-.31-.2-.66-.26-.344-.06-1.08-.714-1.15-1.42-.06-.774.44-1.25.77-1.59.47-.464.81-.515.82-.62-.03-.41-.9.17-.976 0-.18-.64.35-1.23.7-1.64" fill="#FFF"/>
  <path d="M24.75 14.76c-.03.28-.03.713.344 1.61-.373.053-.6.382-.927.2-1.02-.558-1.594-1.597-1.925-2.65-.214-.602-.193-1.32-.53-1.865 1.766.118 3.06 2.498 3.038 2.705" fill="#FFF"/>
  <path d="M39 15.04c.095-.03.128.035.128.073-.074 1.258-1.408 3.773-3.145 4.22-.1.022-.166.01-.2-.087-.16-.875.392-2.36 1.804-2.904.7-.272 1.03-.737 1.414-1.303m-5.84 4.94c.08.32.02.34-.25.16-.9-.95-1.68-.71-2.23-.42-.27.11-.35.1-.27-.14.84-1.28 2.36-.65 2.76.39m-4.71.17c.46.65.26 1.68-.14 2.44-.31.58-.83 1.53-1.03 1.94-.08.24-.26.26-.41.19-.15-.03.56-1.21.76-2.59.08-.57-.07-1.39.35-2.01.14-.21.35-.14.48.01m3.84.62c.34.76-.48 1.14-.95 1.23-.33.06-.58-.04-.86-.22-.15-.11-.07-.2-.19-.25-.25-.02-.19.14-.47.21-.19.02-.2-.07-.08-.26.31-.52.48-.88.99-1.08.48-.2 1.17-.39 1.58.35m-2.66 3.22c.4 1.54.11 2.13-.25 2.5-.13.12-.95.26-1.06-.8.42-.5.67-1.26.92-1.79.18-.35.29-.37.4.08M26.6 28.2c-.18.97-.58 1.46-1.26 1.61-.8.1-1.14-.782-1.04-.78.773.14 1.6-.3 2.09-.93.112-.165.232-.05.202.106M65.8 43.15c.44.14.624.595.47.853-.18.42-.557.702-.564 1.11-.01.334-.07.54-.34.63-.497.05-.786-.98-1.23-.266-.24.36-.74.11-.808-.09-.09-.32-.28-.64-.6-.66-1.04-.03-1.29-1.65-1.13-2.085.798-1.876 2.76.006 4.19.5" fill="#1D1D1B"/>
  <path d="M25.05 42.877c-.544.406-.91.92-1.212 1.48-.652.102-1.708.543-2.462.882-.278.14-1.34.22-2.296.33-.146-.02-.18-.11-.18-.22-.078-.73 4.424-2.57 6.15-2.75.158 0 .253.07 0 .26m59.41 9.31c.143.36-.246.83-.65 1.27-.4.46-2.118 1.68-3.55 1.61-.398-.06-.827-.5-.693-1.02.14-.45 1.522-.57 2.584-.94.78-.27 1.15-.43 1.76-.9.39-.29.48-.12.56-.04M72.24 79.02c.26.01.225-.08.45 0 .2.01.196.876.168 1.323-.05.28-.113.75.18.965.266.23-.347 1.06.096 1.464.244.337-.274 1.224.123 1.713.19 0 .34.056.44.217-.17 1.027.29 2.645.13 3.113-.45.706-.787.635-1.17 1.797-.58 1.123-2.21.423-1.89-.485 1.153-1.95 1.577-4.12 1.637-5.07.19-2.464-1.106-6.378-1.25-6.92-.03-.495.073-.79.463-.35.574.898.367 2.177.625 2.23M30.19 58.105l-.053.236s-1.25-1.86-1.51-2.25l-.64 7.86h-.205l-.62-7.86c-.26.39-1.514 2.25-1.514 2.25l-2.77-12.77-2.774 12.77-1.515-2.25-2.66 33.41v.04c3.55 2.35 7.68 3.58 11.95 3.58h.03c4.27 0 8.4-1.23 11.95-3.58v-.04s-2.4-30.12-2.65-33.4l-1.52 2.25-2.78-12.77-2.72 12.54" fill="#FFF"/>
  <path d="M39.962 89.494L37.286 55.79l-1.54 2.293-2.833-13-2.822 13-1.54-2.294-.66 8.15-.64-8.16-1.54 2.29-2.82-13-2.82 13-1.54-2.3-2.68 33.7v.1c3.45 2.29 7.61 3.63 12.05 3.63h.03c4.46 0 8.61-1.34 12.05-3.63v-.11z" fill="#1D1D1B"/>
  <path fill="#FFF" d="M50.664 70.182l-3.44-11.9L4.768 70.225 7.395 82.34z"/>
  <path fill="#E20613" d="M12.755 69.518l5.567-1.73-.98 10.482-3.89 1.085.663-7.123-1.67.58zm10.38 5.604c-.1 1.087-1.252 2.012-2.29 2.33-1.06.273-2.08-.03-1.978-1.126.104-1.14 1.257-2.097 2.303-2.37 1.038-.297 2.065.042 1.965 1.166m2.565-9.405l7.213-2.043-.267 3.025-3.288.9-.094 1.1 2.884-.8-.264 2.7-2.876.81-.35 3.66-3.952 1.11zm16.506-.494c-.576-.387-1.324-.64-2.213-.396-1.176.332-2.223 1.494-2.334 2.64-.11 1.142.83 1.75 2 1.42.9-.25 1.65-.823 2.34-1.605l-.49 3.952c-.65.47-2.13 1-2.83 1.197-3.09.87-5.27-.78-4.99-3.75.28-3.06 2.99-6.2 6.16-7.09.88-.25 1.77-.36 2.59-.29l-.25 3.94z"/>
  <path d="M25.208 79.172c-.04.417-.335.82-.657.94-.3.075-.52-.204-.49-.625.02-.427.32-.83.63-.894.33-.127.56.162.53.58m1.68-.485c-.03.425-.32.83-.64.938-.32.104-.53-.19-.5-.594.04-.42.31-.823.64-.923.32-.11.55.16.51.57M28 83.1c-.187 2.22-1.597 3.93-3.2 4.37-1.605.45-2.798-.54-2.61-2.76.18-2.17 1.603-3.94 3.203-4.39 1.585-.45 2.776.61 2.602 2.77m-3.893 1.11c-.07.8.3 1.22.866 1.076.574-.16 1.03-.824 1.098-1.596.06-.76-.26-1.265-.86-1.087-.597.166-1.03.89-1.1 1.607m4.846-4.77l1.902-.512-.39 4.68 1.594-.443-.183 2.227-3.502.953zm3.995-1.116l1.83-.486 1.39 3.356h.047c-.02-.575-.056-1.14-.01-1.74l.18-2.065 1.82-.5-.574 6.89-1.823.5-1.365-3.15-.074.01c.022.46.042.89 0 1.36l-.187 2.25-1.8.49.57-6.92z" fill="#FFF"/>
  <path d="M17.536 82.622l1.848-.516-.303 3.014.05-.013c.08-.295.21-.576.34-.86l1.1-2.473 2.08-.573-1.92 3.82 1.53 3.06-2.2.62-.74-1.85c-.09-.22-.23-.43-.23-.7l-.05.02-.2 2.89-1.85.51.58-6.91z" fill="#FFF"/>
</svg>