<svg xmlns="http://www.w3.org/2000/svg" version="1" viewBox="-9.056 -9.056 584.116 319.986">
  <path d="M565.866 179.836c-1.996-4.663-85.957-29.82-101.357-33.92-.92-.242-2.77-.85-2.77-.85s-.1-1.635-.03-2.58c.14-1.866.06-4.688.1-6.556 0 0 9.32.522 11.35-.264 5.74-2.24 7.93-9.94 5.92-15.38-1.05-2.842-5.55-4.637-6.47-7.016-.88-2.264-1.46-4.03-3.85-5.246-3.88-1.963-13.69-3.684-18-3.308-3.64.33-4.35 4.53-6.6 5.5-9.02 3.88-13.02 2.057-12.94 15.49l.18 1.223c-3.54-1.71-8.54-4.19-12.16-5.73V0H146.72v121.203c-3.624 1.54-8.62 4.02-12.16 5.726l.188-1.23c.084-13.44-3.92-11.61-12.935-15.49-2.246-.97-2.954-5.17-6.595-5.5-4.31-.38-14.12 1.34-17.99 3.31-2.39 1.21-2.97 2.98-3.85 5.24-.923 2.38-5.415 4.17-6.467 7.01-2.01 5.44.19 13.14 5.93 15.38 2.03.78 11.35.26 11.35.26.04 1.86-.04 4.69.1 6.55.07.94-.03 2.58-.03 2.58s-1.84.61-2.76.85C86.1 150.01 2.14 175.16.14 179.83c-.524 1.016.606 1.288.606 1.288 2.074.21 54.927-11.956 64.935-13.795 11.37-2.095 20.27-3.926 34.55-6.06l-.07.81c-.02 4.63.98 4.6 4.82 5.91l-.13.864c-4.8.975-19.98 3.27-23.3 5.494-3.65 2.44-12.2-.58-18.19 7.57-1.58 2.14-1.6 11-.06 13.11 2.52 3.47 5.14 1.96 8.6 2.44 2.1.32 3.14 2.35 4.87 3.31 1.71.93 4.1.57 5.99.62 4.53.1 5.98-3.96 9.16-6.16 1.54-1.06 3.36-.33 5.06-.78 2.56-.69 4.22-3.61 6.48-4.77 1.31-.69 4.42-.47 5.67.31 8.06 4.94 29.4-.14 37.61-5.19v28.09s-.64 8.74 4.63 17.79c25.73 44.18 80.38 71.19 131.65 71.21 51.28-.02 105.93-27.03 131.65-71.21 5.28-9.05 4.63-17.79 4.63-17.79V184.8c8.21 5.05 29.55 10.13 37.61 5.187 1.25-.78 4.36-.995 5.67-.31 2.25 1.16 3.92 4.078 6.48 4.77 1.7.445 3.53-.28 5.07.78 3.18 2.2 4.63 6.267 9.16 6.168 1.89-.04 4.28.316 5.99-.614 1.73-.96 2.78-2.99 4.87-3.3 3.47-.48 6.08 1.04 8.61-2.43 1.55-2.11 1.52-10.97-.06-13.11-5.98-8.14-14.54-5.13-18.19-7.57-3.32-2.22-18.49-4.52-23.3-5.49l-.13-.86c3.85-1.31 4.85-1.28 4.82-5.91l-.07-.81c14.29 2.13 23.18 3.97 34.55 6.06 10.01 1.84 62.86 14.01 64.94 13.79 0 0 1.13-.27.61-1.28z" id="path2760" fill="#fff"/>
  <path d="M277.91 42.825c0-7.867-6.192-14.24-13.83-14.24-.236 0-1.302.007-1.53.018h-16.09v48.2h9.767V36.917l5.825-.048c3.605 0 6.34 2.82 6.34 6.3s-2.92 6.31-6.524 6.31l-2.27.05v11.48l9.757 15.79h11.506l-13.48-20.15c6.04-1.52 10.54-7.14 10.54-13.84" id="path3041" fill="#da0034"/>
  <path d="M398.1 207.275c-.386 7.024-2.23 10.973-5.428 15.973-24.313 34.97-64.12 57.832-109.67 57.832-45.548 0-85.355-22.86-109.668-57.832-3.197-5-5.042-8.948-5.43-15.973V188.62H154.75v15.823c0 14.856 1.748 18.362 5.25 24.406 26.796 39.54 71.63 65.5 123.004 65.5 51.373 0 96.208-25.97 123.002-65.51 3.505-6.05 5.25-9.55 5.25-24.41v-15.82H398.1v18.65zm7.568-7.067v-9.155h1.674v10.715c-.05 8.697-.114 17.46-4.735 24.276-5.952 9.056-13.44 17.94-21.688 25.622-27.48 24.972-60.4 38.383-97.92 38.568-37.52-.185-70.44-13.597-97.92-38.568-8.25-7.683-15.74-16.566-21.69-25.622-4.62-6.815-4.69-15.58-4.74-24.276v-10.715h1.67v9.155c.23 8.813-.4 18.054 4.5 24.978 6.35 9.68 14.25 18.798 23.24 26.946 26.81 23.5 58.49 36.166 94.92 36.42 36.42-.254 68.1-12.92 94.92-36.42 8.99-8.148 16.89-17.268 23.24-26.946 4.9-6.924 4.26-16.165 4.5-24.978z" id="path2762" fill="#001b46"/>
  <path d="M283.002 8.3H154.748v109.643l13.154-6.23v-90.23h230.2v90.23l13.154 6.23V8.3H283.002zm124.34 105.344v-.01l-1.674-.788v-98.95H160.335v98.95l-1.674.788v.01h-.02l.02-.01V12.222h248.68v101.412l.03.01h-.02z" id="path2764" fill="#001b46"/>
  <path d="M315.392 50.446c2.515-2.47 4.048-5.774 4.048-9.41 0-3.294-1.202-6.317-3.307-8.69-2.186-2.54-6.057-3.67-11.3-3.67h-15.68v48.16h20.252c7.768-.135 14.017-6.347 14.017-13.923 0-5.51-1.844-9.437-8.03-12.467m-7.68 17.95h-8.78V36.992h6.127c2.68 0 4.86 2.297 4.86 5.132 0 2.83-2.18 5.128-4.87 5.128h-3.19v8.708h5.84c3.26 0 5.72 2.77 5.72 6.205-.12 3.546-2.18 5.994-5.72 6.23" id="path3043" fill="#da0034"/>
  <path d="M494.45 184.27c3.12.846 2.197 4.45 2.87 6.955-.122.17-.365.542-.616.492-1.16-.492-3.04-.136-3.905-1.223-.37-1.287-.85-2.203-.98-3.662.3-1.102 1.46-2.44 2.62-2.56z" id="path2766" fill="#da0034"/>
  <path d="M465.71 130.388c-3.797-.69-7.76-1.333-11.472-2.388-1.402-1.874-4.113-1.31-6.11-1.95-1.637.625 4.25 5.282 4.95 6.227.752.998 2.06 3.97 2.26 5.178.438 2.647-1.136 5.852-3.54 7.032-2.167 1.048-4.056.46-6.1-.307-1.74-.672-7.07-2.096-7.576-3.97.493-1.392 9.456.222 11.237-.98.85-.572-.43-1.92-.68-2.565-1.19-2.973-10.87-9.86-11.54-12.554-1.43-5.76 8.31-6.92 11.96-7.7.76-.16 5.31-1.03 4.63-2.26-.07-.13-1.79-1.68-2.19-2.24l.43-.5c1.39-.09 11.53 2.32 13.24 2.94.43.16.67.58.85.99-1.03 1.63.54 3.15.18 4.81-.23 1.16-4.57.87-2.51 3l3.3.43c1.47-.63-.43-2.14 1.27-2.49 1.36.5 3.52.94 4.22 2.38.6 1.25.6 3.41-.2 4.57-1.43 2.15-4.21 2.83-6.64 2.39z" id="path2768" fill="#da0034"/>
  <path d="M486.21 182.07c.208-.64 4.235.07 4.457.85.322 1.158-3.42 1.708-4.456-.85z" id="path2770" fill="#da0034"/>
  <path d="M310.72 167.792c2.775-1.925 4.37-4.907 6.565-7.367.816-.916 1.946-1.56 2.71-2.404.487-.54 3.613-7.25 4.135-8.41l.68-.36c5.687.31 11.38.38 17.067.53 2.467.07 5.658.59 8.076.27.357-.06.45-.34.357-.67-5.38-1.82-15.2 1.08-18.92-3.9-.486-.68-.408-1.85-1.33-2.08-.973.49-1.996.95-3.12.69l-.486-.68c.852-3.53 1.78-7.27 4.09-10.19 3.656-4.61 12.57-14.36 17.633-16.89 2.275-1.14 5.08-5.15 5.98-3.73-.043.49.236.93.558 1.28 2.217.46 2.146-3.74 5.122-5.54 2.997-1.81 6.924-2.76 10.372-2.02 4.23.92 8.6 3.17 12.44 5.13 8.47 4.29 16.93 8.58 25.43 12.81 4.01 1.99 8.04 4.21 12.16 5.99.96.42 2.36.58 2.81 1.72.58 1.52-.72 3.76-1.97 4.59-2.61 1.74-6.65-.41-9.16-1.4l-.42.24c1.84 2.33 3.94 2.38 6.59 2.93 2.09.44 4.19 1.56 6.29 2.15 2.85.8 5.65 1.7 8.47 2.6 1.18.39 3.12.66 2.8 2.39.4.96 1.48.83 2.31.97 9.25 1.7 18.5 4.02 27.72 5.99 5.73 1.24 11.46 2.63 17.14 4.09 18.97 4.94 37.97 9.66 56.71 15.46 1.83.57 11.61 3.41 12.42 4.2-1.18.27-30.77-7.79-35.15-8.85-27.61-6.72-55.62-11.69-83.6-16.52-26.52-4.59-53.42-8.16-80.12-11.61-4.64-.59-9.32-1.27-13.97-1.71-2.99-.27-3.5.74-5.56 2.68.02 1.33 5.54.98 6.78 1.11.2-.16.18-.41.06-.61-.88-.48-1.8-.85-2.45-1.66l.31-.67c9.72.83 19.51 2.63 29.16 4.11 14.76 2.27 29.59 4.48 44.29 7.12 9.87 1.79 19.62 4.28 29.47 6.16v.43c-17.82-1.89-35.4-6.17-53.16-8.65l-.07.47c4.31 1.33 8.76 2.02 13.13 3.08 20.11 4.77 40.4 8.77 60.53 13.59-3.56-.5-7.13-.94-10.68-1.4-1.35.83.34 2.27-.37 3.96-1.21 2.91-3.54.16-3.79 1.64-.1.57.67 2.46 1.27 2.81 8.125.95 16.065 3.25 24.17 4.27l.13.66-5.06.14-.56.42c-.03 1.25 1.82.82 2.624.97 2.86.55 5.7 1.245 8.545 1.78 6.32 1.18 5.46 6.02 9.89 7.133.46.114.79.4 1.1.73.09 1.79-2.35-.82-3.04.87.46 1.804 1.48 3.52.72 5.424-.26.685-.7 1.43-1.463 1.644-3.81 1.077-5.3-5.72-7.69-7.07-1.95-1.11-4.33 1.35-6.83-.07-1.435-.8-2.87-1.59-4.27-2.44-1.52-.91-3.43-4.402-5.63-3.97-1.71.348-2.31 2.95-5.12 3.18-4.52.37-9.29.51-13.79-.13-7.36-1.04-19.79-4.65-25.26-9.76.7-2.073 6.91-.23 8.42 0-1.4-2.96.49-4.28-1.04-5.01l-6.34-.61c-1.87-.16-3.79-.71-5.7-.92-1.91-.2-3.95-.09-5.83-.36-1.17-.17-3.07-.53-3.66-1.66.16-.91.83-2.1.18-2.97-.81-1.09-2.98-1.33-4.21-1.78-1.64-.61-2.996-1.83-4.69-2.312-1.93.597-.24 3.59-2.51 4.21-2.09.59-7.18-2.12-8.54-.415 0 .91.62 2.29-.237 2.97-1.37 1.11-3.07 1.32-4.46 2.76-1.767 1.82-4.25 5.25-3.47 7.98.81 2.82 7.42 5.98 9.89 4.4 1.62-1.034 1.48-3.39 3.77-2.69 2.68.83 5.49 1.01 8.18 1.77 2.24.64 5.36 1.1 7.38 2.09.31.13.85.66.5 1.03-1.05 1.14-11.09-.09-13.06-.31-.91-.09-1.72-.14-2.37.62-1.23 1.41 1.54 1.81.73 3.1-1.13 1.77-4.07 2.42-5.98 1.95-3.46-.85-7.14-2.32-10.41-3.75-1.046-.47-2.19-1.2-3.25-1.56-2.58-.84-5.42.54-7.2-2.39-1.6-2.63-3.74-5.59-3.78-8.77-.03-2.61 1.63-4.23 2.56-6.48.34-.81 1.98-4.95 1.95-5.55-.03-.4-1.747-4.4-2.13-4.45l-11.29-1.41c-.22-.03-.876.46-.926.68-.46 2.29 2.99 4.95 4.22 6.52.46.58 1.41 2.15 1.16 2.93-.43 1.29-2.28-.69-2.51.783-.16 1.03 2.2 2.67 1.956 4.57-.21 1.59-.32 3.93-1.96 4.7-2.72 1.3-2.97-.936-4.21-.98-.5-.005-1.25.28-1.83.3-1.7.025-3.28-.526-4.89-.96-3.2-.88-12.9-5.42-15.49-5.07-3.04.43-4.74 5.66-14.04 5.92l-.5-.73c3.17-3.056 5.496-1.02 8.786-7.68.89-1.78 2.4-3.788 3.793-5.19.06-.28-.07-.616-.37-.67-5.63 2-6.48 10.81-14.89 10.124l-.43-.488c.38-.95 2.05-1.26 2.88-1.836zm73.897-43.763c-.65-.81-1.517-1.35-2.39-1.88-1.136.12-1.794.37-2.932 0-2.54-.88-12.667-3.54-14.877-3.12-.144.69.937.78 1.395.91 6.05 1.66 12.39 3.12 18.563 4.33l.24-.25zm-40.4 6.41c11.653 1.7 35.823 5.13 35.823 5.13l-1.652-.76-34.893-5.69c-.357-.06-.73.06-1.022.24-.258.85 1.25 1 1.745 1.06zm86.215 47.19l11.896 3.04c.25 0 .672-.08.865-.4-.058-.48-.586-1.18-1.08-1.37-3.048-.85-6.038-1.1-9.028-1.7-1.83-.39-2.59-.35-3.984-.48l1.34.88zm-64.005 1.98c.3-.06.665-.23.737-.6-.68-2.57-2.075-6.1-.122-8.68l2.804-6.05c-.236-.84-1.16-.98-1.895-1.22-.54-.05-1.09.48-1.22 1.04l-3.29 7.75c-.73 3.05 1.05 5.79 2.99 7.74zm-31.08-13.04c.945.12 2.268.44 3.012-.14.45-.88-.26-1.76-.63-2.57-.88-1.06-2.19-1.38-3.51-1.38-.32.25-.4.56-.4.87.14 1.26.39 2.58 1.51 3.21z" id="path2772" fill="#da0034"/>
  <path d="M388.45 175.6c-1.086.116-1.222-1.214-2.195-1.465-1.824 1.34-1.696 3.663-3.534 4.957-.98.165-2.32-.43-3.42-.672-.72-.387-1.46-1.116-1.46-1.917.37-1.452 1.23-2.732 1.53-4.257.79-2.388 3.67-.794 5.42-.794 1.96.487 3.67-.3 5.37-.68.5.08.8.438 1.11.738.37.735.24 1.587-.07 2.26-.54 1.045-1.64 1.704-2.74 1.83z" id="path2774" fill="#da0034"/>
  <path d="M341.54 117.663c-4.634 4.017-14.22 13.283-16.2 18.884-4.764 13.448-3.884 16.308-14.278 27.096-3.604 3.733-6.094 1.265-5.8 7.567l1.71 1.717 1.4.235v2.132l1.717 1.773c9.43.422 8.76-1.51 16.22-5.493 5.18 1.438 10 3.984 15.24 5.23-12.99 24.133-42.36 41.52-69.97 34.86 4.1-.084 11.65-.062 15.82-.37 5.66-.415 14.65-3.047 20.51-7.196-.52-.144-10.45 3.963-20.42 3.963-25.62 0-49.89-7.84-62.74-31.3 3-.85 12.87-5.32 14.9-5.18 2.1.15 5.25 6.36 15.96 5.5 1.73-.12 2.73-2.58 2.16-4.02 1.37.23 2.65-.58 3.11-1.89.28-.81.39-2.28 0-3.04-.5-.97-2.53-2.03-3.43-2.57-3.79-2.2-5.29-6.73-8.91-9.15-9.09-18.77-8.16-27.3-26.83-41.06 24.29-53.89 97.19-48.64 122.27.35l-2.37 1.9c.2-.03-.4-.19-.12.1" id="path2778" fill="#ffd401"/>
  <path d="M242.75 112.72c0-22.17 17.983-40.16 40.158-40.16 22.182 0 40.15 17.99 40.15 40.16 0 22.18-17.97 40.164-40.15 40.164-22.174 0-40.157-17.986-40.157-40.163" id="path2780" fill="#fff"/>
  <path d="M252.737 134.38c11.702 8.462 28.204 9.806 41.116 2.863 14.012-7.26 22.49-22.188 21.194-38.293-.244-2.332-.61-4.614-1.225-6.82 3.963 5.955 6.23 13 6.23 20.59 0 20.514-16.63 37.146-37.145 37.146-12.423 0-23.44-6.102-30.17-15.487" id="path2782" fill="#d9d9d9"/>
  <path d="M271.964 121.994c-8.69-2.088-14.62-4.19-14.62-4.19-.93-8.97-.145-16.772-.145-16.772 3.77-1.963 13.95-6.512 13.95-6.512 4.85 5.494 9.47 12.868 9.47 12.868-2.23 4.345-8.66 14.606-8.66 14.606m-14.33-36.498c-.87 1.42-3.42 5.71-5.72 10.826-2.17 2.714-4.07 5.476-4.89 6.685 1.85-6.81 5.58-12.855 10.6-17.51m38.98 21.597s3.24-6.78 7.16-12.28c0 0 7.52 3.536 11.06 6.43 0 0 1.31 4.04.43 15.907 0 0-4.49 2.61-11 4.2 0 0-4.43-7.45-7.67-14.25m-16.86 27.85l16.06-.43 3.1 8.75c-6.08 3.62-13.39 5.5-13.39 5.5-7.66-1.67-12.09-5-12.09-5l6.3-8.81zm3.14-59.36c4.89 0 9.57.93 13.86 2.66-.15.7-.67 2.65-2.18 5.15-7.74-1.02-16.35-.23-16.35-.23l-7.16-5.67c3.72-1.23 7.69-1.9 11.82-1.9m-23.79 65.65c-6.17-5.13-10.63-12.23-12.45-20.33 1.99 2.07 5.83 6.01 5.83 6.01 2.32 4.79 8.09 13.1 8.09 13.1-.42.47-1.07.95-1.48 1.23" id="path2784" fill="#001b46"/>
  <path d="M71.552 184.27c-3.12.846-2.196 4.45-2.868 6.955.12.17.364.542.615.492 1.15-.492 3.04-.136 3.9-1.223.36-1.287.84-2.203.97-3.662-.3-1.102-1.47-2.44-2.63-2.56z" id="path2786" fill="#da0034"/>
  <path d="M100.293 130.388c3.798-.69 7.76-1.333 11.473-2.388 1.402-1.874 4.113-1.31 6.11-1.95 1.637.625-4.25 5.282-4.95 6.227-.752.998-2.06 3.97-2.26 5.178-.438 2.647 1.136 5.852 3.54 7.032 2.167 1.048 4.056.46 6.1-.307 1.74-.672 7.07-2.096 7.576-3.97-.493-1.392-9.456.222-11.237-.98-.85-.572.422-1.92.673-2.565 1.187-2.973 10.865-9.86 11.537-12.554 1.424-5.76-8.318-6.92-11.96-7.7-.764-.16-5.313-1.03-4.634-2.26.08-.13 1.79-1.68 2.19-2.24l-.43-.5c-1.39-.09-11.53 2.32-13.24 2.94-.43.16-.67.58-.85.99 1.03 1.63-.54 3.15-.18 4.81.23 1.16 4.57.87 2.51 3l-3.3.43c-1.46-.63.43-2.14-1.27-2.49-1.36.5-3.52.94-4.22 2.38-.61 1.25-.6 3.41.2 4.57 1.43 2.15 4.21 2.83 6.65 2.39z" id="path2788" fill="#da0034"/>
  <path d="M79.792 182.07c-.207-.64-4.234.07-4.456.85-.322 1.158 3.42 1.708 4.456-.85z" id="path2790" fill="#da0034"/>
  <path d="M255.284 167.792c-2.776-1.925-4.37-4.907-6.566-7.367-.816-.916-1.946-1.56-2.71-2.404-.487-.54-3.613-7.25-4.135-8.41l-.68-.36c-5.687.31-11.38.38-17.067.53-2.467.07-5.658.59-8.076.27-.357-.06-.45-.34-.357-.67 5.38-1.82 15.2 1.08 18.92-3.9.486-.68.408-1.85 1.33-2.08.973.49 1.996.95 3.12.69l.486-.68c-.86-3.53-1.79-7.27-4.1-10.19-3.66-4.61-12.57-14.36-17.63-16.89-2.28-1.14-5.08-5.15-5.98-3.73.04.49-.24.93-.56 1.28-2.22.46-2.15-3.74-5.12-5.54-3-1.81-6.93-2.76-10.37-2.02-4.24.92-8.61 3.17-12.45 5.13-8.47 4.29-16.94 8.58-25.44 12.81-4.02 1.99-8.04 4.21-12.16 5.99-.97.42-2.36.58-2.81 1.72-.58 1.52.71 3.76 1.96 4.59 2.61 1.74 6.64-.41 9.15-1.4l.41.24c-1.85 2.33-3.95 2.38-6.59 2.93-2.1.44-4.19 1.56-6.3 2.15-2.86.8-5.65 1.7-8.47 2.6-1.18.39-3.13.66-2.81 2.39-.4.96-1.48.83-2.32.97-9.25 1.7-18.5 4.02-27.72 5.99-5.73 1.24-11.46 2.63-17.14 4.09-18.98 4.94-37.97 9.66-56.71 15.46-1.84.57-11.61 3.41-12.43 4.2 1.18.27 30.77-7.79 35.15-8.85 27.61-6.72 55.61-11.69 83.6-16.52 26.52-4.59 53.41-8.16 80.12-11.61 4.64-.59 9.32-1.27 13.97-1.71 2.99-.27 3.5.74 5.56 2.68-.02 1.33-5.54.98-6.78 1.11-.2-.16-.19-.41-.06-.61.88-.48 1.8-.85 2.45-1.66l-.32-.67c-9.72.83-19.51 2.63-29.17 4.11-14.76 2.27-29.59 4.48-44.3 7.12-9.87 1.79-19.62 4.28-29.48 6.16v.43c17.81-1.89 35.4-6.17 53.15-8.65l.06.47c-4.31 1.33-8.77 2.02-13.13 3.08-20.12 4.77-40.41 8.77-60.54 13.59 3.56-.5 7.12-.94 10.68-1.4 1.35.83-.34 2.27.36 3.96 1.21 2.91 3.54.16 3.78 1.64.1.57-.67 2.46-1.27 2.81-8.13.95-16.07 3.25-24.17 4.27l-.13.66 5.06.14.56.42c.03 1.25-1.82.82-2.62.97-2.86.55-5.7 1.245-8.55 1.78-6.32 1.18-5.46 6.02-9.89 7.133-.46.114-.79.4-1.1.73-.08 1.79 2.35-.82 3.05.87-.46 1.804-1.48 3.52-.72 5.424.26.685.7 1.43 1.46 1.644 3.8 1.077 5.3-5.72 7.69-7.07 1.94-1.11 4.32 1.35 6.83-.07 1.43-.8 2.87-1.59 4.26-2.44 1.51-.91 3.43-4.402 5.63-3.97 1.71.348 2.31 2.95 5.12 3.18 4.52.37 9.29.51 13.79-.13 7.36-1.04 19.79-4.65 25.25-9.76-.7-2.073-6.91-.23-8.42 0 1.4-2.96-.5-4.28 1.03-5.01l6.34-.61c1.87-.16 3.79-.71 5.7-.92 1.92-.2 3.96-.09 5.84-.36 1.16-.17 3.07-.53 3.66-1.66-.17-.91-.84-2.1-.19-2.97.81-1.09 2.98-1.33 4.21-1.78 1.65-.61 3-1.83 4.69-2.312 1.93.597.24 3.59 2.51 4.21 2.09.59 7.18-2.12 8.54-.415 0 .91-.62 2.29.24 2.97 1.38 1.11 3.07 1.32 4.47 2.76 1.76 1.82 4.25 5.25 3.47 7.98-.81 2.82-7.42 5.98-9.89 4.4-1.63-1.034-1.48-3.39-3.78-2.69-2.68.83-5.48 1.01-8.17 1.77-2.24.64-5.36 1.1-7.38 2.09-.3.13-.85.66-.5 1.03 1.05 1.14 11.092-.09 13.06-.31.92-.09 1.73-.14 2.38.62 1.23 1.41-1.54 1.81-.73 3.1 1.13 1.77 4.072 2.42 5.982 1.95 3.46-.85 7.15-2.32 10.42-3.75 1.044-.47 2.19-1.2 3.247-1.56 2.59-.84 5.43.54 7.21-2.39 1.61-2.63 3.74-5.59 3.79-8.77.02-2.61-1.636-4.23-2.566-6.48-.348-.81-1.98-4.95-1.958-5.55.022-.4 1.74-4.4 2.13-4.45l11.283-1.41c.22-.03.88.46.93.68.46 2.29-2.99 4.95-4.22 6.52-.46.58-1.41 2.15-1.16 2.93.43 1.29 2.28-.69 2.51.783.16 1.03-2.2 2.67-1.95 4.57.2 1.59.32 3.93 1.95 4.7 2.72 1.3 2.97-.936 4.2-.98.5-.005 1.25.28 1.83.3 1.695.025 3.283-.526 4.885-.96 3.21-.88 12.91-5.42 15.5-5.07 3.04.43 4.734 5.66 14.04 5.92l.49-.73c-3.17-3.056-5.49-1.02-8.78-7.68-.89-1.78-2.4-3.788-3.795-5.19-.05-.28.07-.616.38-.67 5.62 2 6.48 10.81 14.88 10.124l.43-.488c-.382-.95-2.05-1.26-2.88-1.836zm-73.898-43.763c.65-.81 1.517-1.35 2.39-1.88 1.136.12 1.794.37 2.932 0 2.54-.88 12.667-3.54 14.877-3.12.144.69-.937.78-1.395.91-6.05 1.66-12.39 3.12-18.563 4.33l-.24-.25zm40.4 6.41c-11.652 1.7-35.822 5.13-35.822 5.13l1.652-.76 34.893-5.69c.35-.06.72.06 1.02.24.26.85-1.25 1-1.75 1.06zm-86.216 47.2l-11.895 3.04c-.25 0-.672-.08-.865-.4.058-.48.586-1.18 1.08-1.37 3.048-.85 6.038-1.1 9.028-1.7 1.83-.39 2.59-.35 3.984-.48l-1.33.88zm64.006 1.98c-.3-.05-.665-.23-.737-.6.68-2.57 2.07-6.1.12-8.67l-2.81-6.04c.23-.84 1.16-.97 1.89-1.22.54-.05 1.09.48 1.22 1.04l3.29 7.75c.73 3.05-1.05 5.79-2.99 7.74zm31.08-13.04c-.945.12-2.268.44-3.012-.14-.45-.88.25-1.76.63-2.57.873-1.06 2.19-1.38 3.505-1.38.31.25.39.56.39.87-.15 1.26-.4 2.58-1.52 3.21z" id="path2792" fill="#da0034"/>
  <path d="M177.552 175.6c1.087.116 1.223-1.214 2.196-1.465 1.824 1.34 1.696 3.663 3.534 4.957.98.165 2.325-.43 3.427-.672.72-.387 1.45-1.116 1.45-1.917-.37-1.452-1.23-2.732-1.53-4.257-.79-2.388-3.67-.794-5.42-.794-1.96.487-3.67-.3-5.37-.68-.5.08-.8.438-1.11.738-.37.735-.24 1.587.07 2.26.54 1.045 1.64 1.704 2.74 1.83z" id="path2794" fill="#da0034"/>
  <path d="M247.652 90.482l-.416-.24c-7.697 3.244-17.174 14.042-20.45 21.66 3.176-4.304 6.788-8.323 10.88-11.778 2.374-2.04 5.443-3.452 7.174-6.17.608-.923 2.174-2.518 2.812-3.472" id="path2796" fill="#fff"/>
  <path id="polygon3075" fill="#001b46" d="M223.16 199.04l3.505 3.553-30.753 30.285 3.502 3.553 7.11-7 3.5 3.56-10.67 10.51-10.498-10.67 34.303-33.78z"/>
  <path d="M248.747 224.9l-8.64-4.992-8.3 14.367 6.48 3.742-2.49 4.32-6.482-3.745-8.294 14.366 8.65 4.992-2.49 4.32-8.64-4.99c-2.39-1.384-3.21-4.42-1.83-6.818l19.1-33.05c1.38-2.396 4.42-3.207 6.82-1.824l8.64 4.99-2.5 4.322z" id="path3077" fill="#001b46"/>
  <path id="rect3079" fill="#001b46" d="M251.28 270.95l-4.803-1.346 12.994-46.36 4.81 1.346z"/>
  <path d="M274.93 226.725l9.967.45c2.762.12 4.885 2.444 4.76 5.21l-.745 16.57c-.122 2.76-2.448 4.884-5.21 4.76l-4.983-.226-.97 21.55-4.99-.23 2.16-48.1zm4.014 21.784l4.984.22.744-16.57-4.984-.23-.744 16.57z" id="path3081" fill="#001b46"/>
  <path id="polygon3083" fill="#001b46" d="M297.756 225.685l14.348-4.272 1.423 4.785 1.456 39.387 4.653-1.387-2.85-9.562 4.785-1.427 4.27 14.35-14.34 4.27-1.42-4.79-1.45-39.39-4.65 1.38 2.85 9.57-4.78 1.42-4.27-14.35z"/>
  <path id="rect3085" fill="#001b46" d="M349.926 255.743l-4.284 2.56-24.696-41.332 4.284-2.56z"/>
  <path d="M337.526 214.45c-2.993-2.825-3.133-7.588-.31-10.582 2.82-2.993 7.588-3.133 10.58-.31l3.975 3.746-3.42 3.63-5.49-5.182-3.42 3.63 27.76 26.188 3.43-3.635-12.07-11.38-1.47 1.57-3.63-3.425 4.9-5.197 14.18 13.37c2.99 2.82 3.13 7.588.31 10.58-2.82 2.995-7.59 3.135-10.58.31l-24.72-23.316z" id="path3087" fill="#001b46"/>
</svg>