<svg xmlns="http://www.w3.org/2000/svg" xmlns:xlink="http://www.w3.org/1999/xlink" viewBox="0 0 2400 1889">
  <defs>
    <path id="path-1" d="M0 .433h2399.146V1888.65H0"/>
  </defs>
  <g id="Page-1" fill="none" fill-rule="evenodd">
    <g id="Bayer04-Emblem_2400x1889">
      <g id="Group-3">
        <mask id="mask-2" fill="#fff">
          <use xlink:href="#path-1"/>
        </mask>
        <path d="M687.395 104.068c12.7-13.21 41.015-40.82 93.218-39.064 32.702-15.086 70.095-9.163 84.01-.983 0 0 23.543-.56 38.723 6.75 93.145-31.22 192.783-48.12 296.226-48.12 103.44 0 203.084 16.9 296.23 48.12 15.18-7.31 38.725-6.74 38.725-6.74 13.91-8.18 51.305-14.1 84.01.99 52.2-1.75 80.512 25.86 93.217 39.07 7.21-20.18 19.786-37.16 49.327-47.25 10.53-54.7 81.73-79.4 182.07-28.92 44.78-40.58 110.48 2.66 131.99 61.34 33.05-8.33 85.45 22.43 81.95 121.01 33.49 1.76 46.51 37 37 94.09 19.92-4.22 117.72-22.42 187.81 66.64 33.43 42.49 14.02 96.77-21.54 123.26-2.37 6.63-17.25 65.94-62.13 90.11-2.67 30.07 49.42 94.35 69 136.62 55.1 118.94 27.72 320.91-176.44 355.47 9.06 8.48 29.78 36.91 36.58 60.54 8.79 30.55 2.16 60.04-13.21 85.36-16.85 27.73-79.85 67.09-95.5 86.87 29.18 17.3 62.37 52.66 47.52 119.36l-58.01 260.87c-9.51 42.5-37.84 78.47-84.06 87.78-23.44 4.73-47.91-.22-62.67-4.13-101.46-26.86-174.89-6.01-287.36 30.42-58.62 19-122.45 40.03-198.21 56.43-77.52 16.78-167.28 28.75-276.25 28.75s-198.72-11.97-276.24-28.75c-75.76-16.4-139.59-37.43-198.21-56.43-112.47-36.43-185.89-57.28-287.36-30.42-14.76 3.91-39.22 8.86-62.67 4.13-46.22-9.31-74.55-45.28-84.06-87.78l-58-260.87c-14.85-66.7 18.33-102.06 47.52-119.36-15.66-19.78-78.66-59.14-95.51-86.87-15.38-25.31-22-54.8-13.22-85.35 6.8-23.62 27.52-52.06 36.58-60.53-204.2-34.6-231.58-236.57-176.49-355.5 19.59-42.28 71.68-106.56 69.01-136.63-44.89-24.16-59.77-83.47-62.14-90.1C3.27 467.77-16.14 413.48 17.29 371c70.09-89.06 167.88-70.86 187.8-66.64-9.5-57.09 3.51-92.33 37-94.09-3.51-98.57 48.9-129.34 81.94-121.01C345.53 30.55 411.22-12.69 456 27.9 556.34-22.59 627.54 2.118 638.068 56.82c29.538 10.086 42.116 27.066 49.328 47.253" id="Fill-1" fill="#FEFEFE" mask="url(#mask-2)"/>
      </g>
      <path d="M941.162 416.078l-6.81-4.124 1.716-7.772c4.543-20.58 1.735-38.913-29.962-39.944l-7.84-.255-24.028-75.432 6.62-4.69c21.757-15.43 16.716-34.83-12.782-45.45l-7.347-2.64v-7.81c0-12.54 7.57-19.51 12.94-24.4 1.3-1.18 2.69-2.42 4.13-3.78 1.29-1.21 2.63-2.53 3.98-4.01 2.57-2.82 5.16-6.21 7.56-10.67l1.93-3.59 3.79-1.49c94.3-37.04 197-57.39 304.49-57.39 107.49 0 210.19 20.35 304.49 57.4l3.79 1.49 1.93 3.59c2.39 4.46 4.98 7.85 7.56 10.67 1.35 1.48 2.69 2.79 3.98 4.01 1.44 1.36 2.83 2.6 4.14 3.78 5.37 4.9 12.94 11.86 12.94 24.41v7.81l-7.35 2.64c-29.5 10.62-34.54 30.02-12.78 45.45l6.62 4.7-24.03 75.44-7.85.26c-31.7 1.03-34.5 19.36-29.96 39.94l1.72 7.77-6.81 4.13c-9.5 5.75-17.85 28.63-12.33 45.3l8.22 24.84-23.58-11.34c-69.81-33.56-148.06-52.37-230.73-52.37-82.67 0-160.92 18.81-230.72 52.37l-23.58 11.34 8.22-24.83c5.52-16.67-2.83-39.54-12.33-45.3m2.84 1346.07c-72.22-15.62-133.02-35.81-188.9-53.91-109.38-35.43-205.16-65-330.98-35.33-25.68 6.37-34.57 6.19-40.29-19.85l-52.17-234.84c-4.76-21.86 1.65-26.42 22.74-31.14 155.4-33.35 283.54-10.41 412.48 22.47 67.54 17.22 134.58 36.92 204.81 52.32 71.47 15.68 146.19 26.93 227.87 26.93 81.69 0 156.4-11.25 227.87-26.93 70.23-15.41 137.27-35.1 204.81-52.32 128.94-32.88 257.08-55.82 412.48-22.47 21.09 4.73 27.5 9.29 22.74 31.15l-52.17 234.84c-5.73 26.09-14.64 26.23-40.42 19.83-125.76-29.62-221.51-.06-330.85 35.36-55.88 18.1-116.68 38.29-188.9 53.92-71.72 15.52-154.76 26.54-255.57 26.54s-183.86-11.02-255.57-26.54" id="Fill-4" fill="#F3E500"/>
      <path d="M542.835 89.31c-4.538 10.58-.643 19.85 7.256 25.723 3.49 2.594 7.57 4.467 11.14 5.89 3.45 1.37 7.16 2.6 10.71 3.818 5.92 2.04 15.33 3.28 23.84 5.94 8.07 2.52 10.27 5.06 10.78 6.81.11.36-.02.84-.05 1.39-.07 1.6-.31 3.4-.63 5.26-.72 4.3-1.85 8.84-2.76 12.21l-3.32 12.29 12.62 1.64c10.06 1.3 15.73 2.55 16.72 2.93 2.22.87 4.23 2.18 6.3 3.95 1.12.96 2.17 1.98 3.18 3 1.17 1.19 2.29 2.4 3.39 3.57 2.25 2.4 5.11 5.44 8.42 7.95 3.47 2.63 7.81 4.99 13.23 5.84 4.54.71 23.39 2.12 28.85 2.76 7.61.88 15.96 2.71 24.57 5.07l9.44 2.59 3.76-9.03c11.75-28.25 25.52-39.61 35.08-43.7 4.86-2.08 8.77-2.36 11.21-2.07 1.24.14 1.93.42 2.15.52-.3-.49-.62-1.17-1.37-1.54l18.7.38c1.71-2.56 11.83-7.26 26.21-7.59 6.42-.15 11.83.69 15.31 2.06 1.71.68 2.49 1.3 2.74 1.56 39.62-2.49 58.5 17.4 50.21 34.47-2.44 5.03-5.11 8.78-7.77 11.82-1.38 1.59-2.76 3-4.1 4.28-1.48 1.42-2.92 2.71-4.27 3.93-1.6 1.45-3.09 2.82-4.43 4.19-1.48 1.51-3.02 3.25-4.4 5.27-2.94 4.31-4.77 9.37-4.77 15.53v7.81l7.35 2.65c29.7 10.69 34.95 30.39 11.69 46.21-8.49 5.78-15.91 11.39-22.7 16.32-6.69 4.86-12.18 8.61-17.29 11.21-9.21 4.69-16.76 5.62-27.59.11l-6.67-3.39-5.65 4.91c-27 23.46-39.85 50.5-46.24 79.24l-5.07 22.84 20.91-10.5c4.76-2.39 9.42-4.62 14-6.62 164.66-72.02 156.88-13.77 152.63 5.46l-1.73 7.76 6.81 4.13c7.21 4.36 14.65 19.54 14.02 35.42-.57 14.33-7.1 23.85-22.73 23.85H922.4l-.95 10.06c-1.518 16-31.43 28.22-58.8 9.32l-4.865-3.36-5.5 2.16c-15.136 5.93-32.967 11.29-46.99 11.11l-4.817-.06-3.34 3.47c-11.46 11.95-22.97 29.49-34.573 48.52-11.61 19.03-23.89 40.56-37.1 61.51-26.74 42.4-55.13 78.56-86.92 89.7l-4.41 1.55-1.98 4.23c-10.38 22.22-25.14 39.04-39.03 49.62-30.88 23.52-93.24 85.57-93.24 147.68V922h11.11c85.81 0 94.42 52.67 94.42 83.307 0 38.14-27.36 64.17-58.82 84.62-15.84 10.3-31.69 18.56-43.57 25.69-6.06 3.64-11.83 7.4-16.17 11.283-3.89 3.487-9.18 9.29-9.18 17.25 0 34.75 104.81 100.48 126.977 100.48 32.51 0 48.12 19.028 53.1 25.4 22.57 28.84 18.818 82.01-24.57 82.01H629l-4.427 3.943c-.606.525-1.52 1.255-2.75 2.09-2.627 1.77-6.87 4.12-12.885 5.91-11.86 3.523-31.6 5.163-60.77-5.696l-5.252-1.954-4.69 3.063c-14.28 9.32-49.626 6.58-58.47-8.28l-4.96-8.32-8.92 3.78c-14.52 6.144-34.35 8.467-47.91 8.967-3.75-.026-5.6-.935-8.772-6.322-4.432-7.52-8.38-18.56-15.382-32.54-15.115-30.16-42.964-72.21-111.865-121.69-27.06-19.43-28.35-27.98-26.44-34.62 1.424-4.95 5.294-11.18 12.66-20.21 7.4-9.07 17.07-19.55 28.213-32.43 28.207-32.6 30.897-65.2 22.43-93.07l-.932-3.06-2.42-2.1c-4.92-4.27-9.48-8.29-13.23-12.03-2.52-2.52-4.88-5.09-7.09-7.71l-4.1-4.87-6.27 1.08c-37.536 6.43-73 1.46-88.78-3.54-98.583-31.26-125.83-138.62-85.372-225.87 7.38-15.92 17.06-32.41 26.29-47.26 9.49-15.26 18.53-28.82 24.338-38.39 17.02-28.03 28.553-59.48 26.81-105.8-.57-15.1-2.68-30.44-6.85-45.21l-2.28-8.09h-8.41c-28.242 0-36.91-13.18-43.686-30.94-3.935-10.3-6.85-21.22-11.07-30.8-4.61-10.46-11.4-21.15-23.64-27.67-2.45-1.3-3.027-2.61-3.156-3.04-.13-.44-.092-.86.23-1.35 10.57-15.82 46.786-31.75 61.33-31.75 29.516 0 49.88 2.29 68.896 21.31 18.01 18.01 22.49 37.74 22.48 55.82-.01 16.26-6.63 30.47-19.12 38.87l-6.22 4.19 1.56 7.33c9.47 44.78 16.38 115.71-25 178.22-31.38 47.4-77.55 117.45-53.86 182.21 15.572 42.59 59.13 72.22 121.59 66.36l10.573-.99-.52-10.61c-1.81-37.07 15.61-78.31 48.53-116.26 32.46-37.42 64.5-109.68 69.39-163.61l1.14-12.47-12.52.37c-14.87.44-31.89-8.44-40.51-17.45-1.02-1.07-1.83-2.04-2.45-2.89.78-.02 1.78-.03 3.04-.03 12.55 0 20.64-8.33 25.28-16.66 4.63-8.3 7.13-18.62 8.41-28.03 1.31-9.67 1.43-19.34.78-26.6-.33-3.64-.9-7.29-1.86-10.32-2.73-8.6-9.03-10.76-12.78-10.76-4.12 0-7.55 1.33-10.05 2.61-2.04 1.04-4.08 2.41-6.15 3.84-1.27.88-2.56 1.8-3.94 2.5-.98.51-1.45.58-1.6.6-12.51 1.07-21.96-9.68-26.81-27.54-1.63-6.02-2.37-11.8-2.45-16.33 7.42 2.21 15.77 3.14 22.94 1.72 15.24-3.01 22.84-16.43 14.62-33.82-1.52-3.21-2.39-5.46-2.93-7.28-.55-1.84-.78-3.24-1.08-4.7-1.79-8.66-5.7-13.79-20.49-6.31-1.02.52-4.32 2.01-12.23.67-3.37-.57-6.89-3.15-9.96-9.98-3.06-6.8-4.73-16-5.07-25.38-.24-6.72.22-12.89 1.05-17.63 18.93 10.17 47.93 10.19 45.41-24.15-.33-4.47-.56-7.35-.6-9.95-.03-2.3.12-4.33.48-7.26.87-7.05-1.98-13.1-12.15-13.69-1.68-.1-4.11.1-6.93.43-1.76.21-3.78.47-5.82.56-1.86.08-3.14-.02-3.96-.2-3.14-.7-12.82-9.88-14.78-16.63-3.38-11.63-.67-27.76 4.36-40.03.73-1.8 1.47-3.39 2.17-4.77 6.17 6.42 14.35 10.28 21.71 11.49 9.51 1.56 27.33-1.58 26.61-20.37-.28-7.41.76-12.93 1.75-16.42.81-2.83 9.21-19.18 9.21-19.18l-15.97-1.8c-1.42-.16-9.99-1.52-11.55-2.71-4.48-3.45-6.93-14.49-6.03-24.18 1.04-11.08 9.37-26.26 17.86-35.18 2.35 9.86 10.07 17.62 17.09 21.64 6.76 3.88 23.48 9.09 31.37-5.76 2.53-4.75 5.38-8.14 7.53-10.3 1.01-1.02 1.89-1.78 2.51-2.27.24-19.14-8.17-25.11-10.39-31.21-2.78-7.65 4.22-18.67 22.86-27.58 5.87-2.81 11.5-4.61 15.87-5.46-.94 4.77-1.2 9.29-.32 13.38 1.77 8.24 7.64 12.9 14.44 14.42 5.43 1.21 11.49.46 16.3-.3 4.85-.78 10.38-1.96 16.23-2.93 4.09-.67 8.09-.8 11.07-.77 2.89.02 25.7 2.18 25.7 2.18s-11.38-20.76-12.32-23.68c-.48-1.51-.72-2.74-.77-3.58.33-.28.24.29 1.18-.28 2.15-1.3 4.89-2.59 7.96-3.83 6.73-2.71 14.96-5.09 22.54-6.41 3.72-.65 6.77-.94 9.13-1.02m1521.7 527.34c-.64.91-1.4 1.89-2.27 2.8-8.62 9.01-25.63 17.89-40.51 17.45l-12.52-.37 1.13 12.48c4.89 53.93 36.94 126.19 69.39 163.61 32.92 37.95 50.34 79.19 48.53 116.26l-.51 10.61 10.58.99c62.46 5.86 106.01-23.78 121.59-66.36 23.69-64.77-22.48-134.82-53.86-182.22-41.38-62.5-34.47-133.44-25-178.21l1.55-7.33-6.22-4.18c-12.48-8.4-19.11-22.61-19.11-38.86-.01-18.08 4.47-37.81 22.48-55.82 19.02-19.01 39.38-21.3 68.9-21.3 14.54 0 50.75 15.92 61.32 31.75.33.48.37.91.23 1.35-.13.43-.71 1.73-3.16 3.04-12.23 6.52-19.03 17.21-23.64 27.67-4.22 9.58-7.14 20.49-11.07 30.8-6.77 17.76-15.44 30.94-43.68 30.94h-8.4l-2.28 8.09c-4.17 14.77-6.28 30.12-6.85 45.21-1.74 46.32 9.79 77.77 26.81 105.81 5.81 9.57 14.85 23.13 24.34 38.39 9.23 14.85 18.91 31.34 26.29 47.26 40.46 87.26 13.21 194.62-85.37 225.88-15.78 5.01-51.24 9.98-88.77 3.55l-6.27-1.07-4.1 4.866c-2.2 2.62-4.57 5.19-7.08 7.72-3.74 3.74-8.3 7.76-13.23 12.03l-2.41 2.09-.93 3.064c-8.47 27.866-5.78 60.47 22.43 93.07 11.14 12.88 20.81 23.36 28.21 32.43 7.36 9.03 11.23 15.26 12.66 20.216 1.906 6.63.62 15.19-26.44 34.62-68.9 49.48-96.75 91.526-111.864 121.69-7.004 13.98-10.95 25.02-15.38 32.54-3.18 5.39-5.03 6.3-8.78 6.326-13.56-.5-33.39-2.82-47.91-8.97l-8.92-3.77-4.954 8.32c-8.85 14.86-44.19 17.6-58.47 8.28l-4.694-3.06-5.25 1.96c-29.172 10.85-48.91 9.21-60.772 5.69-6.02-1.79-10.26-4.14-12.885-5.91-1.23-.84-2.15-1.57-2.75-2.09-51.964-3.94-55.72-57.11-33.15-85.96 4.98-6.37 20.59-25.4 53.1-25.4 22.166 0 126.977-65.73 126.977-100.48 0-7.96-5.29-13.76-9.18-17.245-4.34-3.88-10.1-7.64-16.17-11.28-11.88-7.13-27.73-15.39-43.57-25.69-31.46-20.45-58.82-46.484-58.82-84.62 0-30.64 8.6-83.31 94.41-83.31h11.1v-11.2c0-62.11-62.36-124.16-93.24-147.673-13.9-10.58-28.65-27.4-39.04-49.613l-1.98-4.232-4.41-1.548c-31.79-11.14-60.18-47.3-86.92-89.71-13.21-20.95-25.49-42.48-37.1-61.51-11.61-19.04-23.11-36.57-34.58-48.52l-3.34-3.47-4.82.06c-14.02.18-31.85-5.18-46.98-11.12l-5.505-2.16-4.87 3.36c-27.37 18.9-57.28 6.68-58.793-9.32l-.95-10.06h-10.11c-15.627 0-22.15-9.52-22.72-23.85-.637-15.88 6.81-31.06 14.012-35.42l6.81-4.12-1.72-7.78c-4.25-19.24-12.03-77.48 152.63-5.46 4.58 2 9.23 4.23 14 6.63l20.91 10.5-5.08-22.85c-6.39-28.74-19.24-55.78-46.25-79.24l-5.65-4.91-6.67 3.39c-10.82 5.51-18.38 4.58-27.59-.11-5.11-2.6-10.6-6.35-17.29-11.21-6.8-4.93-14.21-10.54-22.707-16.32-23.252-15.82-18.002-35.52 11.69-46.21l7.35-2.64V228c0-6.164-1.83-11.22-4.76-15.527-1.37-2.02-2.92-3.76-4.39-5.27-1.344-1.373-2.835-2.746-4.434-4.192-1.35-1.22-2.78-2.51-4.27-3.93-1.33-1.28-2.72-2.69-4.1-4.27-2.65-3.04-5.33-6.79-7.77-11.82-8.29-17.07 10.58-36.96 34.71-26.05l15.61-8.82c.26-.26.93-.47 2.63-1.14 3.49-1.38 8.9-2.21 15.32-2.06 14.38.34 24.5 5.04 26.21 7.59l18.707-.37c-.75.37-1.08 1.05-1.376 1.54.22-.11.92-.38 2.15-.52 2.45-.29 6.35-.01 11.21 2.07 9.56 4.09 23.33 15.46 35.08 43.71l3.76 9.03 9.44-2.58c8.61-2.36 16.96-4.18 24.57-5.06 5.45-.64 24.3-2.05 28.84-2.75 5.42-.84 9.75-3.2 13.22-5.83 3.31-2.51 6.17-5.55 8.417-7.95 1.107-1.17 2.22-2.38 3.39-3.56 1.01-1.03 2.06-2.04 3.18-3 2.07-1.77 4.08-3.08 6.3-3.95.99-.39 6.66-1.63 16.72-2.93l12.62-1.63-3.33-12.29c-.91-3.37-2.048-7.91-2.77-12.21-.31-1.86-.55-3.66-.62-5.26-.03-.55-.157-1.03-.05-1.38.51-1.75 2.71-4.29 10.77-6.81 8.51-2.65 17.92-3.9 23.84-5.93 3.54-1.21 7.25-2.44 10.7-3.81 3.57-1.42 7.65-3.29 11.14-5.89 7.99-5.94 11.88-15.36 7.09-26.09 2.2.22 5.23.68 9.29 1.39 7.58 1.32 15.81 3.7 22.55 6.41 3.07 1.24 5.81 2.53 7.953 3.83.44.27.804.5 1.1.71-.116.89-.34 2.06-.69 3.16-.93 2.92-12.32 23.68-12.32 23.68s22.82-2.16 25.71-2.19c2.98-.02 6.98.11 11.07.78 5.85.96 11.37 2.15 16.22 2.92 4.8.76 10.87 1.51 16.29.3 6.8-1.52 12.67-6.18 14.44-14.42.88-4.09.62-8.61-.32-13.37 4.37.85 9.99 2.66 15.862 5.46 18.64 8.91 25.642 19.93 22.86 27.58-2.22 6.1-10.62 12.07-10.96 12.3l-13.048 8.73s13.29 9.91 13.63 10.18c.62.49 1.49 1.25 2.51 2.27 2.15 2.16 5 5.55 7.53 10.3 7.89 14.84 24.61 9.63 31.36 5.76 7.022-4.03 14.74-11.78 16.82-21.92 8.76 9.19 17.1 24.37 18.13 35.45.91 9.69-1.54 20.74-6.03 24.19-1.56 1.19-10.13 2.55-11.55 2.71l-15.98 1.8s8.4 16.35 9.21 19.17c1 3.49 2.04 9.01 1.75 16.42-.72 18.79 17.1 21.93 26.61 20.37 7.37-1.21 15.55-5.07 21.71-11.49.7 1.38 1.44 2.97 2.18 4.77 5.03 12.27 7.74 28.4 4.36 40.03-1.96 6.76-11.64 15.93-14.78 16.63-.82.19-2.102.29-3.96.2-2.05-.09-4.06-.35-5.822-.56-2.817-.34-5.24-.53-6.92-.43-10.17.6-13.02 6.65-12.15 13.7.36 2.924.51 4.96.48 7.26-.03 2.6-.26 5.48-.59 9.95-2.53 34.34 26.48 34.32 45.4 24.15.82 4.74 1.283 10.91 1.04 17.63-.34 9.38-2.01 18.58-5.07 25.374-3.07 6.83-6.58 9.41-9.96 9.98-7.92 1.33-11.21-.16-12.237-.67-14.79-7.47-18.7-2.35-20.5 6.31-.3 1.46-.53 2.86-1.08 4.7-.542 1.82-1.412 4.07-2.93 7.28-8.22 17.393-.62 30.805 14.61 33.82 7.17 1.42 15.52.49 22.94-1.72-.08 4.535-.82 10.31-2.452 16.333-4.84 17.86-14.3 28.61-26.81 27.54-.15-.02-.62-.09-1.6-.6-1.38-.71-2.67-1.63-3.95-2.5-2.08-1.43-4.12-2.8-6.16-3.84-2.49-1.28-5.93-2.61-10.05-2.61-3.75 0-10.05 2.16-12.772 10.76-.96 3.03-1.53 6.68-1.86 10.32-.65 7.26-.53 16.93.78 26.6 1.27 9.41 3.78 19.73 8.4 28.03 4.64 8.34 12.73 16.67 25.27 16.67 1.12 0 2.07.05 2.86.12" id="Fill-6" fill="#E32221"/>
      <path d="M1130.585 1405.773V1253.83h101.482c25.85.18 46.75 21.195 46.75 47.102 0 19.7-12.095 36.587-29.257 43.623l45.637 61.218h-43.433l-43.42-57.862h-41.59v57.87h-36.17zm112.073-104.87c0-7.97-6.403-14.418-14.34-14.495h-61.563v28.924h61.566c7.94-.08 14.34-6.525 14.34-14.43zm25.4-235.193v32.566h-101.3v25.33l97.674-.016v32.548h-97.673v28.953h101.3v32.55h-137.47v-151.93h137.47zM899.8 954.106c8.598 8.377 13.94 20.083 13.94 33.045 0 25.43-20.625 46.1-46.06 46.14H761.84V881.3l104.097.002c24.433.046 44.224 19.878 44.224 44.323 0 10.842-3.9 20.775-10.36 28.48zm-101.774 46.605h65.158c7.986 0 14.432-6.47 14.432-14.49 0-7.99-6.442-14.46-14.428-14.46h-65.162v28.96zm0-61.5h63.29c6.988 0 12.67-5.67 12.67-12.66 0-6.97-5.682-12.66-12.67-12.66h-63.29v25.33zm229.454-19.11l-26.69 55.19h53.36l-26.673-55.19zm93.58 113.06h-38.845l-12.23-25.33h-85.022l-12.243 25.34h-38.83l75.97-151.93h35.22l75.98 151.93zm471.77-119.36h-52.546v28.94h52.545c7.95-.04 14.37-6.52 14.37-14.46 0-7.95-6.43-14.42-14.38-14.47zm-25.404 61.5h-27.144v57.87h-36.17V881.22h92.4c25.912.082 46.897 21.126 46.897 47.07 0 21.423-14.16 39.467-33.75 45.155l44.58 59.706h-43.42l-43.4-57.87zm-113.963-94.06v32.56h-101.3v25.33l97.673-.01v32.55h-97.67v28.95h101.3v32.55h-137.473V881.23h137.472zm-202.55 0h43.54l-77.053 98.92v53.01h-36.184v-53.01l-77.04-98.92h43.524l51.615 69.19 51.6-69.18zm-51.61-145.63l-26.69 55.19h53.363l-26.672-55.19zm93.58 113.06h-38.84l-12.23-25.33h-85.023l-12.242 25.33h-38.826l75.965-151.93h35.22l75.98 151.93zM1268.54 588.5c8.6 8.377 13.95 20.083 13.95 33.047 0 25.43-20.63 46.1-46.065 46.14h-105.83v-152l104.1.008c24.43.05 44.222 19.88 44.222 44.32 0 10.85-3.9 20.78-10.36 28.48zm-101.77 46.6h65.16c7.99 0 14.435-6.478 14.435-14.493 0-7.984-6.44-14.46-14.43-14.46h-65.156V635.1zm0-61.505h63.29c6.99 0 12.677-5.674 12.677-12.666 0-6.97-5.683-12.67-12.674-12.67l-63.287-.01v25.33zm497.72 978.57l54.81-10.653c-1.666-9.055-9.8-26.837-31.367-22.644-19.464 3.78-24.213 21.78-23.447 33.3zm93.544 8.765l-88.287 16.895c4.784 18.348 24.5 23.958 44.87 20 14.96-2.91 25.94-7.143 36.34-13.164l10.185 24.24c-11.933 7.86-27.434 14.18-46.264 17.84-44.167 8.59-74.998-12.18-82.668-51.64-6.2-31.9 7.294-72.49 53.016-81.38 44.296-8.61 65.76 23.63 71.33 52.29 1.198 6.16 1.586 11.82 1.478 14.93zm-228.207 113.62l-.59-28.27c8.81 2.46 25.71 3.182 37.615-.23 13.425-3.85 17.6-10.3 15.595-17.306-2.123-7.41-7.79-9.558-24.703-9.88-28.74-.317-43.57-11.24-47.796-26.58-6.59-22.98 8.144-46.24 39.61-55.266 15.05-4.314 29.52-4.583 38.42-2.73l.513 27.102c-6.45-1.378-19.26-2.6-30.86.73-10.53 3.02-15.39 9.132-13.36 16.202 2.01 7.003 8.93 8.743 26.68 9.22 26.62.614 40.69 9.335 46.3 28.32 6.48 22.613-6.48 45.33-43.01 55.81-16.91 4.846-32.74 5.244-44.39 2.875zm-59.116-105.91l17.04 87.644c3.19 16.41 6.24 29.653 8.84 39.864l-32.58 6.334-5.51-19.294-.84.165c-3.46 9.405-13.31 26.1-38.13 30.93-24.94 4.844-49.79-5.597-57.89-47.245l-14.46-74.388 37.46-7.284 13.21 67.93c3.95 20.292 13.26 31.317 29.65 28.13 12.68-2.464 18.93-12.644 20.6-21.052.55-2.694.47-5.79-.16-9.046l-14.66-75.41 37.46-7.28zm-238.74-28.04l4.03 115.492.54-.02c3.02-5.073 6.56-10.653 9.86-15.45l29.37-41.48 46.47-1.625-48.52 54.335 60.69 75.43-47.5 1.655-38.73-53.986-11.02 13.75 1.47 41.92-38.11 1.33-6.63-190.02 38.12-1.33zm-158.63 186.82l7.83-86.46c1.7-19.45 2.49-31.88 2.71-43.222l32.68 2.856-.91 25.4.98.082c8.49-19.074 25.7-26.33 39.54-25.116 3.55.306 5.46.567 8.42 1.51l-3.09 35.388c-3.38-.98-6.61-1.76-11.17-2.162-16.51-1.443-27.85 6.874-31.72 20.237-.7 2.612-1.16 5.625-1.43 8.644l-5.78 66.17-38.01-3.322zm-120.8-103.9l54.81 10.656c1.85-9.018.97-28.553-20.6-32.747-19.46-3.78-30.61 11.12-34.21 22.09zm83.45 43.17l-88.19-17.404c-2.43 18.802 13.75 31.39 34.12 35.35 14.97 2.906 26.73 3.095 38.63 1.408l.37 26.288c-14.01 2.82-30.75 2.87-49.58-.79-44.16-8.58-64.97-39.39-57.3-78.85 6.2-31.9 33.92-64.48 79.64-55.59 44.3 8.61 52.12 46.54 46.55 75.2-1.19 6.154-2.96 11.553-4.22 14.396zm-250.26-150.364l38.96 14.178-2.25 66.585c-.35 11.82-1.36 22.2-2.64 32.4l.82.3c5.73-8.93 11.57-17.18 18.68-26.57l40.35-52.72 38.05 13.84-93.21 104.53-36.03-13.11-2.71-139.45zm-122.44 20.344l54.41 12.56c2.16-8.95 1.96-28.508-19.44-33.45-19.32-4.46-30.98 10.046-34.96 20.884zm81.9 46.05l-87.52-20.47c-3.09 18.7 12.64 31.85 32.86 36.514 14.86 3.43 26.61 4.025 38.56 2.756l-.55 26.283c-14.1 2.326-30.83 1.792-49.52-2.523-43.84-10.12-63.56-41.632-54.51-80.8 7.31-31.662 36.14-63.26 81.53-52.782 43.97 10.153 50.46 48.334 43.9 76.78-1.41 6.106-3.36 11.44-4.73 14.236zm-259.54 27.43l-6.26-179.48 38.13-1.33 5.16 147.56 77.61-2.71 1.12 31.92-115.74 4.04zm1302.76-1.976v-89.37c0-15.93-.47-29.353-1.06-40.736h33.19l1.79 19.403h.87c5.28-8.89 19.39-22.49 42.68-22.49 25.15 0 48.91 15.92 48.91 57.49v75.71h-38.16v-70.84c0-18.75-7.11-31.69-24.17-31.69-13.13 0-21.24 9.2-24.44 17.76-1.04 2.58-1.41 6.42-1.41 9.85v74.92h-38.16zm12.09-1398.51c-5.15 0-9.43 2.834-13.21 5.786 9.38 3.07 19.8 6.314 24.07 7.3-2.91-7.17-9.71-13.09-10.85-13.09zm-34.46 11.23s14.4-23.32 35.81-23.32c8.7 0 29.93 25.06 19.85 34.253-8.38 7.65-55.65-10.934-55.65-10.934zm-1132.93 0s-47.27 18.584-55.66 10.933c-10.07-9.194 11.15-34.25 19.86-34.25 21.42 0 35.81 23.32 35.81 23.32zm-34.46-11.23c-1.14 0-7.94 5.916-10.86 13.09 4.27-.99 14.7-4.234 24.08-7.304-3.78-2.953-8.06-5.79-13.21-5.79zm410.69 171.425l-35.97-117.63-.44.13-23.75 21.87-12.74-22.34 32.8-29.57 26.41-8.08 44.68 146.13-30.98 9.47zm54.5-14.84l-3.62-25.81c4.45-.05 8.71-.81 16.04-2.27 11.88-2.34 23.23-7.52 31.08-15.05 9.54-8.76 14.85-20.14 15.81-32.8l-.57-.15c-6.42 9.07-16.74 14.99-31.63 17.08-27.2 3.82-51.48-11.62-55.54-40.51-4.21-29.95 16.96-58.12 50.75-62.87 39.2-5.51 62.69 21.22 67.75 57.24 4.45 31.6-2.54 55.85-17.15 73.27-12.93 15.21-32.25 25.2-55.79 29.35-6.32 1.44-12.97 2.27-17.11 2.49zm24.62-137.67c-14.12 1.98-22.48 15.35-20.17 31.57 1.96 13.81 12.09 24.19 28.06 21.95 11.48-1.62 18.7-7.85 21.89-14.82.83-2.06 1.16-4.4.71-7.59-2.28-17.27-11.63-33.77-30.49-31.12zM1229.8 354.1c-39.018-2.05-56.493-36.48-54.383-81.77 2.4-45.79 24.48-78.28 63.76-76.226 40.236 2.107 56.55 37.15 54.24 81.233-2.437 46.567-23.26 78.87-63.616 76.756zm1.385-24.888c16.554.867 26.493-17.567 28.356-53.126 1.82-34.844-5.85-54.12-22.48-54.99-15.25-.8-26.41 17.13-28.24 52.33-2.18 36.003 6.99 54.982 22.35 55.787zm166.56 52.36l-30.963-8.293 9.715-36.25-69.2-18.54 5.6-20.9 83.91-74.47 40.488 10.85-23.37 87.22 18.903 5.07-6.463 24.13-18.905-5.07-9.714 36.25zm-53.04-78.925l38.26 10.25 9.83-36.685c2.33-8.7 5.066-17.474 8.042-26.684l-.81-.286c-7.464 8.268-13.782 15.544-21.11 23.044l-33.95 29.943-.264.41zM897.6 155.23c93.897-35.44 195.668-54.833 301.972-54.833 106.303 0 208.076 19.392 301.974 54.833 10.815-11.532 32.127-14.937 46.423-8.473 2.22-18.89 54.27-15.658 64.41-.498 4.81-7.86 41.78-11.78 66.78 48.32 9.19-2.52 18.11-4.44 26.23-5.39 5.37-.63 23.94-2 28.41-2.7 12.48-1.95 17.47-17.92 32.17-23.67 2.5-.98 9.6-2.35 19.33-3.6-1.98-7.33-4.89-19.75-3.39-24.88 4.47-15.3 29.98-16.11 41.66-20.13 13.52-4.65 29.61-9.32 21.19-23.05-15.86-25.86 55.25-7.11 62.24 4.45 3.96 6.55-3.2 19.43-3.2 19.43s9.17-.92 18.75.66c23.31 3.83 41.47 11.28 32.05-18.64-6.15-19.54 74.69 6.86 61.96 41.88-3.63 9.97-15.23 17.73-15.23 17.73s8 5.28 14.24 17.04c5.67 10.67 27.81-1.69 27.81-16.28 0-29.82 37.08 11.08 39.75 39.76.93 10.04-.83 26.72-10.32 34.02-4.61 3.54-17.08 4.95-17.08 4.95s5.51 9.42 4.84 26.78c-.58 15.04 25.93 10.78 33.6-5.6 6.36-13.59 29.55 31.91 20.81 61.96-2.79 9.58-14.96 22.56-23.02 24.37-8.67 1.94-20.68-2.64-20.27.69.87 7.06.64 9.86-.06 19.38-1.57 21.33 19.67 24.3 35.94 8.68 12.39-11.9 20.26 72.85-13.77 78.59-20.12 3.39-22.9-6.94-23.7-3.06-.73 3.51-1.17 6.69-4.85 14.48-10.72 22.68 17.87 21.31 32.36 13.44 13-7.06 7.8 72.52-35.06 68.84-8.15-.7-13.96-9.5-20.8-9.5-6.69 0-7.51 70.16 19.82 70.16 39.87 0-4.08 44.84-41.73 42.51 4.65 51.56 35.75 121.69 66.73 157.41 34.03 39.23 53.18 83.11 51.23 123.92 58.94 6.05 97.86-21.43 111.59-58.97 21.39-58.47-20.27-123.3-52.69-172.26-43.91-66.32-36.26-141.03-26.61-186.65-16.08-10.82-24.02-28.8-24.02-48.08-.01-20.19 4.45-43.73 25.73-63.68 53.19-49.89 134.35-7.28 147.32 12.13 4.26 6.38 2.4 15.38-6.94 20.36-36.37 19.39-14.57 90.72-83.62 90.72-3.89 13.78-5.89 28.24-6.44 42.61-1.65 43.87 9.16 73.19 25.2 99.62 11.58 19.08 36.07 54.1 51.2 86.74 42.37 91.4 14.74 207.26-92.1 241.14-17.66 5.6-55.54 10.74-95.29 3.68-2.46 2.93-5.1 5.81-7.92 8.64-3.39 3.39-7.42 7-11.78 10.81-8.05 24.78-6.55 54.05 19.64 84.33 44.91 51.9 65.99 65.15 12.52 103.55-103.27 74.15-110.93 130.09-125.02 152.24 21.82 3.17 44.15 7.4 67.06 12.82 11.02 2.61 33.48 8.75 26.1 41.88l-58.09 261.22c-8.65 38.63-37.42 29.19-51.2 25.55-251.18-66.48-372.36 113.19-783.01 113.19-410.66 0-531.83-179.68-783.01-113.2-13.78 3.64-42.55 13.08-51.2-25.55l-58.07-261.22c-7.39-33.14 15.07-39.27 26.1-41.89 22.91-5.42 45.24-9.65 67.06-12.82-14.09-22.15-21.75-78.09-125.02-152.24-53.48-38.4-32.4-51.65 12.51-103.55 26.2-30.28 27.7-59.54 19.65-84.33-4.36-3.81-8.39-7.42-11.78-10.81-2.82-2.82-5.46-5.7-7.92-8.64-39.75 7.07-77.63 1.92-95.29-3.68-106.79-33.84-134.43-149.7-92.05-241.1 15.13-32.64 39.62-67.66 51.2-86.74 16.04-26.43 26.85-55.76 25.2-99.62-.54-14.37-2.54-28.83-6.43-42.62-69.05 0-47.25-71.33-83.62-90.72-9.34-4.98-11.2-13.97-6.93-20.36 12.96-19.41 94.13-62.01 147.32-12.13 21.28 19.96 25.75 43.5 25.74 63.68 0 19.28-7.94 37.26-24.02 48.08 9.65 45.62 17.3 120.32-26.61 186.65-32.42 48.96-74.08 113.79-52.69 172.26 13.74 37.54 52.65 65.02 111.59 58.97-1.94-40.81 17.21-84.69 51.23-123.93 30.98-35.72 62.08-105.85 66.73-157.41-37.64 2.33-81.59-42.51-41.72-42.51 27.34 0 26.52-70.16 19.83-70.16-6.84 0-12.66 8.8-20.8 9.5-42.85 3.68-48.06-75.91-35.05-68.84 14.48 7.86 43.08 9.24 32.36-13.44-3.68-7.79-4.13-10.98-4.85-14.48-.8-3.88-3.58 6.45-23.7 3.06-34.03-5.74-26.16-90.49-13.77-78.59 16.27 15.62 37.52 12.64 35.95-8.68-.7-9.53-.93-12.32-.06-19.39.41-3.34-11.59 1.24-20.26-.7-8.07-1.81-20.24-14.79-23.02-24.37-8.74-30.04 14.45-75.55 20.81-61.96 7.67 16.38 34.18 20.64 33.6 5.6-.67-17.36 4.84-26.78 4.84-26.78s-12.48-1.41-17.08-4.95c-9.49-7.3-11.26-23.98-10.32-34.02 2.68-28.67 39.76-69.58 39.76-39.76 0 14.59 22.14 26.95 27.81 16.28 6.24-11.76 14.24-17.04 14.24-17.04s-11.6-7.77-15.22-17.74c-12.74-35.02 68.11-61.41 61.96-41.88-9.43 29.93 8.73 22.48 32.05 18.64 9.58-1.58 18.75-.66 18.75-.66s-7.16-12.88-3.2-19.44c6.99-11.56 78.11-30.32 62.25-4.46-8.42 13.73 7.67 18.4 21.19 23.05 11.68 4.01 37.19 4.83 41.66 20.12 1.5 5.13-1.4 17.55-3.38 24.88 9.73 1.26 16.84 2.62 19.33 3.6 14.7 5.75 19.7 21.72 32.17 23.67 4.47.69 23.04 2.07 28.42 2.69 8.12.94 17.04 2.87 26.23 5.39 25-60.11 61.97-56.18 66.79-48.33 10.15-15.16 62.2-18.39 64.42.5 14.29-6.47 35.61-3.06 46.42 8.47zm602.406 35.117c-93.026-36.547-194.357-56.627-300.434-56.627-106.08 0-207.405 20.08-300.43 56.627-11.558 21.49-27.304 23.075-27.304 37.604 31.46 11.33 49.567 40.76 15.446 64.97l19.184 60.23c42.34 1.38 45.57 30.24 40.448 53.44 14.9 9.03 23.88 37.87 17.123 58.3 71.27-34.27 151.16-53.47 235.53-53.47s164.26 19.2 235.54 53.47c-6.77-20.43 2.22-49.27 17.12-58.29-5.12-23.19-1.9-52.06 40.44-53.43l19.18-60.22c-34.12-24.21-16.01-53.64 15.45-64.96 0-14.52-15.75-16.11-27.31-37.6zm-627.422 166.21l-13.767-43.22c-17.775 12.473-31.774 18.936-51.67 8.817-24.875 21.614-36.71 46.374-42.688 73.264 4.94-2.482 9.77-4.798 14.52-6.877 39.31-17.19 69.91-27.21 93.59-31.98zm667.746-43.22l-13.77 43.22c23.687 4.773 54.286 14.788 93.6 31.984 4.752 2.08 9.587 4.4 14.53 6.88-5.98-26.89-17.815-51.65-42.69-73.26-19.896 10.12-33.894 3.66-51.67-8.82zm-834.584 642.31c0 272.738 221.092 493.83 493.83 493.83 272.737 0 493.83-221.092 493.83-493.83 0-272.735-221.093-493.827-493.83-493.827-272.738 0-493.83 221.092-493.83 493.828zm1038.08.002c0 203.46-111.644 380.84-277.01 474.23 95.396-23.39 186.184-52.26 282.137-68.57-44.91-11.33-37.318-73.12-17.72-98.17 5.708-7.3 24.186-29.67 61.853-29.67 19.63 0 115.868-63.82 115.868-89.37 0-23.12-127.737-50.35-127.737-138.84 0-33.59 10.82-94.41 105.52-94.41 0-56.24-57.986-115.33-88.86-138.84-15.436-11.76-31.5-30.21-42.676-54.41-70.91-26.74-119.41-158.38-161.15-201.88-16.3.21-35.84-5.87-51.18-11.88-7.52 5.19-16.28 8.58-25.13 10.16 136.96 98.84 226.1 259.83 226.1 441.62zm-811.504 474.23c-165.365-93.39-277-270.77-277-474.23 0-181.79 89.138-342.78 226.096-441.62-8.85-1.58-17.613-4.97-25.132-10.16-15.342 6.01-34.875 12.09-51.182 11.88-41.748 43.5-90.247 175.13-161.158 201.87-11.173 24.19-27.238 42.64-42.675 54.4-30.87 23.51-88.86 82.6-88.86 138.84 94.7 0 105.53 60.82 105.53 94.41 0 88.49-127.73 115.72-127.73 138.84 0 25.54 96.24 89.36 115.87 89.36 37.67 0 56.15 22.37 61.86 29.66 19.6 25.05 27.2 86.83-17.72 98.16 95.95 16.3 186.74 45.17 282.13 68.56zm267.252 347.69c99.88 0 182.164-10.91 253.22-26.29 71.804-15.54 132.254-35.63 187.818-53.63 109.393-35.43 207.832-66.02 336.954-35.57 23.058 5.72 23.148 5.63 26.894-11.44l52.17-234.84c3.036-13.92 3.036-14.04-14.266-17.91-152.898-32.82-279-10.35-407.36 22.38-67.655 17.25-134.828 36.97-205.178 52.41-72.215 15.84-147.712 27.18-230.252 27.18-82.54 0-158.036-11.34-230.253-27.19-70.35-15.44-137.52-35.16-205.17-52.41-128.36-32.73-254.46-55.2-407.35-22.38-17.3 3.87-17.3 3.99-14.27 17.91l52.17 234.83c3.75 17.07 3.84 17.16 26.9 11.43 129.13-30.46 227.56.13 336.96 35.57 55.56 18 116.01 38.08 187.82 53.62 71.06 15.38 153.34 26.28 253.22 26.28zM2263.02 477.23c3.993-10.46 6.975-21.54 11.264-31.26 4.224-9.584 10.544-20.326 21.41-28.28-19.294-14.584-74.39-35.45-109.352-2.663-15.49 14.52-19.072 31.42-19.067 48.28-.04 23.74 13.393 29.07 26.41 35.99-13.506 58.95-18.395 128.02 20.717 187.09 16.083 24.292 35.815 54.46 48.534 86.414 12.745 32.03 19.586 68.64 6.378 104.75-17.758 48.55-67.06 79.71-134.34 72.61-2.227 9.33-5.69 18.42-10.467 27.16 32.404 4.1 62.18-.2 75.667-4.47 91.165-28.9 118.052-128.62 79.33-212.14-7.216-15.56-16.69-31.67-25.71-46.19-9.51-15.3-18.572-28.89-24.393-38.48-17.89-29.48-30.08-62.84-28.25-111.36.6-15.75 4.38-41.09 11.4-62.18 37.47 1.47 42.58-4.88 50.48-25.25zm-453.534 211.1c-19.533-3.4-35.465-15.6-32.8-29.12 1.212-6.152 23.19 6.41 27.64-48.8 1.485-18.45-1.627-33.102-2.477-33.24-30.01-4.9-19 35.675-45.72 45.467-37.91 13.89-61.32-22.775-61.03-48.98 21.74 1.198 24.62-14.924 17.66-28.36-2.92-5.632-4.46-16.212-4.46-16.212s-9.01 7.13-20.71 5.424c-31.14-4.54-35.2-89.5-15.11-72.92 12.35 10.18 25.4 4.54 33.68-5.33-37.49-14.35-76.76-38.13-95.37-46.35-82.61-36.45-117.57-36.22-130.36-31.29-4.35 1.67-8.28 6.65-6.48 17.17 10.18-4.57 25.78-3.69 25.78-3.69 14.77 1.07 13.17 23.23-1.61 22.16-35.53.24-43.53 23.71-42.19 37.02.7 6.91 1.75 12.87 12.82 11.82 10.2-20.59 25.66-26.89 25.66-26.89 13.36-6.39 22.94 13.65 9.58 20.04-6.38 3.36-16.79 12.23-15.22 24 .72 5.4 3.46 9.71 10.91 10.86 9.23 1.43 21.11-.44 29.86-6.48l10.21-7.06s38.92 17.77 64.04 14.67l7.01 7.31c13.73 14.3 27.15 35.54 39.99 56.88 12.87 21.37 26.57 45.39 41.48 67.91 31.14 47.02 59.8 74.68 88.29 74.68 13.01 0 22.32-4.08 28.85-10.73zm-23.724 33.93c8.427 13.45 18.393 23.857 27.72 30.96 30.795 23.45 97.658 88.44 98.058 156.79 36.352 3.517 50.83 14.06 50.83 14.06 12.698 8.984.38 26.12-13.48 19.05-25.967-13.242-66.748-9.264-78.732-8.18-55.894 5.07-64.14 42.71-64.14 70.096 0 31.415 22.32 54.26 53.253 74.37 15.71 10.207 31.43 18.39 43.2 25.46 6.16 3.69 12.78 7.946 18.04 12.66 4.33 3.873 13.25 12.81 13.25 26.35 0 44.876-114.25 112.7-139.2 112.7-26.82 0-39.28 15.355-43.47 20.707-6.72 8.6-12.33 27.072-9.99 42.444 1.49 9.7 6.1 18.04 18.83 19.366-.33-18.334 6.07-38.79 16.58-52.606 9.42-12.38 27.99 1.74 18.58 14.125-7.32 9.64-13.25 25.436-11.12 47.29 14.74 8.58 31.93 9.315 53.32 1.89-2.39-18.21 5.87-41.314 15.87-55.767 8.85-12.79 28.04.486 19.19 13.278-7.32 10.59-12.41 24.742-11.96 37.138 18.91 15.55 45.61 6.02 48.71-.09 4.69-9.25 9.11-19.3 14.6-30.24 5.97-11.89 13.13-24.73 22.94-38.65 19.9-28.22 49.77-59.78 100.37-95.14 12.1-8.45 21.55-13.93 7.68-29.09-5.89-6.43-12.32-14.03-19.74-22.06-30.81-33.37-17.19-67.73.8-90.34 8.73-10.97 19.46-20.87 28.84-29.12 8.8-7.75 17.45-14.83 23.77-21.15 42.79-42.79 35.63-106.54-17.8-168.14-31.32-36.11-71.47-118.62-72.98-181.33-22.75-19.81-21.13-67.87-34-67.87-18.09 0-.74 33.54 1.24 51.23 6.94 61.91-56.01 66.52-74.34 45.15-10.77-12.55 17.77 2.86 4.96-56.32-2.04-9.42-6.78-28.64-10.9-28.64-25.28 0-10.94 32.08-13.38 56.81-2.61 26.43-15.79 40.59-31.52 46.48-8.08 19.72-24.11 34.82-53.82 36.36zm279.313 317.548c-22.266 21.88-38.85 47.394-14.498 73.768 31.313 33.92 53.184 54.555 8.33 86.08-81.72 57.434-104.93 101.856-121.42 136.59 3.46 1.47 7.82 2.906 13.12 4.164 10.424 2.48 19.044 3.298 27.257 4.02 4.38.39 7.047-11.68 17.58-32.762 15.885-31.792 45.245-74.835 115.317-125.734 25.94-18.84 24.97-22.07 11.65-38.79-7.23-9.087-16.94-19.4-28-32.182-22-25.43-29.92-51.235-29.33-75.145zm-372.985-688.7c1.704 4.036 4.943 11.026 8.15 11.75 10.22 2.305 40.73 4.584 70.456 5.755 14.86.588 53.32.947 59.43-1.506 10.01-4.02 30.467-29.63 46.642-32.176 22.1-3.47 38.455-11.98 45.187-27.54 4.847-11.21 4.76-15.83 2.746-21.39-9.19-25.38-14.54-55.1-14.54-55.1s25.03-15.8 24.65-25.84c-.22-5.76-3.36-6.31-11.79-8.08-7.24-1.51-24.45-1.38-32.3-1.38 0 0-3.72-13.3-18-16.5-10.89-2.44-57.92-6.79-99.45 2.37-5.45 1.21-15.95 15.19-19.25 17.69-4.28 3.25-9.85 5.98-17.12 7.11-4.59.72-23.66 2.16-29.18 2.8-15.56 1.81-35.52 7.99-54.96 15.27 0 21.98 12.95 34.54 12.95 34.54s-.66 22.56 1 32.55c.09 1.78 2.94 2.32 4.05 2.13 8.28-1.38 15.07-1.15 19.36-.64 17.27 2.07 74.57 1.82 74.57 1.82v56.41h-72.56zm61.812 36.71c-15.123 12.26-16.39 29.485-17.194 43.297-1.15 19.776-9.086 30.463-12.88 35.45-7.062 9.272-25.933 29.048-41.606 20.27-7.29-4.084.013 25.766 6.988 28.064 9.355 3.08 27.96-10.91 31.08-14.35 2.645 13.29 6.282 25.18 10.525 33.82 9.324 18.98 8.452 47.5-11.285 54.93 4.185 11.86 22.32 19.48 31.224 12.1 4.314-3.58 7.32-15.36 10.707-22.12 13.46-26.87 35.7-26.26 57.53-19.61 2.09.63 8.97 26.48 6.37 52.43-3.13 31.29-9.75 48.13-20.35 52.91-9.24 4.17 45.11 15.17 45.11-27.68 0-4.92-1.58-30.34-1.64-36.42-.15-14.36 4.65-39.42 36.03-39.42 6 0 15.18 3.08 21.71 14.2 4.23 7.21 8.68 25.81 9.82 31.08 4.96 22.9 5.82 44.57-.33 51.14-4.25 4.54 35.69 3.2 28.13-33.16-.7-3.38-6.53-24.36-7.79-30.08-1.19-5.42-2.88-14.56-.62-23.28 3.38-13.04 14.33-21.33 28.14-21.33 9.42 0 20.67 4.93 27.26 21.38 2.27 5.64 10.3 46.79 21.14 53.14 13.44 7.86 40.68-4.5 30.29-7.14-5.58-1.42-11.64-7.85-14.85-13.63-5.49-9.86-7.63-20.13-9.19-30.53-2.47-16.48-1.23-32.61 1.13-40.07 4.64-14.67 11.5-18.61 22.78-18.61 7.1 0 14.45 6.67 19.84 8.81 15.43 6.12 24.98-27.19 17.63-24-10.6 4.59-40.65-3.43-36.73-34.29 1.68-13.15 7.69-16.01 12-43.35.74-4.66 16.9 11.26 34.29 9.55 9.31-.92 13.98-34.67 8.95-32.01-19.71 10.41-48.52-1.63-46.66-28.24 1.71-24.49 1.19-38.89.49-48-.24-3.18 9.31.25 26.25.74 11.19.33 15.14-3.44 17.84-10.3 2.79-7.08-.25-30.59-3.42-27.43-11.48 11.43-29.56 8.35-37.47 3.43-11.02-6.86-15.67-12.25-15.67-26.7 0-15.03-1.47-23.51-10.53-41.38 22.53-1.47 27.47-.78 32.08-7.59 8.8-13-6-38.88-7.37-31.96-2.28 11.54-23.53 17.66-31.51 17.35-27.12-1.05-19.24-23.36-50.72-41.73 18.08-11.78 25.38-20.67 25.9-25.77.66-6.55-21.44-22.22-20.72-16.51 1.18 9.37-7.93 22.28-24.32 24.08-13.71 1.51-25.44-3.53-44.86-4.56-13.63-.72-35.86 1.08-35.86 1.08s16.12-23.94 13.03-29.8c-1.82-3.46-20.66-9.85-18.31-3.59 2.1 5.57-4.1 16.73-14.87 22.98-12.38 7.17-22.52 10.03-40.4 13.71-8.33 1.71-8.33 3.18-6.73 8.54.82 2.75 1.83 6.34 2.65 9.32 38.24-2.86 89.62-1.6 94.64 18.68 18.18 0 37.42 3.11 43.49 8.34 14.29 12.31 15.55 33.22-12.85 55.09 7.77 39.94 21.24 45.92 8.17 76.13-10.96 25.34-36.68 34.77-59.73 39.23-9.93 1.92-21.33 19.55-41.34 30.41-9.65 5.23-49.61 4.84-85.32 2.85zm-94.303 20.65c16.81 8.917 35.05 18.34 55.42 26.05 1.19-11.69 2.19-32.105 12.31-48.515-13.76-1.125-24.92-2.35-30.48-3.33-20.57-3.623-33.27-43.73-25.32-51.547h73.12v-16.582c-12.63-.092-38.98.34-56.96-1.81-5.28-.633-14.36.62-19.52 1.406-23.83 3.63-22.49-26.93-22.49-48.37-11.54-14.726-15.34-35.483-11.52-55.69 7.59-3.025 15.63-6.068 23.78-8.876-10.72-24.84-24.03-38.4-34.65-37.79 3.29 7.22 4.69 14.043 4.69 14.043 2.79 15.302-20.17 19.485-22.96 4.182-1.2-5.99-5.38-16.25-10.6-22.9-5.93-4.38-25.15-5.97-25.64-1.07 8.44 9.1 14.33 22.72 14.33 22.72 5.95 14.37-15.61 23.3-21.56 8.93-2.91-6.95-10.49-21.22-20.09-23.86 0 0-21.29-3.44-24.05 6.88-2.25 8.43 13.24 20.95 14.73 22.28 8.08 7.18 17.31 15.78 17.31 35.89v12.76l-16.04 6c-18.22 6.21-24.98 14.76-8.16 26.07 8.63 5.8 16.41 11.59 23.29 16.58 6.66 4.84 11.54 8.13 15.8 10.3 6.5 3.31 10.28 3.78 17.51.11l13.34-6.79 11.3 9.82c35.1 30.5 47.82 66.58 53.02 103.08zm-920.05 0c5.2-36.508 17.92-72.587 53.02-103.085l11.3-9.82 13.34 6.787c7.22 3.68 11 3.21 17.51-.1 4.26-2.17 9.14-5.46 15.8-10.3 6.88-4.994 14.66-10.78 23.28-16.585 16.82-11.312 10.06-19.862-8.16-26.076l-16.04-6.01v-12.76c0-20.11 9.23-28.72 17.31-35.9 1.49-1.33 16.98-13.84 14.73-22.28-2.75-10.32-24.05-6.88-24.05-6.88-9.6 2.63-17.17 16.91-20.08 23.85-5.96 14.37-27.51 5.44-21.56-8.94 0 0 5.88-13.62 14.33-22.73-.49-4.9-19.72-3.31-25.64 1.06-5.22 6.65-9.4 16.91-10.6 22.9-2.79 15.3-25.75 11.12-22.96-4.19 0 0 1.4-6.82 4.7-14.04-10.63-.61-23.93 12.95-34.65 37.79 8.14 2.81 16.18 5.85 23.78 8.87 3.82 20.21.02 40.97-11.52 55.69-.01 21.44 1.34 52-22.49 48.38-5.16-.79-14.24-2.04-19.52-1.41-17.98 2.15-44.33 1.72-56.96 1.81v16.58h73.12c7.95 7.82-4.75 47.93-25.32 51.55-5.56.98-16.72 2.21-30.48 3.33 10.12 16.41 11.12 36.83 12.31 48.52 20.37-7.71 38.61-17.13 55.43-26.05zm-94.31-20.65c-35.71 1.99-75.68 2.385-85.32-2.85-20.01-10.865-31.42-28.496-41.34-30.416-23.05-4.455-48.78-13.89-59.74-39.23-13.07-30.213.4-36.194 8.16-76.136-28.4-21.87-27.13-42.783-12.85-55.094 6.07-5.233 25.32-8.342 43.49-8.342 5.02-20.27 56.39-21.53 94.64-18.672.82-2.986 1.83-6.57 2.65-9.324 1.6-5.36 1.6-6.83-6.73-8.542-17.88-3.68-28.03-6.537-40.41-13.713-10.78-6.25-16.97-17.4-14.87-22.98 2.35-6.26-16.49.13-18.31 3.59-3.09 5.85 13.02 29.8 13.02 29.8s-22.23-1.8-35.86-1.08c-19.42 1.02-31.15 6.07-44.86 4.56-16.39-1.8-25.5-14.71-24.32-24.08.72-5.71-21.38 9.96-20.72 16.51.51 5.1 7.81 13.99 25.9 25.76-31.48 18.37-23.61 40.67-50.72 41.73-7.99.31-29.24-5.82-31.52-17.36-1.37-6.93-16.17 18.95-7.37 31.95 4.61 6.81 9.55 6.12 32.08 7.59-9.06 17.88-10.53 26.36-10.53 41.39 0 14.45-4.65 19.84-15.68 26.69-7.91 4.92-25.99 8-37.47-3.43-3.18-3.16-6.21 20.35-3.43 27.43 2.69 6.86 6.64 10.62 17.83 10.29 16.94-.5 26.49-3.93 26.25-.75-.7 9.11-1.23 23.51.49 48 1.86 26.61-26.95 38.64-46.66 28.23-5.04-2.66-.37 31.09 8.94 32.01 17.38 1.71 33.55-14.21 34.28-9.55 4.31 27.33 10.33 30.19 12 43.34 3.92 30.86-26.14 38.88-36.74 34.28-7.35-3.18 2.2 30.12 17.63 24 5.39-2.14 12.74-8.82 19.84-8.82 11.27 0 18.14 3.94 22.78 18.61 2.35 7.45 3.6 23.59 1.13 40.06-1.57 10.4-3.71 20.67-9.2 30.52-3.22 5.77-9.27 12.2-14.86 13.62-10.39 2.65 16.85 15 30.29 7.14 10.83-6.34 18.87-47.5 21.14-53.14 6.59-16.45 17.84-21.37 27.25-21.37 13.81 0 24.76 8.28 28.14 21.32 2.26 8.72.57 17.86-.62 23.28-1.25 5.72-7.09 26.7-7.79 30.08-7.57 36.35 32.38 37.69 28.12 33.16-6.15-6.57-5.29-28.24-.33-51.14 1.14-5.27 5.58-23.87 9.82-31.08 6.52-11.12 15.71-14.2 21.71-14.2 31.37 0 36.18 25.05 36.02 39.41-.07 6.08-1.64 31.51-1.64 36.42-.01 42.85 54.34 31.85 45.1 27.68-10.61-4.78-17.23-21.62-20.35-52.91-2.6-25.96 4.28-51.8 6.36-52.44 21.82-6.65 44.07-7.26 57.52 19.61 3.39 6.76 6.39 18.54 10.71 22.12 8.9 7.38 27.04-.25 31.22-12.11-19.73-7.43-20.6-35.95-11.28-54.93 4.25-8.64 7.88-20.53 10.53-33.82 3.12 3.44 21.73 17.43 31.08 14.35 6.97-2.3 14.27-32.15 6.98-28.07-15.68 8.78-34.55-11-41.61-20.27-3.8-4.99-11.74-15.67-12.89-35.45-.81-13.81-2.07-31.04-17.2-43.3zm61.81-36.708h-72.56v-56.4s57.29.256 74.56-1.81c4.29-.514 11.08-.744 19.35.64 1.11.186 3.96-.35 4.04-2.128 1.66-9.982 1-32.542 1-32.542s12.95-12.566 12.95-34.54c-19.45-7.283-39.41-13.462-54.97-15.27-5.52-.643-24.6-2.087-29.19-2.8-7.27-1.132-12.84-3.865-17.12-7.112-3.3-2.504-13.8-16.485-19.26-17.688-41.53-9.167-88.55-4.812-99.45-2.37-14.27 3.197-18 16.498-18 16.498-7.84 0-25.06-.136-32.29 1.383-8.42 1.77-11.57 2.32-11.79 8.08-.39 10.04 24.64 25.85 24.64 25.85s-5.35 29.73-14.54 55.11c-2.02 5.56-2.1 10.19 2.75 21.4 6.73 15.56 23.09 24.07 45.18 27.55 16.17 2.55 36.63 28.15 46.64 32.18 6.1 2.46 44.56 2.1 59.43 1.51 29.72-1.17 60.23-3.45 70.45-5.75 3.21-.72 6.45-7.71 8.15-11.75zm-372.99 688.7c.59 23.91-7.32 49.72-29.33 75.15-11.06 12.786-20.77 23.097-28 32.18-13.32 16.72-14.29 19.95 11.64 38.79 70.07 50.9 99.43 93.94 115.31 125.737 10.53 21.083 13.2 33.15 17.58 32.763 8.21-.725 16.83-1.544 27.26-4.016 5.3-1.257 9.66-2.693 13.12-4.164-16.49-34.735-39.7-79.157-121.42-136.59-44.86-31.526-22.99-52.16 8.33-86.08 24.35-26.375 7.77-51.888-14.5-73.768zm279.32-317.54c-29.72-1.543-45.74-16.634-53.82-36.36-15.74-5.9-28.92-20.06-31.53-46.483-2.45-24.734 11.89-56.81-13.38-56.81-4.13 0-8.87 19.22-10.91 28.646-12.82 59.18 15.72 43.774 4.95 56.324-18.34 21.366-81.28 16.75-74.35-45.154 1.98-17.685 19.33-51.227 1.24-51.227-12.87 0-11.26 48.06-34 67.863-1.52 62.71-41.66 145.22-72.98 181.33-53.43 61.6-60.58 125.35-17.79 168.14 6.31 6.31 14.97 13.4 23.77 21.15 9.38 8.25 20.1 18.15 28.83 29.12 17.99 22.61 31.61 56.97.8 90.34-7.42 8.03-13.85 15.63-19.74 22.06-13.87 15.16-4.42 20.64 7.68 29.09 50.6 35.36 80.47 66.92 100.36 95.14 9.8 13.91 16.96 26.75 22.93 38.64 5.49 10.93 9.91 20.99 14.6 30.23 3.1 6.1 29.8 15.63 48.7.09.45-12.4-4.64-26.55-11.97-37.14-8.85-12.79 10.34-26.07 19.19-13.28 10 14.45 18.26 37.56 15.87 55.77 21.38 7.42 38.58 6.69 53.31-1.89 2.14-21.86-3.79-37.65-11.12-47.29-9.42-12.39 9.16-26.51 18.57-14.13 10.5 13.82 16.91 34.27 16.57 52.61 12.72-1.33 17.34-9.67 18.82-19.37 2.35-15.37-3.26-33.84-9.99-42.44-4.19-5.35-16.65-20.71-43.48-20.71-24.95 0-139.2-67.82-139.2-112.7 0-13.54 8.92-22.47 13.25-26.35 5.26-4.71 11.88-8.97 18.03-12.66 11.78-7.07 27.5-15.25 43.2-25.46 30.93-20.11 53.25-42.95 53.25-74.37 0-27.39-8.25-65.02-64.14-70.09-11.99-1.09-52.77-5.07-78.74 8.18-13.86 7.07-26.18-10.07-13.48-19.06 0 0 14.47-10.54 50.82-14.06.4-68.35 67.26-133.34 98.05-156.79 9.33-7.11 19.3-17.51 27.73-30.96zm-23.73-33.93c6.53 6.65 15.84 10.73 28.85 10.73 28.49 0 57.15-27.66 88.28-74.68 14.9-22.514 28.61-46.533 41.48-67.91 12.84-21.335 26.26-42.573 39.99-56.88l7.01-7.31c25.12 3.1 64.05-14.67 64.05-14.67l10.21 7.056c8.74 6.04 20.63 7.905 29.86 6.478 7.44-1.152 10.18-5.46 10.91-10.863 1.57-11.77-8.84-20.64-15.22-24-13.36-6.39-3.78-26.43 9.59-20.04 0 0 15.45 6.31 25.66 26.89 11.07 1.05 12.12-4.91 12.82-11.82 1.35-13.3-6.66-36.77-42.19-37.02-14.77 1.07-16.38-21.09-1.6-22.16 0 0 15.59-.88 25.77 3.69 1.81-10.53-2.13-15.5-6.47-17.18-12.79-4.93-47.75-5.16-130.35 31.29-18.62 8.22-57.88 32-95.37 46.34 8.28 9.88 21.33 15.52 33.68 5.33 20.09-16.58 16.04 68.38-15.11 72.92-11.69 1.71-20.71-5.43-20.71-5.43s-1.53 10.58-4.45 16.22c-6.96 13.44-4.08 29.56 17.67 28.36.29 26.21-23.12 62.87-61.03 48.98-26.72-9.79-15.71-50.36-45.72-45.46-.85.14-3.96 14.8-2.48 33.25 4.45 55.21 26.42 42.65 27.64 48.8 2.66 13.52-13.27 25.72-32.8 29.12zm-453.53-211.1c7.9 20.37 13.01 26.72 50.48 25.25 7.01 21.095 10.79 46.43 11.39 62.187 1.83 48.52-10.36 81.88-28.26 111.362-5.82 9.59-14.88 23.18-24.39 38.48-9.02 14.51-18.5 30.62-25.71 46.18-38.73 83.52-11.84 183.24 79.33 212.15 13.49 4.27 43.26 8.57 75.66 4.47-4.78-8.74-8.24-17.83-10.47-27.16-67.28 7.09-116.59-24.07-134.34-72.61-13.21-36.11-6.37-72.72 6.37-104.75 12.71-31.96 32.45-62.12 48.53-86.42 39.11-59.08 34.22-128.14 20.72-187.1 13.01-6.92 26.44-12.24 26.41-35.99 0-16.85-3.58-33.75-19.07-48.28-34.96-32.79-90.06-11.92-109.36 2.66 10.86 7.95 17.18 18.69 21.41 28.28 4.28 9.72 7.27 20.8 11.26 31.26z" id="Fill-8" fill="#1A171B"/>
    </g>
  </g>
</svg>