<svg xmlns="http://www.w3.org/2000/svg" viewBox="0 0 400 400.075">
  <g>
    <path d="M397.43 200.037a197.43 197.43 0 1 1-394.86 0 197.43 197.43 0 1 1 394.86 0z" fill="#fff" fill-rule="evenodd"/>
    <path d="M191.347 400.016c-42.663-1.935-83.1-17.162-116.33-43.805C20.067 312.15-7.673 242.7 1.847 173 7.167 134.025 23.65 97.958 49.83 67.996c3.42-3.916 11.636-12.246 15.78-16.003 46.05-41.74 107.695-59.606 169.064-49C320.53 17.83 387.43 87.92 398.532 174.66c1.173 9.17 1.464 14.182 1.468 25.298.004 10.994-.204 14.936-1.255 23.748-4.108 34.467-16.948 66.946-37.52 94.91-18.82 25.582-43.528 46.363-72.1 60.642-22.866 11.427-46.837 18.067-73.405 20.33-3.822.327-20.252.614-24.373.428zm25.01-21.303c20.92-1.877 37.966-6.318 55.067-14.346 14.71-6.907 22.584-11.364 32.236-18.25 19.444-13.876 36.553-32.467 48.832-53.062 15.962-26.773 24.52-56.09 25.318-86.73l.15-5.794-59.52.06-59.52.06v66.31l9.75.06c8.843.06 9.78.1 10.04.45.457.62.41 46.71-.053 50.43-1.19 9.6-4.14 17.19-9.27 23.87-1.7 2.22-5.68 6.22-8.354 8.41-9.363 7.67-21.26 12.46-36.38 14.65-22.966 3.34-51.5 1.44-72.302-4.8-10.42-3.12-19.66-7.44-27.88-13.03-1.39-.94-2.96-2.07-3.5-2.5l-.97-.79V200.33c0-114.327.06-143.418.29-143.71.41-.513 5.58-3.576 9.43-5.58 14.13-7.356 32.93-13.458 47.3-15.355 29.07-3.835 54.47-.967 77.28 8.728 11.34 4.822 17.81 11.533 21.81 22.627.97 2.686 1.92 6.803 2.26 9.797.16 1.41.3 12.865.39 31.802l.14 29.59 43.37.05c23.85.03 43.5-.03 43.66-.13.35-.22-1.11-4.99-2.84-9.25-2.91-7.22-8.93-18.31-14.65-27.02-10.25-15.61-23.24-29.87-37.85-41.56C297.17 49.6 281.44 40.51 265.01 34c-16.65-6.6-34.88-10.69-53.575-12.018-5.25-.37-18.81-.37-23.75 0-9.1.686-14.74 1.445-24.93 3.355-12.3 2.31-20.602 4.757-31.29 9.23-42.49 17.79-80.79 56.86-98.07 100.05-3.175 7.94-5 13.775-7.2 23.005-3.84 16.116-5.405 29.05-5.405 44.627 0 10.87.61 18.56 2.28 28.78 6.91 42.32 29.05 80.19 63.33 108.34 14.6 11.99 28.136 20.04 44.88 26.68 18.375 7.29 38.62 11.69 59.73 12.99 4.88.3 20.647.09 25.355-.33zM168.01 351.87c2.585-.763 4.363-1.577 6.932-3.175 5.255-3.268 8.523-7.214 10.02-12.1l.53-1.722.066-38.432c.046-26.54-.01-38.93-.18-40.03-.745-4.86-3.55-9.61-7.95-13.45-4.412-3.85-8.978-5.48-15.308-5.47-4.92.01-8.547 1.09-12.55 3.74-4.554 3.02-8.16 8.01-9.5 13.16-.304 1.17-.348 6.28-.348 40.7 0 39.08.003 39.38.474 41.08 1.776 6.41 8.582 13.2 15.503 15.47 3.77 1.24 8.68 1.35 12.31.27zm-7.893-14.696c-2.202-.81-4.24-2.786-5.017-4.864-.467-1.247-.47-1.473-.41-37.663l.06-36.41.647-1.316c.792-1.61 2.288-3.14 3.757-3.85 1.674-.8 4.764-.9 6.608-.2 1.868.71 3.754 2.58 4.442 4.42l.5 1.34-.06 36.76-.06 36.76-.534 1c-.822 1.54-2.245 2.94-3.772 3.7-1.236.62-1.608.7-3.36.68-1.085-.01-2.345-.15-2.8-.32zm78.038-.093c0-11.95.044-13.77.345-14.02.26-.21 1.477-.26 4.933-.18 2.523.06 4.59.02 4.59-.08.003-.1.005-3.67.007-7.93l.003-7.74-4.756-.06c-3.455-.04-4.806-.14-4.937-.34-.098-.15-.18-4.13-.182-8.83l-.003-8.54h-14.958l.074 8.73c.07 7.5.03 8.77-.26 8.96-.42.29-10.33.04-10.65-.27-.19-.18 3.29-14.95 13.44-57.04 1.38-5.7 2.5-10.42 2.5-10.49 0-.073-3.67-.133-8.15-.133H212l-.216.518c-.117.286-2.706 10.947-5.75 23.69-3.047 12.748-7.492 31.27-9.88 41.16-2.386 9.89-4.34 18.146-4.34 18.338 0 .31 1.687.33 15.11.21 11.24-.105 15.177-.073 15.374.12.19.195.26 3.958.26 13.987v13.72h15.604V337.1zm-39.287-106.61c12.142-1.26 22.705-5.43 31.235-12.33 2.59-2.09 6.84-6.43 8.547-8.72 4.01-5.39 6.778-11.94 8.11-19.2.518-2.81.725-10.83.36-13.93-.336-2.86-1.03-6.32-1.747-8.69-.498-1.65-1.106-2.67-5.227-8.83-4.743-7.09-8.583-12.62-18.28-26.35-13.177-18.65-20.562-29.59-26.124-38.69l-1.42-2.32-.387-4.39c-.314-3.56-.336-4.64-.115-5.71.65-3.14 3.212-6.66 6.52-8.94 3.562-2.45 4.566-2.71 10.396-2.69 5.11.02 6.664.34 10.18 2.07 3.095 1.53 5.238 3.62 7.143 7 3.12 5.538 4.64 10.58 5.62 18.737.19 1.61.4 3.06.45 3.215.08.22 1.45.288 5.82.288 3.15 0 5.89-.06 6.09-.14.33-.12.36-2.71.36-26.94 0-14.74-.08-26.843-.18-26.89-.1-.044-1.78-.025-3.75.045l-3.58.13-2.36 3.5c-1.54 2.268-2.51 3.498-2.77 3.498-.22 0-1.06-.4-1.86-.89-4.31-2.62-10.69-5.21-17.59-7.15-8.26-2.32-20.35-2.226-30.11.24-6.15 1.55-13.35 4.686-18.46 8.035-10.04 6.58-18.09 17.9-21.12 29.705-1.35 5.25-1.77 10.4-1.25 15.21.45 4.124 1.92 9.686 3.25 12.304.336.66 37.32 54.82 47.02 68.85.923 1.34 1.29 2.2 2.172 5.164.992 3.33 1.052 3.68.943 5.505-.22 3.56-1.84 6.68-5.17 9.912-1.45 1.41-2.267 1.986-3.98 2.81-3.52 1.694-5.156 2.038-9.726 2.046-3.35.01-4.153-.06-5.69-.5-4.94-1.405-8.67-4.39-10.913-8.744-1.93-3.74-2.77-7.39-3.584-15.56-.643-6.45-.99-8.69-1.386-9.02-.174-.148-3.224-.21-8.393-.17l-8.12.06-.06 28.51-.04 28.5h11.266l.505-.55c.28-.3 1.37-1.9 2.42-3.554 1.52-2.39 2.02-3.01 2.43-3.01.28 0 1.57.52 2.87 1.153 8.14 3.98 12.17 5.42 18.31 6.54 6.74 1.23 14.86 1.58 21.34.9z" fill="#0060a9"/>
  </g>
</svg>