<svg xmlns="http://www.w3.org/2000/svg" viewBox="0 0 35.316 52.974">
  <defs>
    <style>
    .fil0 {fill:#1D9053}
    .fil1 {fill:white}
    </style>
  </defs>
  <g id="Ebene_x0020_1">
    <g id="Ebene_1">
      <path id="_44070144" class="fil0" d="M17.658 0L0 26.487l17.658 26.487 17.658-26.487z"/>
      <path id="_44070088" class="fil1" d="M17.658 1.174L.783 26.487 17.658 51.8l16.875-25.313L17.658 1.174zM2.133 26.487L17.658 3.2l15.525 23.287-15.525 23.288L2.133 26.487z"/>
      <path id="_44070864" class="fil1" d="M21.304 42.406s5.292-10.275 5.292-18.212c0-7.938-4.19-13.317-8.6-13.317-3.307 0-4.453 2.513-4.453 3.968 0 1.456 1.41 2.69 2.69 2.69 1.543 0 2.107-1.02 2.107-1.02 1.95 1.152 5.39 2.916 5.213 9.972-.124 4.937-.794 5.777-1.72 8.687-1.41-3.704-4.233-9.922-4.233-9.922l-4.454 9.746s-1.836-4.19-1.94-10.1c-.013-.704-.013-1.015.265-3.573 1.985 0 3.13-.79 3.13-2.6 0-1.745-1.542-2.645-2.645-2.645-1.102 0-3.88 1.102-3.88 6.35 0 9.128 5.865 19.844 5.865 19.844l3.66-7.276 3.704 7.408z"/>
    </g>
  </g>
</svg>