<svg xmlns="http://www.w3.org/2000/svg" id="Ebene_1" viewBox="0 0 85 85">
  <path fill="#fff" d="M78 42.6C78 62.2 62.1 78 42.5 78S7 62.2 7 42.6C7 23 22.9 7 42.5 7S78 21.1 78 42.6z"/>
  <path fill="#65B32E" d="M7.7 42.5C8.3 20.9 23.2 12.1 33 9c4.5-1.4 8.4-1.5 8.4-.9 0 .4-3.4.1-8.1 1.8-8.3 3-20 10.4-20.7 29.4 0 17.5 14.2 31.6 31.7 31.6s31.6-14.2 31.6-31.6c0-3.7-.6-6.7-1.5-9.2-1.5-4.5-3.4-6.6-2.6-6.6.6 0 2.3 3.5 3.5 6.8 1.4 3.8 2 7.3 2 12.3 0 19.2-15.6 34.8-34.8 34.8-19.2-.1-34.8-15.6-34.8-34.9z"/>
  <path fill="#65B32E" d="M39 31.6c0-6.2 10.2-5.6 10.2-5.6v22c0 1.5 1 2.5 2.7 2.5 2.8 0 2.6-2.5 2.6-2.5V25.3c0-5.5 10.1-5.5 10.1-5.5V51c-.9 5.5-5.7 9.8-11.3 9.8-3.7 0-7-1.8-9.1-4.7-2.2 2.9-5.5 4.7-9.2 4.7-5.7 0-10.4-4.2-11.3-9.8l-.1-1.8V25.4c0-5.5 10.1-5.5 10.1-5.5v28.3c0 1.6 1.1 2.5 2.6 2.5s2.8-.9 2.8-2.5C39 48 39 36.8 39 31.6z"/>
</svg>